<?xml version="1.0" standalone="no"?>
<!DOCTYPE svg PUBLIC "-//W3C//DTD SVG 20010904//EN"
 "http://www.w3.org/TR/2001/REC-SVG-20010904/DTD/svg10.dtd">
<svg version="1.0" xmlns="http://www.w3.org/2000/svg"
 width="3375.000000pt" height="3375.000000pt" viewBox="0 0 3375.000000 3375.000000"
 preserveAspectRatio="xMidYMid meet">

<g transform="translate(0.000000,3375.000000) scale(0.100000,-0.100000)"
fill="#000000" stroke="none">
<path d="M15905 31361 c-22 -5 -44 -17 -50 -26 -39 -67 -93 -90 -160 -67 -58
20 -118 8 -187 -39 -82 -56 -77 -90 19 -114 l47 -12 -84 -6 c-46 -3 -91 -2
-100 3 -8 4 -28 26 -45 49 -34 46 -67 61 -135 61 -56 0 -106 -16 -132 -42 -10
-10 -31 -18 -48 -18 -16 0 -62 -15 -102 -34 -147 -69 -309 -92 -568 -82 -202
8 -232 3 -310 -49 -49 -33 -57 -35 -132 -35 -62 0 -90 -5 -131 -24 -66 -30
-82 -33 -253 -51 -78 -8 -154 -19 -169 -25 -15 -6 -88 -26 -163 -45 -76 -19
-157 -41 -180 -49 -24 -9 -74 -21 -110 -27 -37 -6 -95 -24 -128 -39 -34 -15
-122 -46 -195 -70 -196 -61 -216 -69 -304 -117 -169 -94 -180 -97 -368 -101
-120 -3 -195 1 -260 12 -199 33 -220 32 -477 -18 -208 -41 -329 -57 -600 -81
-108 -10 -216 -31 -284 -54 -32 -11 -108 -30 -170 -42 -246 -46 -500 -144
-573 -221 -17 -18 -40 -55 -50 -83 -11 -27 -35 -73 -55 -102 -34 -50 -36 -51
-54 -33 -11 9 -47 32 -80 50 l-61 33 -68 -34 c-59 -30 -70 -40 -82 -74 -15
-43 -14 -54 23 -196 23 -91 23 -98 8 -134 -14 -35 -14 -43 1 -99 22 -79 29
-86 81 -86 38 0 44 3 50 25 8 31 -3 75 -24 98 -14 16 -13 20 24 58 21 22 43
56 49 77 10 35 13 37 57 40 43 3 47 1 68 -32 12 -20 24 -57 27 -82 8 -75 19
-97 46 -89 81 26 90 19 112 -84 8 -40 20 -81 25 -91 18 -33 12 -98 -9 -110
-28 -14 -67 -12 -80 4 -7 8 -25 18 -41 21 -39 9 -75 38 -90 75 -11 27 -16 30
-60 30 -44 0 -48 -2 -61 -32 -7 -18 -30 -50 -51 -70 -21 -22 -40 -52 -43 -71
-4 -18 -15 -43 -26 -57 l-19 -25 -25 30 c-14 17 -25 35 -25 41 0 6 -9 23 -21
38 -16 20 -20 35 -15 60 4 20 0 47 -10 71 -11 28 -15 63 -12 138 l3 99 -39 33
c-36 30 -38 35 -31 71 4 22 21 54 41 76 28 31 34 46 34 82 0 31 -5 46 -16 50
-31 12 -49 5 -69 -27 -11 -17 -30 -37 -43 -43 -13 -6 -35 -22 -50 -36 -15 -13
-45 -36 -67 -51 -22 -15 -65 -45 -95 -67 -30 -23 -91 -59 -135 -82 -44 -22
-107 -64 -140 -92 -66 -58 -269 -204 -463 -336 -138 -93 -140 -97 -143 -201
-2 -54 -3 -56 -36 -68 -25 -9 -39 -23 -50 -49 -8 -21 -29 -64 -45 -97 -16 -33
-51 -119 -78 -192 -62 -167 -83 -208 -131 -259 -26 -27 -49 -66 -68 -116 -16
-42 -39 -91 -52 -109 -24 -32 -52 -83 -104 -187 -23 -46 -28 -71 -35 -190 -5
-103 -13 -151 -29 -192 -12 -30 -31 -95 -42 -145 -19 -83 -21 -110 -15 -330 4
-181 2 -272 -9 -370 -8 -71 -15 -157 -15 -190 0 -63 -56 -325 -109 -510 -38
-131 -77 -216 -129 -276 -21 -24 -67 -84 -102 -133 -100 -136 -134 -174 -243
-271 -105 -93 -201 -204 -288 -333 -28 -40 -102 -125 -165 -190 -104 -106
-223 -251 -272 -331 -10 -16 -40 -49 -66 -73 -27 -23 -70 -68 -96 -99 -39 -47
-51 -71 -65 -130 -10 -46 -36 -108 -71 -171 -101 -183 -149 -294 -168 -392 -9
-44 -27 -98 -40 -120 -55 -97 -95 -213 -115 -331 -12 -75 -34 -160 -59 -226
-54 -143 -64 -194 -51 -260 5 -30 14 -110 18 -179 5 -69 18 -170 30 -225 11
-55 27 -175 35 -266 9 -91 23 -185 32 -210 12 -32 19 -99 24 -244 10 -255 33
-457 70 -615 16 -69 36 -195 45 -280 9 -85 25 -218 36 -295 35 -253 53 -535
52 -810 l-1 -260 -36 -155 c-76 -324 -78 -331 -110 -375 -151 -211 -222 -295
-247 -295 -19 0 -19 -126 -19 -5160 0 -5101 0 -5160 19 -5160 11 0 23 -4 26
-10 4 -6 -5 -10 -19 -10 l-26 0 0 -505 0 -505 21 0 c21 0 82 -53 90 -79 4 -11
14 -9 44 12 22 15 43 27 48 27 4 0 20 -26 34 -58 13 -31 31 -71 39 -88 11 -24
10 -74 -1 -74 -1 0 -19 -7 -38 -15 -35 -14 -36 -14 -77 20 l-41 34 -32 -19
c-18 -11 -44 -20 -59 -20 l-28 0 0 -650 c0 -637 0 -650 19 -650 11 0 33 -11
48 -24 l28 -24 -24 -26 c-14 -14 -35 -26 -48 -26 l-23 0 0 -200 c0 -193 1
-200 20 -200 18 0 20 -7 22 -65 0 -36 1 -71 2 -77 1 -7 -9 -14 -21 -16 -22 -3
-23 -8 -23 -97 0 -89 1 -94 23 -97 12 -2 22 -10 22 -18 0 -8 -10 -16 -22 -18
-22 -3 -23 -8 -23 -98 l0 -94 73 0 c51 0 79 -5 96 -17 l24 -16 -29 -15 c-16
-8 -59 -17 -96 -20 l-68 -5 0 -297 c0 -289 1 -298 20 -303 26 -7 26 -27 0 -27
-20 0 -20 -7 -20 -359 l0 -360 23 -4 22 -4 -22 -2 -23 -1 0 -550 0 -550 11855
0 11855 0 0 3750 0 3750 -52 0 c-78 0 -233 35 -268 60 -31 22 -221 101 -275
114 -16 4 -70 28 -119 53 -113 56 -303 105 -545 138 -406 57 -433 67 -646 245
-238 199 -300 241 -475 325 -30 15 -66 35 -80 44 -14 10 -50 26 -80 35 -30 10
-128 54 -217 98 -260 129 -330 200 -324 331 5 103 24 143 178 367 9 14 31 41
48 61 16 19 47 62 67 95 21 32 42 66 48 74 5 8 15 26 20 40 5 14 28 50 50 80
22 30 40 65 40 78 0 13 11 33 24 45 13 12 36 47 51 77 15 30 35 64 44 75 10
11 26 42 35 68 10 26 28 60 41 75 12 15 30 54 40 87 9 33 27 74 39 90 13 17
29 48 36 70 7 22 31 76 55 120 23 44 46 91 50 105 4 14 18 48 30 75 62 137 91
208 121 295 18 52 39 109 48 126 9 17 20 55 26 84 6 30 23 77 39 104 15 28 38
94 50 146 13 52 31 109 41 125 10 17 25 64 34 105 9 41 31 104 47 139 17 35
35 89 39 121 4 31 22 84 39 117 17 33 36 89 43 124 6 35 23 89 38 119 15 30
31 81 34 112 3 31 20 110 37 175 17 65 39 165 49 223 10 58 30 135 44 173 15
38 26 88 26 115 0 53 24 237 40 305 5 23 10 69 10 102 0 33 7 94 16 136 13 60
15 86 6 118 -8 32 -7 48 3 69 9 17 17 113 25 272 10 206 10 276 -3 440 -13
169 -18 202 -40 250 -14 30 -35 87 -46 125 -26 93 -88 243 -117 280 -12 17
-26 43 -30 59 -9 36 -187 236 -257 288 -88 66 -92 68 -177 51 -63 -13 -81 -21
-115 -53 -22 -21 -83 -61 -135 -90 -52 -28 -111 -65 -130 -83 -19 -18 -56 -43
-82 -56 -26 -13 -65 -39 -87 -58 -38 -32 -44 -34 -86 -27 -33 4 -51 13 -62 31
-15 22 -14 25 7 48 13 14 31 25 41 25 22 0 35 17 51 65 9 28 24 44 52 60 47
26 59 49 75 142 7 40 21 94 31 120 17 44 22 49 85 74 37 15 74 34 83 42 10 8
31 22 47 30 17 9 43 27 60 40 28 24 29 25 12 50 -21 33 -47 138 -47 195 0 24
9 61 21 84 18 36 20 51 14 102 -8 64 -9 101 -5 251 2 79 -2 102 -30 184 l-32
95 7 200 c10 294 73 837 116 1004 56 211 100 436 110 550 10 128 20 189 63
377 14 61 30 151 37 200 6 50 20 128 30 173 36 157 50 412 50 912 1 442 -8
638 -30 705 -6 17 -22 100 -36 185 -14 85 -40 202 -59 260 -55 168 -103 329
-125 416 -37 146 -113 315 -224 499 -73 121 -136 254 -188 395 -143 394 -246
659 -291 750 -68 137 -155 284 -209 352 -71 90 -114 160 -146 240 -35 87 -130
278 -185 368 -24 41 -71 129 -104 195 -51 105 -71 132 -150 215 -50 52 -112
124 -139 160 -27 36 -82 101 -124 145 -41 44 -98 110 -128 147 -96 121 -142
159 -264 220 -134 67 -180 98 -291 200 -46 41 -130 114 -188 162 -58 48 -135
115 -172 149 -37 34 -81 69 -97 78 -16 9 -46 30 -66 47 -19 18 -40 32 -45 32
-6 0 -37 25 -70 55 -33 30 -65 55 -70 55 -6 0 -30 19 -53 43 -61 60 -137 112
-247 169 -105 55 -181 108 -325 229 -24 21 -70 49 -102 64 -32 14 -72 34 -90
42 -18 9 -79 60 -138 115 -58 54 -131 115 -163 135 -31 19 -66 44 -77 53 -25
22 -131 55 -205 64 -96 12 -270 72 -335 116 -33 22 -63 40 -67 40 -4 0 -54 23
-112 51 -94 45 -111 56 -151 109 -55 71 -100 94 -203 103 -130 11 -201 62
-220 157 -23 120 -34 128 -237 180 -134 34 -189 63 -262 140 -30 30 -77 69
-106 87 -28 18 -79 49 -112 69 -83 51 -130 62 -216 50 -51 -7 -83 -6 -117 3
-53 14 -142 67 -142 85 0 6 -25 40 -57 76 -42 49 -84 82 -169 133 -109 66
-150 104 -176 164 -38 88 -155 175 -193 143 -8 -6 -49 -23 -91 -36 -42 -12
-90 -34 -108 -48 -30 -23 -38 -24 -87 -16 -83 14 -156 30 -249 56 -47 13 -141
33 -209 44 -189 32 -312 71 -374 118 -77 60 -124 80 -207 92 -90 13 -219 44
-263 64 -18 8 -52 18 -77 21 -32 5 -55 17 -80 40 -49 47 -321 157 -505 204
-44 11 -107 31 -140 44 -46 19 -87 26 -175 30 -101 5 -126 10 -202 41 -48 20
-105 44 -125 54 -21 11 -63 22 -95 26 -69 7 -88 14 -88 31 0 7 -6 15 -13 18
-27 10 -213 16 -252 8z m-2292 -632 c84 -13 183 -59 198 -93 17 -37 -12 -84
-93 -149 -31 -25 -48 -46 -48 -60 0 -12 -9 -35 -20 -52 -11 -16 -20 -42 -20
-57 0 -15 -5 -50 -11 -78 -8 -37 -15 -50 -29 -50 -22 0 -34 15 -49 62 -10 30
-21 42 -56 57 -27 12 -50 31 -59 49 -9 17 -34 51 -56 77 -38 44 -40 50 -40
111 0 100 23 131 127 174 57 23 64 23 156 9z m3695 -28 c21 -13 -10 -21 -55
-14 -35 6 -36 7 -13 14 35 10 53 10 68 0z m-2781 -7 c-3 -3 -12 -4 -19 -1 -8
3 -5 6 6 6 11 1 17 -2 13 -5z m96 -39 c34 -29 48 -35 88 -35 25 0 62 7 82 15
32 13 36 13 53 -7 11 -11 46 -33 79 -49 33 -16 80 -39 104 -53 36 -20 52 -24
92 -19 45 5 49 4 67 -26 24 -39 19 -108 -10 -161 -15 -28 -39 -44 -119 -84
-93 -45 -109 -49 -207 -57 l-107 -9 -37 40 c-32 34 -43 40 -78 40 -45 0 -72
11 -108 43 -22 20 -24 21 -55 4 -57 -30 -118 -47 -168 -47 -41 0 -49 3 -49 18
0 10 13 28 30 40 16 12 37 36 45 52 13 26 21 30 55 30 37 0 39 2 46 36 4 20
19 50 34 68 50 56 80 108 80 137 0 68 23 75 83 24z m3130 -111 c37 -9 34 -20
-11 -43 -38 -19 -39 -19 -82 0 -23 11 -40 23 -36 27 13 12 70 30 86 27 8 -2
27 -7 43 -11z m-4955 -68 c9 -9 24 -38 32 -64 15 -45 16 -47 69 -59 126 -28
148 -44 165 -125 10 -46 -49 -144 -113 -188 -31 -21 -59 -50 -67 -68 -9 -23
-22 -33 -51 -41 -22 -6 -50 -22 -63 -36 l-24 -26 19 -35 c16 -30 17 -37 4 -45
-7 -5 -19 -9 -25 -9 -6 0 -23 -14 -38 -31 -15 -17 -43 -37 -62 -45 -30 -12
-39 -12 -70 1 -20 8 -38 15 -40 15 -2 0 -11 -17 -19 -37 -9 -20 -26 -51 -39
-68 -21 -27 -28 -30 -65 -27 -36 4 -46 10 -68 43 -14 21 -36 68 -49 104 l-24
65 53 25 c45 22 76 42 174 110 19 13 22 22 17 59 -8 58 19 233 52 334 23 71
43 105 82 140 33 30 42 33 85 29 27 -2 56 -12 65 -21z m3027 -75 c-4 -27 -13
-42 -25 -46 -22 -7 -26 -19 -35 -96 -3 -31 -12 -65 -19 -75 -13 -17 -15 -16
-28 12 -28 55 -29 81 -6 128 16 34 29 47 50 52 30 6 32 8 43 58 10 46 28 16
20 -33z m863 34 c20 -17 42 -25 66 -25 30 0 86 -19 105 -36 2 -2 -13 -22 -33
-44 l-36 -40 32 -64 c25 -52 39 -67 74 -84 37 -18 44 -27 51 -63 12 -63 52
-86 154 -88 14 -1 34 -7 45 -15 19 -15 19 -15 -5 -60 -22 -42 -22 -47 -9 -88
11 -34 22 -47 55 -63 68 -34 76 -44 68 -89 -11 -70 -26 -79 -125 -70 -90 7
-130 17 -130 33 0 5 14 23 30 39 17 17 30 34 30 39 0 5 -22 17 -50 28 -27 11
-50 23 -50 27 0 4 -16 25 -35 47 -27 30 -45 40 -79 45 -40 6 -44 10 -55 46 -9
30 -21 45 -49 60 -20 11 -55 33 -77 50 -28 21 -63 34 -117 44 -42 8 -93 23
-114 34 l-37 19 -1 86 c-1 80 1 87 21 98 13 7 33 33 45 58 45 96 51 101 128
101 58 0 73 -4 98 -25z m-4971 -286 c57 -27 128 -92 159 -145 23 -40 25 -47
14 -80 -11 -31 -14 -34 -22 -20 -6 10 -24 24 -41 31 -30 13 -33 11 -86 -36
-60 -54 -112 -75 -211 -85 -102 -11 -200 -81 -200 -143 0 -55 -20 -99 -52
-112 -27 -11 -34 -25 -40 -79 -2 -14 -9 -25 -18 -25 -11 0 -16 14 -18 53 -3
60 -39 127 -109 207 -36 40 -45 46 -58 35 -8 -7 -15 -17 -15 -23 0 -5 -11 -20
-25 -33 -28 -26 -33 -72 -11 -107 7 -12 19 -44 25 -70 10 -42 9 -55 -10 -106
-20 -57 -45 -81 -84 -81 -7 0 -36 -18 -65 -41 -72 -57 -94 -110 -85 -209 3
-41 9 -83 11 -92 4 -13 -3 -21 -22 -28 -38 -15 -52 1 -59 68 -11 106 -15 118
-53 159 -20 23 -46 54 -57 68 -23 30 -161 75 -232 75 -41 0 -83 25 -83 49 0
28 48 62 97 70 30 4 66 19 85 33 39 30 70 22 88 -22 6 -15 22 -37 36 -49 13
-11 24 -27 24 -34 0 -8 11 -19 24 -25 20 -9 27 -7 44 11 24 27 19 44 -22 79
l-31 27 30 10 c81 29 80 27 77 136 -3 110 -1 114 75 166 48 33 68 81 59 138
-6 43 -1 53 41 74 17 9 42 31 54 48 21 30 23 31 36 13 7 -10 13 -33 13 -51 0
-19 6 -46 14 -61 17 -32 92 -102 110 -102 7 0 29 24 49 54 19 29 56 70 81 91
41 34 51 37 90 33 42 -5 45 -3 84 42 30 35 52 50 84 58 24 6 59 23 78 36 39
28 59 27 127 -5z m4148 -1 c47 -37 57 -77 45 -171 -7 -45 -14 -85 -16 -89 -7
-12 -103 -10 -149 3 -41 11 -85 44 -85 63 0 6 23 44 50 84 28 41 50 84 50 96
0 13 3 26 7 29 14 15 72 6 98 -15z m-2472 -16 c14 -6 10 -11 -20 -26 -21 -10
-51 -24 -67 -32 -33 -17 -46 -7 -46 33 0 17 7 23 33 26 52 6 81 6 100 -1z
m5515 -99 c-10 -2 -28 -2 -40 0 -13 2 -5 4 17 4 22 1 32 -1 23 -4z m-2917
-195 c6 -24 15 -48 20 -55 6 -6 14 -25 19 -42 7 -25 4 -36 -19 -69 -16 -21
-48 -54 -72 -74 -43 -36 -44 -36 -72 -20 -48 28 -49 34 -28 112 22 77 35 100
57 100 17 0 17 1 4 36 -14 35 2 54 46 54 31 0 34 -3 45 -42z m2823 -8 c33 -15
58 -37 88 -78 23 -31 59 -76 81 -98 34 -37 39 -48 40 -94 2 -46 -1 -54 -25
-72 -23 -16 -28 -27 -28 -64 0 -42 -3 -46 -47 -74 -27 -16 -65 -35 -86 -40
-36 -11 -37 -12 -31 -49 9 -54 -9 -61 -122 -53 l-89 7 2 82 c1 79 3 84 32 108
16 14 35 41 42 59 8 23 24 38 53 52 22 10 42 24 43 30 7 21 -48 73 -87 84 -50
14 -57 24 -65 102 l-7 66 58 17 c47 14 89 28 100 34 1 1 22 -8 48 -19z m-900
-73 c37 -37 45 -51 48 -87 3 -40 6 -44 42 -56 21 -8 74 -17 118 -20 64 -6 82
-11 93 -27 13 -18 13 -23 -2 -40 -10 -10 -33 -25 -52 -33 -19 -8 -56 -33 -82
-57 -27 -23 -66 -57 -88 -75 l-40 -34 -19 32 c-11 17 -29 38 -41 46 -19 14
-27 13 -89 -17 -50 -24 -80 -32 -119 -31 -63 1 -82 10 -123 62 -39 49 -36 66
20 134 22 26 40 54 40 62 0 10 13 14 44 14 44 0 46 1 82 60 20 33 43 60 50 60
7 0 26 11 41 25 15 13 29 25 30 25 1 0 22 -20 47 -43z m-5902 -50 c-31 -7 -46
-7 -54 1 -9 9 1 12 43 11 l54 -1 -43 -11z m7361 -98 c37 -17 57 -59 50 -105
-6 -43 -56 -98 -124 -136 -37 -21 -39 -21 -58 -4 -55 50 -23 172 60 227 51 34
42 32 72 18z m-9449 -164 c20 -30 69 -57 90 -49 9 4 36 3 61 0 l45 -7 0 -49
c0 -65 13 -96 43 -104 14 -3 43 -27 66 -52 39 -45 40 -47 23 -69 -9 -13 -21
-20 -27 -15 -5 4 -25 10 -44 14 -41 7 -61 22 -61 46 0 25 -29 47 -82 60 -43
11 -51 10 -91 -12 l-44 -25 -67 61 c-52 47 -69 70 -76 100 -8 36 -6 40 27 70
30 25 78 49 114 55 4 1 14 -10 23 -24z m8252 -369 c20 -25 45 -58 55 -74 18
-28 18 -29 -4 -73 -18 -35 -31 -47 -66 -60 -90 -33 -116 1 -112 148 1 47 40
103 71 103 11 0 36 -20 56 -44z m2043 -425 c33 -30 63 -44 125 -61 45 -13 86
-28 91 -35 19 -23 54 -35 101 -35 70 0 125 -20 143 -52 31 -53 68 -42 174 52
36 32 47 49 49 73 l1 32 4 -32 c3 -25 12 -35 46 -52 23 -11 75 -47 115 -81 67
-57 72 -63 72 -101 0 -43 -17 -85 -46 -110 -12 -10 -67 -25 -144 -37 -142 -23
-141 -24 -161 52 -13 50 -36 84 -60 91 -10 4 -31 19 -46 34 -26 26 -32 27 -83
20 -30 -4 -75 -14 -100 -23 -25 -9 -75 -23 -112 -32 -46 -11 -80 -28 -106 -50
-21 -17 -57 -37 -81 -44 -23 -6 -52 -22 -64 -36 -34 -40 -52 -46 -97 -34 -51
14 -64 37 -50 91 6 23 9 43 6 46 -2 3 -21 8 -41 13 -43 10 -90 -4 -172 -51
-56 -32 -178 -69 -201 -61 -7 2 -22 22 -33 44 l-21 41 33 71 c40 89 46 96 130
147 65 39 71 41 116 33 39 -8 53 -16 79 -51 l32 -43 22 45 c16 33 32 49 61 62
27 12 42 25 46 43 11 47 41 68 98 69 21 1 43 -10 74 -38z m-11853 -245 c3 -8
0 -25 -6 -37 l-12 -22 -13 24 c-9 17 -10 28 -3 36 14 17 27 16 34 -1z m311
-252 c-3 -3 -12 -4 -19 -1 -8 3 -5 6 6 6 11 1 17 -2 13 -5z m93 -75 c0 -5 -7
-9 -15 -9 -9 0 -12 6 -9 15 6 15 24 11 24 -6z m-490 -79 c12 -7 12 -12 0 -34
-17 -32 -21 -32 -50 -1 l-23 25 24 9 c31 12 31 12 49 1z m-319 -161 c17 -9 19
-17 13 -57 -4 -26 -13 -60 -21 -75 l-14 -28 -20 25 c-11 14 -26 26 -32 26 -30
1 -39 18 -32 57 5 35 10 41 43 50 20 6 38 11 40 12 2 0 12 -4 23 -10z m152 -4
c7 -18 -9 -29 -30 -21 -12 5 -13 9 -3 21 16 19 26 19 33 0z m-125 -251 c1 -1
-11 -16 -28 -34 l-30 -32 0 58 0 57 28 -24 c15 -13 28 -25 30 -25z m-319 -164
c6 0 11 -4 11 -10 0 -13 -77 -13 -85 0 -3 6 -3 19 0 30 l6 20 29 -20 c15 -11
33 -20 39 -20z m139 -30 c17 -27 36 -50 42 -50 13 0 -14 -56 -43 -87 -11 -13
-26 -23 -32 -23 -14 0 -58 46 -74 77 -12 24 -14 82 -3 99 6 9 53 31 73 33 3 1
20 -21 37 -49z m-253 -290 c30 -11 25 -30 -9 -30 -28 0 -36 8 -29 26 6 17 5
17 38 4z m14349 -1665 c-4 -8 -10 -15 -14 -15 -4 0 -13 7 -20 15 -11 13 -8 15
13 15 19 0 25 -4 21 -15z m-14776 -806 c-2 -6 -8 -10 -13 -10 -5 0 -11 4 -13
10 -2 6 4 11 13 11 9 0 15 -5 13 -11z m-722 -476 l26 -16 -29 -12 c-18 -8 -34
-9 -46 -3 -18 9 -18 11 -1 29 21 23 19 23 50 2z m9355 -876 c15 -23 32 -59 39
-80 l12 -38 19 25 c10 13 19 28 19 33 0 5 11 19 23 32 l24 22 46 -20 c83 -36
108 -133 70 -266 -10 -33 -16 -85 -15 -116 1 -43 -2 -60 -16 -72 -26 -23 -119
-46 -186 -46 -32 0 -63 -4 -68 -9 -5 -5 -8 -27 -6 -48 3 -37 6 -40 49 -54 59
-19 73 -31 107 -94 l28 -53 -23 -34 c-17 -24 -23 -47 -23 -85 0 -65 22 -95 82
-109 43 -11 43 -11 46 -59 l3 -48 79 -36 c75 -34 79 -38 78 -67 -1 -16 6 -44
15 -62 10 -18 17 -39 17 -47 0 -18 122 -146 138 -146 6 0 24 -12 41 -26 l31
-26 15 36 c19 46 19 136 0 172 -15 30 -19 73 -9 109 3 11 29 34 57 50 80 46
93 49 139 30 40 -16 43 -16 55 1 14 19 9 50 -13 75 -22 24 -17 47 14 63 65 34
96 90 108 196 8 69 18 80 71 83 102 4 139 -2 150 -25 6 -13 37 -45 70 -73 59
-49 60 -51 55 -93 -4 -40 -2 -47 35 -85 26 -27 43 -55 47 -78 4 -21 15 -48 25
-60 9 -13 32 -50 50 -81 18 -32 39 -58 47 -58 21 0 54 -37 54 -62 1 -13 11
-43 23 -67 20 -41 27 -46 90 -66 l67 -21 20 33 c17 29 25 34 52 31 29 -3 34
-9 50 -52 9 -27 23 -53 30 -57 22 -14 47 10 65 61 19 53 23 56 71 39 25 -8 34
-20 47 -59 l16 -49 -32 -29 -32 -29 18 -46 c11 -30 24 -47 34 -47 15 0 16 9
13 65 l-4 65 35 0 c43 0 53 12 67 78 21 94 61 90 93 -10 12 -37 27 -61 52 -81
30 -24 35 -34 35 -70 0 -23 -7 -51 -15 -61 -22 -29 -18 -63 10 -112 22 -38 30
-44 71 -50 56 -8 66 -29 58 -112 -6 -55 -5 -61 24 -93 17 -19 53 -45 80 -58
45 -21 53 -30 72 -80 16 -40 23 -84 26 -154 5 -122 12 -137 65 -137 55 0 79
15 79 48 0 63 72 102 86 47 6 -26 2 -68 -10 -97 -6 -13 -1 -18 27 -23 26 -5
42 -1 70 18 20 14 57 28 82 31 55 9 70 29 78 105 6 53 28 101 47 101 5 0 20
-21 32 -47 18 -37 29 -49 49 -51 14 -2 31 4 38 12 19 23 -5 94 -44 130 -18 17
-35 40 -39 51 -3 11 -14 30 -24 43 l-18 23 -28 -50 c-36 -67 -56 -67 -97 -1
-17 28 -32 50 -34 50 -3 0 -16 -17 -30 -37 -19 -29 -25 -50 -25 -90 0 -46 3
-55 28 -70 56 -36 50 -48 -25 -48 l-48 0 -6 85 c-3 47 -13 102 -22 124 -19 43
-22 98 -7 126 6 11 29 24 53 31 59 15 64 22 71 90 4 33 12 71 18 84 15 32 2
89 -27 122 -13 16 -25 23 -25 17 0 -16 -40 -25 -45 -11 -10 31 -13 171 -4 195
l11 27 19 -24 c10 -13 19 -36 19 -51 0 -31 21 -53 45 -48 18 3 36 31 60 93
l16 39 21 -34 c14 -24 21 -48 19 -77 -3 -50 18 -67 90 -77 49 -7 61 -20 74
-81 16 -74 16 -111 1 -169 -22 -81 -12 -120 31 -124 27 -3 33 1 51 40 12 24
24 55 27 70 11 43 21 25 28 -47 8 -80 19 -102 56 -110 55 -12 63 -45 42 -162
-7 -36 -5 -45 13 -61 11 -11 36 -22 55 -26 51 -9 61 -22 50 -56 -6 -16 -9 -41
-7 -57 3 -26 7 -28 61 -35 82 -10 137 -43 154 -92 7 -21 27 -55 44 -75 16 -20
45 -58 63 -86 25 -38 43 -54 76 -66 24 -9 48 -26 53 -37 9 -20 75 -57 127 -72
24 -6 73 -70 132 -170 14 -25 53 -78 85 -117 38 -47 65 -92 76 -126 9 -30 36
-83 58 -118 53 -81 76 -134 85 -196 8 -56 29 -102 72 -156 17 -21 36 -54 43
-74 6 -19 38 -92 71 -161 44 -94 70 -135 98 -159 25 -22 46 -53 59 -89 12 -30
30 -72 40 -93 16 -30 51 -177 51 -212 0 -4 -23 -34 -51 -66 -76 -86 -81 -96
-72 -134 l9 -32 65 2 c100 3 114 -3 126 -54 9 -40 8 -45 -9 -51 -10 -3 -37 -3
-59 1 -30 5 -43 14 -52 32 -16 36 -54 52 -102 44 -57 -10 -134 6 -168 35 -16
13 -33 24 -38 24 -4 0 -15 12 -23 28 -25 44 -89 110 -119 121 -16 6 -45 11
-65 11 -20 0 -61 9 -90 20 -29 11 -61 20 -71 20 -16 0 -21 10 -26 44 l-7 44
-60 7 c-32 4 -82 14 -111 22 -29 8 -95 18 -147 22 -83 6 -106 12 -182 49 -49
23 -88 46 -88 50 0 13 -68 42 -112 47 -23 3 -45 8 -49 11 -8 5 -17 -3 -64 -61
l-25 -30 -19 23 c-17 19 -18 28 -9 53 9 26 6 38 -17 85 -15 30 -32 54 -39 54
-6 0 -40 -7 -75 -15 -88 -21 -123 -55 -129 -129 -6 -70 -22 -87 -80 -79 -36 5
-47 12 -67 43 -37 59 -114 81 -175 50 -47 -24 -104 -26 -156 -4 -62 26 -127
15 -173 -30 -28 -27 -45 -36 -72 -36 -38 0 -79 23 -79 45 0 7 -12 27 -26 45
-25 29 -28 30 -50 15 -37 -24 -79 -19 -114 15 -17 17 -40 30 -51 30 -11 0 -48
7 -82 16 -58 14 -65 19 -92 62 -16 26 -34 50 -40 54 -5 4 -50 8 -99 8 l-89 0
-33 36 -34 36 -29 -25 c-45 -37 -123 -43 -177 -13 l-41 23 -42 -34 -41 -35
-43 25 c-71 42 -184 37 -228 -9 -31 -33 -63 -31 -98 8 l-28 32 -109 -17 c-163
-25 -240 -30 -454 -32 -138 -1 -221 -7 -285 -19 -54 -10 -134 -17 -200 -17
-60 1 -167 -3 -237 -9 -102 -8 -135 -7 -166 4 -77 27 -114 24 -163 -16 -24
-19 -69 -43 -99 -53 -30 -10 -66 -30 -80 -45 -24 -26 -27 -26 -63 -14 -43 15
-75 5 -111 -35 -27 -30 -92 -28 -140 4 -20 14 -40 25 -44 25 -4 0 -23 -19 -42
-43 -34 -43 -35 -44 -77 -34 -40 8 -46 7 -79 -22 -19 -17 -38 -31 -42 -31 -4
0 -24 11 -45 25 l-37 26 -43 -29 c-57 -38 -117 -55 -152 -42 -42 16 -62 12
-99 -20 -19 -17 -90 -58 -157 -91 l-124 -61 -42 21 c-39 19 -46 19 -82 6 -22
-7 -56 -11 -78 -8 -48 6 -93 -14 -113 -52 -8 -14 -31 -37 -53 -49 -31 -19 -45
-22 -79 -16 -24 5 -53 4 -67 -2 -14 -5 -52 -16 -85 -23 -54 -13 -62 -12 -95 5
-20 10 -56 34 -80 53 l-43 34 -41 -20 c-36 -17 -47 -18 -90 -8 -27 6 -63 11
-80 11 -18 0 -53 8 -80 17 -38 14 -53 26 -74 63 -14 25 -30 48 -36 51 -19 13
-103 -4 -130 -27 -34 -28 -45 -29 -90 -8 -33 16 -36 16 -77 -8 l-42 -26 -66
25 c-37 14 -84 31 -104 39 -44 16 -69 17 -160 8 -61 -6 -71 -4 -112 20 -25 15
-46 32 -46 37 0 7 -29 10 -82 8 -54 -1 -94 2 -113 11 -41 19 -212 25 -272 10
-90 -22 -109 -22 -184 0 -112 32 -181 61 -217 92 -18 15 -45 30 -60 34 -79 17
-90 24 -96 59 -10 52 -47 115 -77 131 -25 13 -56 66 -110 191 -19 46 -21 58
-11 91 7 22 12 56 12 77 0 66 21 118 68 167 l45 46 -21 27 c-12 14 -24 46 -27
70 -5 33 -13 45 -32 54 -21 10 -29 9 -44 -5 -11 -10 -22 -14 -25 -11 -12 11 6
74 26 92 15 14 18 26 14 59 -4 27 -1 55 10 80 9 21 16 52 16 68 0 16 6 43 14
61 13 33 78 97 98 97 24 0 77 51 88 85 6 19 25 44 41 56 26 18 33 19 65 9 19
-7 38 -10 40 -7 3 3 1 40 -4 84 -5 43 -7 81 -5 86 2 4 26 7 52 7 48 0 48 0 68
48 11 27 33 64 49 83 17 19 42 51 58 72 37 51 52 55 86 22 l28 -27 22 22 c15
15 29 20 46 16 18 -5 26 -2 31 11 4 10 38 53 77 95 50 55 83 82 115 94 44 17
46 17 83 -5 l38 -22 20 33 c11 18 30 65 42 103 12 39 39 96 60 127 21 31 38
67 38 80 0 17 3 19 9 9 7 -11 11 -10 20 6 5 11 8 23 4 26 -3 4 0 26 6 49 9 32
9 55 2 91 -14 62 2 88 79 127 61 31 83 56 93 108 4 18 28 77 54 130 35 73 65
115 116 170 66 69 69 73 54 95 -13 20 -23 22 -103 24 -137 2 -240 43 -147 58
115 18 162 28 199 45 l41 18 -11 43 c-6 24 -21 60 -33 80 -27 43 -29 94 -8
166 13 43 21 53 53 68 44 21 95 67 123 113 24 37 44 40 75 11 12 -11 57 -29
100 -40 54 -13 85 -26 97 -42 9 -12 27 -33 38 -46 11 -14 28 -42 36 -64 19
-46 13 -53 -56 -63 -59 -9 -74 3 -85 65 -14 75 -30 57 -27 -31 3 -85 -13 -188
-35 -231 -14 -27 -14 -31 10 -62 15 -19 39 -36 56 -40 46 -10 54 -35 46 -148
-8 -115 -1 -134 42 -111 15 8 33 14 40 14 19 0 170 100 176 116 6 15 8 14 125
-37 51 -23 85 -17 76 13 -12 36 3 68 32 68 14 0 34 -6 42 -14 9 -8 45 -27 81
-43 61 -28 68 -29 104 -17 21 8 42 11 47 8 5 -3 9 -28 9 -55 0 -61 28 -93 90
-103 23 -3 43 -13 46 -21 4 -8 18 -15 33 -15 24 1 25 2 8 14 -15 11 -17 26
-15 77 l3 64 53 6 c29 4 62 15 73 25 17 16 22 16 30 4 29 -44 47 -91 54 -138
7 -56 16 -65 76 -76 39 -7 75 -38 64 -55 -3 -6 -33 -11 -66 -11 -68 0 -114
-19 -125 -52 -5 -17 1 -29 29 -54 33 -31 38 -32 94 -27 47 4 63 2 76 -11 23
-23 38 -83 31 -126 -5 -32 -3 -36 25 -46 21 -9 32 -21 39 -45 8 -33 10 -34 61
-34 45 0 56 -4 74 -26 12 -15 29 -29 37 -31 18 -6 59 24 75 55 14 28 62 26 87
-4 16 -19 17 -19 23 0 10 32 60 68 115 82 42 11 50 16 50 36 0 36 42 48 105
29 27 -8 77 -17 109 -21 69 -7 81 -14 90 -56 15 -76 121 -123 121 -54 0 25 -5
30 -33 36 -44 9 -54 20 -50 55 3 26 7 29 38 29 29 0 39 -6 58 -36 21 -33 29
-37 80 -43 68 -8 77 0 86 77 l7 52 59 18 c37 10 63 25 70 37 16 30 25 150 12
150 -6 0 -30 26 -53 57 l-42 57 19 34 c45 83 88 60 82 -43 -2 -33 -8 -68 -12
-77 -7 -16 -3 -18 30 -18 64 0 69 8 71 107 1 48 2 94 2 101 1 7 17 22 37 34
30 18 35 25 31 47 -3 15 -3 46 0 70 5 36 11 46 34 55 24 8 30 18 35 55 5 31 3
46 -5 49 -44 15 -50 58 -26 177 15 72 15 74 -10 140 -32 86 -33 155 -3 204 12
20 48 66 79 103 50 58 59 76 74 140 23 105 36 119 125 137 3 1 17 -18 31 -42z
m9836 37 c-3 -3 -12 -4 -19 -1 -8 3 -5 6 6 6 11 1 17 -2 13 -5z m-9030 -678
c-8 -21 -43 -21 -51 0 -3 8 4 33 17 55 l22 39 9 -39 c5 -22 6 -47 3 -55z m170
42 c10 -23 -3 -88 -18 -88 -10 0 -21 68 -14 90 8 26 20 25 32 -2z m-233 -84
c6 -17 -27 -68 -38 -57 -8 8 -8 58 1 66 12 12 31 7 37 -9z m146 -94 c0 -10 -4
-21 -9 -24 -12 -8 -22 20 -15 39 8 19 24 9 24 -15z m-245 -70 c8 -26 -4 -85
-15 -73 -9 8 -14 45 -12 76 3 23 19 22 27 -3z m1326 -472 c9 -37 9 -44 -7 -55
-29 -21 -47 3 -40 51 12 70 28 72 47 4z m233 -10 c7 -40 -6 -57 -28 -39 -11 9
-11 21 -3 52 11 45 22 41 31 -13z m905 -64 c-10 -28 -11 -28 -25 -10 -17 24
-17 39 -2 91 l11 40 14 -46 c10 -35 11 -53 2 -75z m-1319 41 c0 -46 -14 -60
-25 -26 -7 23 4 71 16 71 5 0 9 -20 9 -45z m-2749 -26 c27 -12 52 -32 58 -46
14 -30 3 -156 -15 -180 -11 -16 -16 -10 -44 49 -29 61 -36 68 -86 90 -59 25
-66 41 -33 82 25 32 56 33 120 5z m307 -100 c14 -48 4 -89 -22 -89 -19 0 -26
22 -26 79 0 77 26 83 48 10z m-4670 -1971 c3 -46 2 -47 -36 -66 -40 -19 -66
-15 -84 12 -9 12 27 46 48 46 8 0 17 14 21 31 4 23 10 29 27 27 17 -2 22 -11
24 -50z m11473 -1640 c13 -46 35 -78 53 -78 6 0 28 14 48 30 32 27 42 30 78
24 22 -4 56 -19 75 -34 18 -15 55 -35 80 -44 33 -13 45 -22 41 -33 -3 -8 -6
-27 -6 -43 0 -21 -7 -30 -30 -40 -36 -15 -60 -47 -85 -113 -10 -26 -21 -50
-25 -52 -4 -3 -19 6 -34 20 -16 15 -43 26 -73 30 -70 9 -72 11 -89 52 -9 21
-29 66 -45 101 -16 34 -29 74 -29 90 0 52 13 132 21 132 5 0 14 -19 20 -42z
m-793 -329 c17 -6 34 -19 37 -29 13 -42 -45 -110 -121 -141 -30 -12 -54 -26
-54 -31 0 -5 -4 -6 -10 -3 -5 3 -10 24 -10 45 0 22 -9 54 -20 72 -11 18 -20
36 -20 40 0 11 61 41 100 49 52 10 64 10 98 -2z m1373 -790 c5 -8 12 -27 16
-42 3 -17 15 -32 29 -38 28 -10 66 -67 60 -89 -17 -63 -16 -69 7 -85 21 -13
28 -13 70 1 26 9 47 17 47 18 0 2 -7 17 -16 35 -20 40 -12 61 23 61 15 0 38 3
51 6 21 6 22 3 22 -48 0 -30 -6 -62 -14 -74 -8 -11 -24 -49 -36 -83 l-21 -64
23 -24 c19 -21 22 -35 23 -111 1 -99 14 -131 74 -190 21 -20 43 -47 50 -59 12
-24 14 -20 -48 -75 -11 -9 -23 -34 -26 -55 -12 -77 -25 -112 -45 -118 -35 -11
-55 -54 -60 -129 l-5 -71 -43 -14 c-41 -13 -45 -12 -65 7 -18 19 -19 26 -10
67 6 25 6 48 2 51 -5 3 -9 20 -9 38 0 25 -10 42 -46 76 -53 52 -89 110 -99
160 -5 20 -23 50 -44 70 -20 20 -40 51 -46 70 -7 26 -18 38 -40 45 -44 15 -70
36 -89 73 -9 17 -23 32 -30 32 -7 0 -24 9 -38 19 -16 13 -29 17 -39 10 -8 -5
-26 -9 -41 -9 -15 0 -39 -5 -53 -10 l-27 -10 31 -35 c17 -20 31 -38 31 -41 0
-3 -11 -22 -25 -42 -14 -20 -25 -41 -25 -47 0 -6 -20 -25 -45 -43 -25 -17 -45
-36 -45 -41 0 -6 21 -24 46 -42 38 -26 45 -35 38 -53 -16 -44 -8 -111 21 -171
19 -40 28 -73 26 -98 -2 -32 3 -44 39 -83 53 -58 66 -90 80 -200 18 -143 29
-186 59 -232 44 -64 55 -151 43 -320 -11 -148 -23 -187 -89 -290 -19 -30 -41
-72 -50 -95 -9 -23 -20 -47 -25 -53 -5 -7 -11 -64 -13 -129 -6 -142 -12 -155
-68 -155 -54 -1 -97 -36 -97 -79 0 -23 5 -30 23 -33 12 -2 21 -7 19 -13 -4
-12 -36 -7 -40 6 -2 5 -12 9 -22 9 -19 0 -32 -33 -60 -146 -6 -23 -23 -58 -39
-78 -16 -20 -41 -65 -56 -101 -24 -56 -32 -65 -53 -65 -14 0 -33 7 -42 15 -16
14 -20 11 -51 -37 -28 -43 -42 -54 -84 -68 -33 -11 -55 -25 -65 -43 -8 -15
-27 -32 -42 -38 -35 -14 -64 -90 -82 -211 -8 -49 -16 -92 -20 -95 -4 -4 -19 0
-34 10 -27 16 -29 25 -18 79 3 18 -1 35 -14 50 l-18 23 -12 -30 c-9 -22 -9
-38 -1 -61 18 -51 3 -136 -31 -178 -16 -20 -39 -36 -50 -36 -32 0 -84 -59 -92
-105 -9 -46 -50 -95 -80 -95 -31 0 -41 -11 -42 -48 -1 -40 -29 -72 -61 -72
-32 0 -50 -10 -96 -54 -35 -33 -38 -40 -33 -74 6 -35 5 -38 -36 -64 -49 -30
-108 -48 -158 -48 -19 0 -57 -8 -83 -17 -48 -17 -49 -17 -110 7 -39 15 -82 24
-117 24 -82 1 -108 -10 -127 -49 -13 -28 -19 -32 -31 -23 -8 7 -18 22 -23 35
-10 27 -45 38 -82 24 -23 -9 -27 -16 -27 -50 0 -35 -3 -40 -31 -50 -55 -19
-125 -23 -195 -12 -89 15 -123 15 -213 2 -68 -10 -76 -10 -95 7 -12 11 -30 22
-41 25 -48 13 -179 67 -184 75 -14 22 -79 39 -129 34 -37 -3 -71 2 -121 18
-66 21 -69 23 -80 63 -24 83 -32 95 -93 132 -46 29 -72 38 -111 39 -52 2 -140
27 -187 52 -119 63 -121 65 -192 152 -11 13 -39 25 -78 33 -48 9 -65 18 -81
40 -32 46 -80 77 -189 124 -55 24 -126 62 -158 84 -49 34 -67 40 -130 46 -83
8 -102 20 -135 85 -21 43 -25 45 -82 55 -64 12 -94 25 -115 49 -7 9 -24 16
-39 16 -51 1 -83 23 -100 70 l-17 45 -66 0 c-69 0 -83 9 -123 76 -5 9 -23 33
-39 53 -28 35 -28 36 -13 80 11 32 12 47 4 55 -18 18 -52 13 -80 -13 -30 -28
-39 -23 -62 44 -17 47 -9 95 21 139 17 24 17 24 33 4 9 -11 28 -23 43 -26 21
-6 27 -3 31 15 3 11 4 33 1 48 -5 22 3 35 43 77 51 52 84 68 170 77 29 3 98
25 155 49 57 25 119 48 138 52 19 4 52 16 72 26 21 11 42 19 48 19 6 0 30 13
53 28 23 16 67 41 97 56 30 16 67 39 81 53 15 13 45 29 67 34 21 4 61 23 89
42 27 18 75 39 108 46 33 7 87 28 120 46 33 18 78 38 100 45 72 23 279 108
325 134 25 13 83 32 130 41 73 13 90 20 121 51 29 29 47 37 86 42 37 4 55 12
79 37 63 63 118 91 215 109 50 9 103 23 118 30 14 7 50 16 80 19 29 4 72 16
95 28 36 20 59 22 194 25 103 2 169 8 200 18 26 8 84 20 130 26 45 6 101 18
123 25 23 8 58 15 79 15 68 0 141 19 219 58 42 21 101 47 131 58 68 24 185
131 230 211 17 30 61 92 98 138 184 229 212 271 212 321 0 22 9 47 23 65 12
15 38 49 57 75 19 25 51 66 71 91 20 24 58 87 85 139 27 53 52 98 57 101 4 2
20 -9 36 -26 16 -17 37 -31 48 -31 23 1 53 23 67 52 20 40 122 44 254 9 28 -8
50 -24 72 -51 17 -21 46 -49 66 -60 33 -21 36 -21 68 -6 44 21 43 21 89 -11
38 -26 40 -27 53 -8 10 13 12 33 8 66 -9 67 0 94 36 109 35 15 50 37 50 77 0
15 9 44 19 63 11 19 24 45 30 57 13 29 47 62 72 72 30 10 119 -3 130 -20z
m-603 -154 c3 -3 -26 -5 -64 -4 -46 0 -62 3 -49 9 20 8 104 4 113 -5z m-391
-81 c-3 -3 -12 -4 -19 -1 -8 3 -5 6 6 6 11 1 17 -2 13 -5z m-7782 -500 c89
-40 119 -59 160 -103 27 -29 73 -76 100 -105 28 -28 69 -88 93 -133 25 -48 56
-93 78 -110 28 -22 37 -38 41 -72 5 -38 14 -49 81 -107 41 -35 89 -83 106
-106 17 -24 67 -79 111 -123 45 -44 120 -132 168 -196 85 -114 143 -169 230
-216 22 -12 50 -31 61 -42 12 -10 59 -38 106 -62 50 -25 109 -66 145 -99 33
-31 75 -62 93 -70 39 -15 66 -63 76 -132 7 -46 27 -72 80 -103 15 -8 16 -17 7
-53 -9 -41 -44 -92 -63 -92 -5 0 -19 -7 -32 -15 l-24 -16 35 -52 c19 -29 75
-94 124 -145 49 -51 96 -107 104 -123 11 -20 37 -40 78 -60 43 -22 74 -47 101
-82 31 -39 56 -57 115 -84 42 -19 102 -57 133 -84 32 -28 77 -57 101 -65 27
-9 62 -34 93 -66 27 -28 82 -76 123 -106 140 -106 249 -284 300 -493 41 -166
41 -196 -1 -235 -55 -50 -78 -58 -137 -45 -64 14 -131 14 -131 1 0 -12 -64
-24 -94 -16 -13 3 -37 20 -53 36 -15 17 -38 37 -50 45 -21 14 -25 13 -62 -24
-46 -46 -105 -60 -180 -43 -44 10 -114 4 -140 -12 -6 -4 -54 -12 -105 -16 -52
-5 -100 -11 -107 -12 -7 -2 -17 12 -22 30 -6 19 -21 41 -34 49 -22 14 -30 14
-100 -7 -68 -20 -91 -22 -212 -18 -134 5 -137 6 -218 46 -45 22 -83 38 -85 37
-2 -2 -23 0 -46 6 -29 6 -56 6 -81 -1 -50 -13 -94 2 -146 50 -108 102 -181
126 -233 78 -21 -20 -33 -23 -95 -21 -39 1 -83 7 -99 14 -22 9 -49 9 -118 -1
-49 -7 -104 -10 -122 -6 -19 4 -70 0 -120 -10 -85 -16 -87 -16 -128 5 -39 20
-42 20 -67 4 -16 -11 -56 -20 -100 -24 -53 -4 -80 -11 -96 -26 -12 -11 -41
-27 -65 -35 l-42 -16 -15 29 c-9 16 -26 36 -39 44 -20 13 -28 13 -70 1 -26 -8
-58 -26 -71 -40 -20 -21 -33 -26 -75 -26 -55 0 -79 9 -112 42 -22 22 -60 18
-89 -8 -41 -37 -108 -44 -340 -38 -123 3 -240 5 -259 5 -19 0 -62 -1 -95 -1
-33 -1 -79 -8 -103 -17 -32 -12 -61 -14 -115 -9 -50 4 -101 1 -166 -11 -88
-16 -96 -20 -124 -55 -28 -35 -35 -38 -79 -38 -43 0 -56 -5 -97 -40 -26 -22
-62 -43 -81 -46 -19 -4 -57 -20 -85 -35 -59 -32 -118 -43 -162 -30 -27 8 -40
6 -76 -14 -23 -14 -67 -29 -97 -35 -30 -6 -76 -20 -102 -31 -70 -28 -95 -25
-112 14 -70 159 -80 193 -80 262 0 65 4 77 52 168 28 54 60 111 71 125 10 15
22 38 26 52 4 14 26 45 48 70 22 25 47 63 57 86 10 23 25 44 34 47 8 3 24 23
35 44 15 31 29 42 69 56 27 10 64 29 82 42 18 14 54 31 80 40 25 8 62 31 81
51 19 19 54 44 78 55 24 10 74 42 112 69 59 44 70 58 85 103 9 29 25 63 34 77
40 58 59 110 65 181 4 40 20 118 36 173 16 54 29 115 30 135 0 33 13 63 62
150 39 68 142 195 261 320 103 108 125 137 131 169 3 22 21 61 40 88 19 27 46
69 61 94 15 25 35 54 44 65 10 11 41 61 70 110 29 50 69 114 88 143 19 29 61
106 93 172 31 65 66 123 77 129 10 6 31 36 46 66 16 34 53 83 92 123 37 36 74
77 83 92 18 29 158 163 208 198 49 35 219 102 260 103 21 1 49 5 63 10 59 20
141 5 255 -47z m9199 -800 c17 -11 15 -14 -22 -25 -41 -12 -147 -5 -157 11 -3
4 8 19 25 33 29 25 30 25 82 10 29 -9 61 -22 72 -29z m-13875 -1639 c47 -26
90 -69 110 -110 17 -35 25 -41 68 -50 38 -8 49 -15 51 -33 3 -19 9 -22 47 -22
53 0 193 26 209 39 23 19 102 13 116 -9 3 -5 26 -2 51 7 25 9 53 14 62 10 16
-6 16 -10 -3 -48 -21 -40 -21 -42 -3 -61 29 -33 61 -40 115 -27 41 9 52 9 73
-5 14 -9 25 -23 25 -31 0 -22 -50 -55 -84 -55 -54 0 -60 -10 -41 -65 22 -67
13 -101 -36 -125 -51 -26 -62 -51 -57 -119 4 -43 3 -51 -5 -33 -8 18 -18 22
-52 22 -24 0 -48 -6 -54 -14 -6 -8 -25 -19 -40 -26 -24 -9 -35 -9 -60 4 -17 9
-31 20 -31 25 0 4 -14 6 -30 3 -17 -2 -37 1 -44 8 -12 9 -19 7 -34 -8 -18 -18
-19 -26 -11 -62 8 -36 7 -44 -8 -56 -40 -30 -62 -13 -77 57 -7 31 -42 49 -100
49 -52 0 -81 -24 -96 -81 l-11 -41 -41 6 c-58 9 -64 16 -31 36 24 15 32 30 47
96 10 44 27 101 38 127 11 27 23 74 29 105 5 31 18 68 29 82 11 14 37 50 57
80 20 30 40 57 45 58 4 2 8 14 8 26 0 27 -46 56 -88 56 -33 0 -82 -47 -82 -79
0 -22 -44 -71 -63 -71 -8 0 -19 -6 -25 -13 -6 -7 -28 -14 -49 -15 -24 -2 -44
-10 -55 -22 -21 -26 -62 -146 -55 -164 6 -16 -36 -41 -52 -31 -7 4 -17 2 -24
-3 -7 -6 -32 -15 -57 -22 -41 -11 -100 -53 -100 -71 0 -4 -24 -33 -54 -64 -54
-56 -55 -56 -100 -50 -42 7 -45 6 -60 -23 -9 -17 -16 -39 -16 -50 0 -11 -18
-31 -42 -47 -34 -23 -55 -29 -95 -30 -65 0 -95 25 -95 77 0 42 57 136 102 168
38 27 38 48 -2 106 -28 39 -33 54 -33 104 1 47 5 64 23 83 14 15 26 45 32 83
11 67 21 77 97 99 52 15 54 18 86 83 l32 67 85 37 c76 33 95 37 180 39 52 1
109 5 125 9 39 11 121 3 154 -15z m-19 -484 c12 -24 13 -81 1 -100 -12 -19
-45 -6 -37 15 3 9 6 36 6 60 0 46 12 57 30 25z m-85 -210 l-7 -36 -14 25 c-19
35 -17 77 4 89 14 8 18 5 20 -16 2 -14 1 -42 -3 -62z m12060 -388 c-6 -16 -35
-5 -35 13 0 8 6 23 12 34 12 19 13 19 20 -7 5 -16 6 -34 3 -40z m-4030 -284
c94 -37 106 -46 130 -102 10 -23 27 -62 39 -87 24 -52 28 -171 10 -279 -9 -53
-8 -75 7 -140 10 -42 18 -98 19 -126 0 -62 15 -119 36 -136 8 -7 31 -15 51
-18 33 -6 38 -11 57 -63 12 -31 25 -60 29 -64 4 -4 7 -28 7 -53 0 -25 5 -75
11 -111 9 -55 16 -71 53 -110 31 -33 49 -64 61 -105 9 -33 25 -76 36 -97 10
-20 19 -48 19 -62 0 -14 9 -50 21 -81 17 -46 19 -61 9 -90 -8 -24 -8 -40 -1
-54 31 -56 31 -69 5 -101 -20 -24 -34 -30 -64 -30 -20 0 -57 -7 -80 -15 -23
-8 -64 -15 -89 -15 -41 0 -50 -4 -69 -30 -20 -26 -23 -46 -28 -161 -3 -73 -9
-140 -14 -149 -13 -24 -83 -41 -123 -29 -57 16 -125 11 -167 -13 -38 -22 -39
-22 -76 -4 -26 12 -68 19 -129 21 -49 2 -110 11 -135 20 -25 9 -58 14 -75 11
-42 -8 -155 10 -172 27 -8 8 -19 46 -24 86 -10 71 -10 71 21 109 19 22 41 70
57 121 14 47 47 122 73 167 30 54 53 109 65 161 10 43 24 94 32 113 7 19 18
68 24 109 6 41 26 124 45 185 49 155 94 328 94 361 0 15 -20 70 -45 122 -40
84 -45 101 -45 165 0 73 56 321 84 377 8 14 19 46 26 71 17 64 35 89 83 110
23 10 44 19 47 19 3 1 41 -13 85 -30z m-1551 -3340 c60 -56 76 -77 76 -100 0
-26 32 -69 52 -69 4 0 30 -30 58 -67 60 -79 60 -79 3 -209 -30 -69 -43 -89
-65 -96 -23 -8 -27 -16 -30 -56 -3 -45 -5 -48 -51 -70 -27 -13 -87 -31 -135
-41 -77 -17 -90 -17 -126 -4 -23 8 -78 16 -124 17 -81 2 -83 2 -125 43 -23 22
-50 43 -59 46 -10 4 -26 20 -37 37 -18 30 -80 80 -98 80 -10 0 -33 -58 -33
-82 0 -9 -13 -29 -28 -44 -16 -16 -41 -59 -57 -97 -32 -76 -35 -79 -90 -95
-45 -12 -81 -14 -207 -13 -83 1 -89 3 -123 32 -34 30 -38 31 -74 20 -67 -20
-104 -14 -144 22 -79 70 -113 94 -200 137 -80 39 -92 49 -103 80 l-12 35 -10
-26 c-14 -35 -111 -128 -141 -136 -14 -3 -41 -2 -61 4 -36 9 -37 9 -74 -42
l-37 -51 -86 42 -86 43 -29 -25 c-16 -13 -33 -24 -36 -25 -4 -1 -36 -3 -72 -5
-36 -2 -76 -4 -90 -6 -20 -3 -25 2 -30 27 -5 27 -9 30 -45 33 -53 4 -75 26
-75 72 0 32 -4 38 -35 53 -50 24 -67 55 -63 118 l3 53 44 13 c66 19 71 26 71
108 0 41 3 80 6 89 3 8 28 22 55 31 41 14 58 15 98 5 34 -8 61 -8 87 -2 22 6
111 13 199 17 88 3 179 11 201 17 38 9 46 7 85 -18 24 -16 56 -34 70 -40 15
-7 35 -24 45 -40 11 -15 33 -42 50 -60 l31 -33 54 13 c91 21 102 31 95 81 -6
38 -5 43 16 49 13 3 38 6 55 6 22 0 50 12 82 35 27 20 89 49 138 65 48 17 97
34 108 39 31 15 112 20 155 10 22 -5 64 -25 94 -44 46 -29 57 -42 70 -83 9
-27 32 -63 50 -81 20 -19 37 -48 41 -67 5 -27 18 -43 55 -70 27 -19 53 -34 57
-34 4 1 14 22 21 45 7 25 25 54 42 69 17 14 38 42 48 63 27 60 123 183 156
200 29 15 181 51 222 52 14 1 50 -26 98 -70z m760 -18 l25 -48 -34 -33 c-55
-54 -74 -158 -35 -192 15 -12 20 -29 20 -62 0 -48 -9 -57 -31 -30 -7 9 -37 27
-66 40 -52 23 -53 23 -53 67 0 25 -7 61 -16 82 -24 58 -11 104 44 160 79 81
112 84 146 16z m73 -207 c-3 -3 -12 -4 -19 -1 -8 3 -5 6 6 6 11 1 17 -2 13 -5z
m-323 -80 c11 -4 16 -19 16 -50 0 -34 -5 -46 -21 -55 -27 -14 -39 1 -39 48 0
56 10 70 44 57z m-3381 -154 c-7 -28 -13 -25 -13 6 0 14 4 23 9 20 5 -3 7 -15
4 -26z m3703 -581 c11 -18 -18 -29 -56 -23 -52 8 -62 13 -55 24 8 14 102 13
111 -1z m-9784 -3111 c50 -11 51 -12 23 -19 -79 -18 -164 -3 -124 22 19 12 38
11 101 -3z m-1047 -1018 c9 -17 27 -36 40 -42 34 -16 21 -28 -30 -28 -52 0
-75 8 -75 25 0 7 -13 25 -30 38 -16 14 -30 28 -30 31 0 3 25 6 55 6 51 0 56
-2 70 -30z m245 -652 c22 -92 43 -106 122 -85 25 7 28 4 36 -25 12 -46 -1 -65
-51 -76 -37 -8 -46 -6 -77 17 -53 38 -73 69 -91 133 -15 54 -15 59 0 68 34 20
50 11 61 -32z m645 -255 l-7 -28 -9 24 c-12 31 -3 59 13 43 6 -6 8 -22 3 -39z
m-641 -52 c3 -5 0 -11 -8 -14 -19 -8 -57 3 -50 14 7 12 51 12 58 0z m633 -343
c-3 -8 -6 -5 -6 6 -1 11 2 17 5 13 3 -3 4 -12 1 -19z m-647 -237 c0 -6 -4 -13
-10 -16 -5 -3 -10 1 -10 9 0 9 5 16 10 16 6 0 10 -4 10 -9z m1057 -13 c-3 -8
-6 -5 -6 6 -1 11 2 17 5 13 3 -3 4 -12 1 -19z m-457 -328 c0 -6 10 -10 23 -10
53 0 86 -78 45 -104 -26 -16 -50 3 -68 52 -8 23 -20 42 -27 42 -16 0 -25 33
-17 65 l6 26 19 -31 c11 -17 19 -35 19 -40z m720 20 c12 -8 11 -10 -7 -10 -13
0 -23 5 -23 10 0 13 11 13 30 0z"/>
<path d="M18757 29733 c-10 -10 -8 -61 2 -68 14 -8 33 32 26 55 -7 21 -17 25
-28 13z"/>
<path d="M18680 29280 c0 -36 2 -37 35 -6 21 20 23 25 9 30 -33 13 -44 6 -44
-24z"/>
<path d="M13577 21953 c-12 -11 -8 -40 7 -52 21 -18 41 11 26 38 -11 22 -22
26 -33 14z"/>
<path d="M15647 21863 c-12 -12 -7 -33 8 -33 17 0 19 9 7 28 -5 7 -11 9 -15 5z"/>
<path d="M18023 21674 c-8 -22 5 -30 23 -12 14 14 14 16 -1 21 -9 4 -18 1 -22
-9z"/>
<path d="M15724 21616 c-3 -14 -3 -42 0 -62 6 -29 14 -38 49 -54 23 -10 46
-14 51 -10 9 9 -2 127 -13 134 -3 2 -23 7 -43 11 -34 7 -38 5 -44 -19z"/>
<path d="M18980 21535 c-20 -21 -22 -30 -14 -51 5 -15 19 -33 31 -41 21 -14
25 -13 53 15 35 36 38 54 10 82 -27 27 -52 25 -80 -5z"/>
<path d="M15020 21462 c-19 -9 -35 -23 -35 -31 0 -15 55 -39 92 -40 16 -1 24
6 29 26 14 54 -26 75 -86 45z"/>
<path d="M18903 21378 c-30 -14 -33 -28 -21 -77 9 -37 14 -42 37 -39 29 3 38
34 26 95 -6 36 -9 37 -42 21z"/>
<path d="M14090 21361 c0 -12 6 -21 15 -21 8 0 15 4 15 9 0 5 -7 14 -15 21
-13 10 -15 9 -15 -9z"/>
<path d="M15150 21344 c0 -12 6 -15 23 -10 12 3 29 6 37 7 8 0 4 5 -10 9 -39
13 -50 11 -50 -6z"/>
<path d="M19382 20798 c-18 -18 -15 -33 14 -67 20 -25 29 -29 44 -21 21 11 42
64 34 85 -7 18 -75 20 -92 3z"/>
<path d="M18998 20738 c-5 -45 3 -65 21 -54 17 11 14 96 -3 96 -9 0 -16 -15
-18 -42z"/>
<path d="M18832 20718 c-16 -16 -15 -29 4 -56 15 -22 17 -22 35 -6 24 21 24
36 1 57 -22 20 -25 20 -40 5z"/>
<path d="M19215 20640 c-49 -8 -85 -26 -85 -44 0 -7 -9 -21 -20 -31 -45 -41
-12 -75 75 -75 34 0 47 5 59 22 l16 22 16 -22 c13 -18 25 -22 74 -22 78 0 89
16 53 80 -15 25 -31 50 -37 56 -14 15 -99 23 -151 14z"/>
<path d="M10601 20233 c-28 -23 -23 -53 14 -77 23 -15 27 -15 75 11 27 16 50
31 50 35 0 13 -47 39 -82 44 -24 4 -40 1 -57 -13z"/>
<path d="M10870 20205 c-11 -13 -9 -15 15 -15 16 0 25 5 23 12 -7 19 -24 20
-38 3z"/>
<path d="M19005 19150 c-9 -28 6 -42 40 -38 l27 3 -30 28 c-30 29 -30 29 -37
7z"/>
<path d="M22371 16542 c-13 -25 -14 -62 -1 -82 7 -12 13 -11 34 10 32 29 32
41 2 69 -24 23 -24 23 -35 3z"/>
<path d="M9557 13673 c-12 -12 -7 -50 8 -63 32 -27 82 23 55 55 -13 15 -51 20
-63 8z"/>
<path d="M8406 13351 c-9 -10 -35 -24 -59 -31 l-42 -14 55 -7 c70 -10 80 -6
80 30 0 38 -13 46 -34 22z"/>
</g>
</svg>
