<?xml version="1.0" standalone="no"?>
<!DOCTYPE svg PUBLIC "-//W3C//DTD SVG 20010904//EN"
 "http://www.w3.org/TR/2001/REC-SVG-20010904/DTD/svg10.dtd">
<svg version="1.0" xmlns="http://www.w3.org/2000/svg"
 width="3375.000000pt" height="3375.000000pt" viewBox="0 0 3375.000000 3375.000000"
 preserveAspectRatio="xMidYMid meet">

<g transform="translate(0.000000,3375.000000) scale(0.100000,-0.100000)"
fill="#000000" stroke="none">
<path d="M6100 16876 l0 -14126 10780 0 10780 0 0 3179 c0 1748 -3 3193 -6
3210 -4 17 -13 31 -21 31 -19 0 -79 34 -133 75 -25 19 -72 53 -104 76 -99 69
-309 239 -448 361 -24 21 -67 55 -96 75 -29 21 -105 79 -170 128 -64 50 -139
105 -167 122 -27 18 -63 42 -80 54 -225 159 -382 267 -691 474 -82 55 -186
127 -231 160 -156 114 -295 209 -422 285 -23 14 -70 45 -106 70 -36 25 -100
69 -143 98 -42 28 -99 68 -127 87 -129 90 -279 192 -312 212 -20 12 -68 48
-107 80 -39 33 -100 79 -136 103 -79 53 -236 170 -268 200 -13 12 -36 26 -53
30 -27 8 -31 6 -56 -33 -14 -22 -34 -58 -43 -80 -10 -21 -34 -53 -53 -71 -20
-18 -54 -59 -75 -90 -21 -31 -74 -96 -119 -144 -90 -96 -125 -141 -148 -188
-8 -17 -39 -57 -69 -87 -30 -31 -63 -70 -72 -87 -10 -16 -22 -30 -27 -30 -4 0
-15 -16 -23 -35 -9 -23 -25 -40 -47 -49 -44 -18 -156 -122 -163 -153 -4 -14
-20 -31 -42 -41 -20 -9 -50 -37 -67 -62 -37 -52 -61 -62 -74 -28 -5 13 -22 31
-38 40 -29 17 -30 17 -40 -5 -17 -39 -2 -70 40 -80 24 -6 37 -15 37 -25 0 -37
-14 -64 -40 -77 -25 -13 -29 -12 -50 10 -30 32 -68 40 -91 19 -11 -9 -19 -23
-19 -30 0 -27 -43 -102 -95 -169 -41 -51 -70 -77 -108 -95 -30 -14 -53 -33
-55 -43 -4 -20 -19 -39 -69 -88 -24 -24 -31 -38 -27 -54 3 -13 1 -26 -5 -29
-6 -4 -11 -12 -11 -17 0 -6 5 -7 10 -4 6 3 10 -1 10 -10 0 -14 -2 -14 -24 0
-14 9 -32 27 -41 41 -8 13 -22 24 -29 24 -16 0 -39 -60 -40 -105 -1 -34 -32
-55 -81 -55 -58 0 -70 41 -35 110 11 22 20 45 20 53 0 23 -54 86 -73 87 -16 0
-18 -5 -12 -39 6 -38 -14 -101 -33 -101 -13 0 -32 -39 -37 -77 -3 -21 -12 -43
-21 -50 -19 -14 -109 -27 -123 -19 -6 4 -31 -9 -56 -29 -26 -19 -52 -35 -60
-35 -28 0 -34 79 -11 135 l15 34 48 -14 c46 -14 49 -14 70 8 21 21 22 26 11
89 -12 73 -5 118 17 118 18 0 18 0 0 37 -38 77 -9 188 33 125 8 -12 19 -22 25
-22 5 0 16 -8 23 -17 8 -11 13 -13 14 -5 0 24 30 12 30 -13 0 -26 24 -35 32
-13 7 19 -2 38 -18 38 -8 0 -14 7 -14 15 0 8 -9 24 -20 35 -27 27 -25 35 14
59 40 25 68 26 100 6 61 -40 115 24 96 111 -15 67 -5 106 33 125 18 8 41 31
52 49 29 49 134 150 156 150 24 0 61 41 95 104 15 28 42 68 60 88 18 20 42 55
53 77 11 21 37 49 58 62 21 13 45 32 54 43 13 15 32 20 90 23 40 3 79 8 85 14
6 5 19 27 29 49 15 33 16 45 7 66 -22 46 29 104 126 143 45 19 55 60 31 125
-17 46 -17 51 -2 68 8 9 24 20 34 23 28 9 23 47 -9 78 -36 34 -47 34 -69 -3
-9 -17 -24 -30 -32 -30 -7 0 -34 -16 -58 -36 -50 -41 -101 -48 -133 -19 -41
37 -138 -2 -170 -68 -14 -30 -14 -35 4 -68 20 -36 20 -36 0 -70 -19 -33 -22
-34 -90 -37 -55 -2 -79 1 -117 19 -61 29 -70 20 -71 -65 -1 -75 -17 -102 -90
-154 l-46 -34 -47 16 c-84 29 -173 17 -173 -23 0 -15 -17 -14 -81 5 -63 19
-168 13 -205 -11 -13 -8 -47 -20 -76 -26 -92 -20 -158 -61 -158 -99 0 -16 56
-21 168 -14 87 5 118 11 128 23 7 9 21 27 32 40 17 22 19 22 34 7 9 -9 19 -16
22 -16 4 0 29 -11 58 -25 28 -14 57 -25 64 -25 7 0 18 18 24 39 12 45 31 55
84 46 37 -7 66 -40 66 -73 0 -11 -18 -37 -40 -58 -30 -30 -40 -47 -40 -71 0
-25 -8 -38 -35 -58 -19 -15 -37 -35 -40 -46 -3 -10 -24 -28 -46 -41 -42 -23
-44 -29 -54 -122 -3 -32 -10 -66 -15 -77 -6 -10 -11 -47 -11 -82 l-1 -65 -80
-31 c-43 -17 -86 -31 -94 -31 -10 0 -14 -13 -14 -50 0 -33 -8 -66 -24 -97 -15
-30 -29 -80 -35 -132 -6 -46 -16 -90 -22 -97 -18 -22 -83 -18 -105 7 -14 15
-26 19 -47 15 -16 -3 -38 -1 -50 5 -36 20 -48 -11 -41 -110 5 -68 13 -98 35
-140 16 -30 25 -59 21 -63 -5 -5 -25 -11 -45 -15 -48 -7 -67 9 -67 56 0 60
-55 102 -113 87 -31 -7 -99 -62 -115 -91 -10 -21 -9 -30 13 -70 20 -38 22 -50
13 -65 -17 -26 -57 -47 -66 -33 -4 5 -23 18 -42 28 -19 10 -40 25 -46 32 -19
27 -39 -14 -44 -96 -6 -85 -21 -99 -51 -45 -17 31 -17 32 7 53 19 17 23 27 18
49 -4 15 -12 30 -18 34 -17 11 -67 -4 -91 -28 -29 -29 -49 -120 -42 -185 6
-51 2 -58 -53 -88 -17 -9 -38 -32 -49 -51 -14 -28 -25 -36 -52 -38 -18 -2 -51
-17 -74 -33 -35 -25 -48 -29 -81 -24 -21 3 -45 2 -52 -3 -15 -10 -31 -71 -32
-118 0 -16 -6 -39 -14 -49 -21 -29 -46 -3 -46 49 0 50 -7 62 -43 75 -31 12
-106 15 -132 5 -15 -6 -14 -8 1 -25 9 -10 17 -36 18 -56 1 -37 0 -38 -34 -35
-19 1 -41 9 -50 17 -21 19 -69 19 -94 0 -27 -21 -79 -19 -107 4 -13 10 -37 22
-54 28 l-30 10 -3 100 -3 100 -38 17 c-35 16 -39 16 -74 0 -31 -15 -37 -23
-37 -50 0 -38 -14 -51 -35 -34 -10 8 -15 32 -15 70 0 65 -17 83 -49 51 -22
-22 -31 -18 -31 16 0 48 52 113 90 113 14 0 35 7 46 15 29 20 34 11 34 -55 0
-79 30 -106 61 -52 12 22 32 32 95 52 43 13 85 28 92 33 22 17 13 38 -23 52
-44 19 -55 41 -55 110 0 50 2 56 25 65 14 5 28 17 32 26 6 15 7 14 14 -4 5
-13 23 -25 49 -32 23 -6 43 -10 44 -8 20 31 78 219 78 251 -1 97 10 169 29
188 23 23 39 24 39 3 0 -11 -6 -14 -20 -9 -11 3 -20 2 -20 -4 0 -5 -2 -16 -5
-23 -3 -8 16 -36 45 -66 l50 -51 31 64 c17 35 37 69 45 76 8 6 14 17 14 24 0
8 9 10 24 8 53 -10 106 62 106 145 0 41 -23 82 -45 82 -8 0 -30 8 -50 17 -34
16 -35 19 -35 72 -1 44 -9 71 -38 127 -35 68 -54 87 -169 176 -15 12 -114 48
-130 48 -7 0 -22 -9 -33 -20 -16 -16 -24 -18 -44 -9 -25 12 -36 48 -36 122 0
80 -77 110 -171 68 -31 -14 -56 -18 -86 -14 -53 7 -128 -11 -174 -43 -26 -17
-62 -29 -124 -38 -70 -10 -90 -17 -104 -35 l-18 -23 -23 38 c-14 22 -30 51
-36 65 -16 36 -28 41 -58 28 -16 -8 -35 -32 -50 -65 -50 -109 -96 -121 -96
-23 0 74 -15 106 -57 121 -18 7 -40 23 -49 36 -15 23 -16 23 -29 5 -8 -10 -15
-38 -15 -63 0 -72 -16 -113 -51 -133 -26 -14 -30 -21 -24 -40 27 -81 17 -114
-57 -195 -64 -71 -104 -78 -95 -18 7 54 48 190 63 214 22 34 11 72 -21 72 -18
0 -32 -11 -49 -38 -23 -37 -58 -75 -126 -136 l-32 -29 7 -77 c7 -76 6 -78 -21
-104 -42 -38 -88 -38 -119 0 -16 18 -30 24 -62 24 -56 0 -61 14 -13 33 33 12
40 21 50 57 6 23 26 70 43 103 28 53 31 69 30 131 -2 39 -4 126 -5 192 -2 84
-7 126 -17 138 -20 24 -39 4 -47 -52 -8 -54 -17 -75 -53 -118 -14 -17 -33 -45
-42 -61 -22 -41 -64 -49 -93 -18 -33 34 -68 39 -86 11 -68 -108 -111 -146
-163 -146 -37 0 -81 59 -108 144 -29 94 -40 106 -78 83 -35 -20 -41 -15 -41
38 0 51 -15 71 -59 79 -18 3 -49 19 -68 36 -41 37 -56 37 -82 4 -23 -29 -26
-61 -11 -114 11 -38 0 -59 -20 -35 -7 8 -18 15 -25 15 -8 0 -23 16 -35 35 -36
58 -60 38 -60 -47 0 -39 -6 -68 -17 -85 l-17 -26 33 5 c26 4 39 -1 59 -21 29
-29 29 -47 1 -103 -16 -30 -25 -38 -48 -38 -23 0 -31 -7 -47 -42 -41 -90 -87
-120 -118 -76 -12 16 -16 18 -16 7 0 -9 -11 -26 -25 -39 -16 -15 -25 -34 -25
-55 0 -17 -4 -35 -9 -40 -31 -32 -114 -196 -118 -233 -5 -35 -16 -53 -69 -107
-74 -76 -93 -121 -77 -190 9 -41 8 -48 -20 -94 -18 -29 -44 -55 -64 -65 -31
-15 -40 -15 -104 0 -54 12 -77 13 -101 5 -17 -6 -60 -11 -95 -11 -59 0 -68 3
-92 29 -33 35 -64 46 -92 30 -12 -6 -51 -12 -87 -13 -59 -2 -68 -5 -86 -29
-11 -15 -25 -42 -31 -60 -9 -29 -16 -33 -65 -43 -30 -6 -82 -26 -115 -44 -57
-31 -64 -32 -140 -26 -52 4 -114 0 -179 -10 -114 -18 -159 -14 -193 17 -16 16
-42 25 -84 30 -51 6 -67 13 -98 42 -24 23 -53 39 -87 47 -30 6 -62 22 -75 36
-12 13 -33 24 -45 24 -12 0 -42 15 -66 33 -71 53 -90 63 -148 76 -30 7 -77 19
-105 26 -27 7 -75 19 -105 26 -81 17 -144 53 -168 93 -23 40 -56 63 -92 68
-37 4 -185 -12 -201 -22 -10 -7 -24 0 -46 22 -28 27 -41 32 -93 35 -42 2 -70
10 -89 24 -27 20 -30 20 -59 5 -17 -9 -40 -16 -52 -16 -12 0 -28 -13 -39 -32
-21 -36 -24 -39 -61 -67 -31 -24 -19 -40 37 -48 51 -7 94 15 123 62 17 27 28
35 50 35 25 0 31 -5 39 -37 10 -35 8 -42 -20 -81 -49 -68 -24 -106 68 -104 52
1 55 0 66 -28 14 -37 33 -33 30 5 -1 15 5 41 13 56 22 44 62 39 128 -15 29
-24 86 -56 125 -71 75 -28 91 -46 91 -100 0 -17 -6 -25 -22 -27 -28 -4 -34
-27 -14 -53 14 -19 15 -18 31 16 16 33 20 35 48 30 24 -5 33 -14 39 -37 4 -17
17 -39 28 -49 11 -10 20 -29 20 -41 0 -17 7 -25 25 -30 29 -7 85 -67 85 -92
-1 -39 -15 -45 -125 -49 -101 -4 -109 -3 -170 26 -90 42 -178 63 -258 62 -62
-1 -74 2 -125 34 -32 19 -87 44 -122 54 -103 31 -223 77 -286 110 -31 17 -67
31 -79 31 -13 0 -54 16 -91 36 -38 20 -85 43 -104 52 -19 9 -76 37 -126 63
-114 58 -219 85 -274 71 -21 -5 -52 -7 -67 -3 -49 11 -131 60 -138 82 -4 11
-20 25 -36 31 -20 7 -35 23 -48 54 -11 24 -24 44 -28 44 -18 -1 -33 -18 -39
-46 -5 -28 -2 -32 26 -44 31 -13 56 -52 44 -71 -8 -14 -56 -10 -84 6 -14 8
-50 14 -80 15 -73 0 -200 58 -200 90 0 18 -4 20 -35 14 -27 -5 -45 0 -81 20
-25 14 -50 23 -55 20 -5 -3 -9 -20 -9 -39 0 -26 5 -35 21 -40 30 -10 225 -206
234 -236 4 -13 19 -38 32 -56 16 -21 24 -42 22 -62 -4 -32 23 -71 50 -71 9 -1
1 -7 -18 -16 -19 -8 -41 -23 -48 -34 -8 -11 -42 -40 -77 -65 -45 -32 -70 -58
-84 -89 -21 -44 -54 -64 -70 -42 -5 6 -14 30 -21 54 -10 37 -15 42 -41 42 -24
0 -34 -9 -64 -59 -20 -32 -36 -64 -36 -70 0 -27 -46 -102 -65 -107 -12 -3 -59
4 -104 16 -88 22 -133 18 -173 -17 -17 -15 -110 -20 -147 -8 -11 3 -37 -4 -60
-16 -32 -16 -51 -20 -82 -15 -34 5 -43 3 -62 -18 -84 -93 -74 -86 -189 -130
-92 -35 -338 -71 -384 -56 -48 16 -87 52 -109 100 l-18 40 -24 -21 c-20 -20
-26 -21 -48 -9 -20 11 -25 21 -25 54 0 23 4 47 9 55 11 18 -6 60 -33 83 -17
14 -89 29 -143 31 -15 0 -32 33 -33 61 0 72 -40 120 -84 103 -17 -7 -36 -67
-36 -113 0 -36 -24 -69 -56 -78 -18 -6 -23 0 -33 36 -7 24 -15 72 -19 108 -7
64 -7 65 -39 68 -25 3 -35 -2 -49 -23 -9 -14 -29 -32 -44 -40 -25 -13 -29 -12
-43 3 -8 9 -19 31 -22 47 -4 17 -18 46 -32 66 -26 40 -26 37 -1 201 8 55 8
105 1 180 -8 88 -14 110 -40 150 -17 26 -36 74 -42 106 -11 58 -35 91 -73 105
-17 6 -39 42 -52 83 -5 16 0 23 19 32 52 24 18 85 -73 128 -31 15 -64 34 -72
41 -8 7 -27 23 -42 34 -18 13 -33 39 -45 77 -9 31 -23 64 -30 73 -18 21 -16
60 7 174 11 53 20 110 20 127 0 16 8 41 18 56 10 15 22 34 27 43 60 100 92
124 124 95 21 -19 71 -21 92 -4 8 7 20 25 27 40 10 24 8 29 -21 51 l-32 25 27
28 c32 32 56 27 64 -15 12 -56 103 -54 141 3 16 25 31 35 60 39 68 12 103 8
153 -18 76 -38 85 -36 147 38 29 34 57 34 100 1 24 -18 33 -33 33 -54 0 -37
13 -45 35 -20 10 11 23 20 29 20 14 -1 96 -128 96 -149 0 -11 5 -9 16 7 13 19
23 23 62 20 42 -3 49 -7 62 -35 11 -24 22 -33 41 -33 18 0 47 -21 100 -72 47
-45 91 -77 119 -88 52 -19 193 -155 250 -239 19 -29 53 -65 75 -81 22 -15 61
-48 86 -72 25 -24 65 -58 90 -74 24 -16 53 -44 64 -61 14 -23 30 -33 57 -38
20 -4 42 -13 49 -21 15 -19 25 -18 33 3 9 24 -21 77 -56 98 -55 32 -70 56 -64
102 8 59 46 133 72 139 32 8 53 -1 114 -46 38 -28 64 -40 87 -40 19 0 49 -6
68 -14 18 -8 58 -14 87 -14 45 0 67 -8 152 -53 54 -30 112 -62 130 -71 17 -9
50 -20 73 -24 26 -4 65 -22 97 -45 30 -22 58 -39 61 -39 14 0 280 -133 304
-151 29 -23 62 -24 102 -4 34 18 69 6 69 -25 0 -28 48 -80 75 -80 12 0 35 6
51 14 27 15 55 9 69 -14 3 -6 17 -10 29 -10 13 0 34 -8 47 -18 13 -10 38 -24
55 -31 18 -7 40 -27 50 -47 11 -21 24 -32 32 -29 8 3 15 5 17 5 3 0 9 19 16
42 15 58 40 89 62 76 9 -5 17 -17 17 -28 0 -10 11 -27 24 -38 13 -10 26 -32
28 -48 3 -32 21 -39 74 -30 30 6 33 9 28 34 -4 19 1 35 14 52 16 19 18 29 9
47 -12 28 -32 35 -111 38 -123 6 -141 13 -208 83 -18 18 -42 32 -55 32 -13 0
-40 9 -60 20 -21 11 -45 20 -53 20 -9 0 -34 18 -55 41 -49 50 -88 71 -124 68
-14 -2 -37 4 -51 14 -13 9 -37 17 -52 17 -18 0 -33 9 -48 29 -11 17 -46 42
-77 57 -56 26 -58 26 -103 10 -34 -12 -54 -14 -72 -7 -27 10 -74 61 -91 99
-15 32 -64 56 -110 53 -44 -3 -89 22 -131 74 -33 39 -54 43 -97 18 -29 -17
-29 -17 -67 20 -35 36 -37 40 -37 105 0 83 -13 109 -44 93 -11 -7 -21 -18 -21
-27 0 -21 -46 -68 -59 -60 -6 4 -11 21 -11 37 0 21 7 32 24 40 27 13 35 40 43
155 4 68 3 73 -23 99 -16 16 -30 23 -32 17 -12 -36 -39 -53 -94 -59 l-57 -6
-9 34 c-12 45 0 84 37 118 49 46 54 116 8 123 -12 2 -42 -7 -67 -19 -97 -47
-135 -39 -135 28 0 50 -19 62 -37 24 -6 -15 -40 -56 -74 -91 l-62 -65 -16 41
c-9 22 -16 49 -16 59 0 10 -8 25 -19 35 -15 14 -18 27 -14 84 6 83 -8 109 -50
93 -25 -10 -28 -7 -61 42 -48 74 -52 103 -21 160 14 27 25 58 25 71 0 38 -31
116 -50 126 -15 8 -20 3 -33 -29 -15 -35 -108 -131 -128 -131 -22 0 -30 53
-15 101 l14 49 -27 1 c-14 1 -40 0 -56 -1 -20 -1 -38 6 -49 19 -31 34 -61 27
-87 -19 -31 -55 -64 -63 -99 -23 -25 28 -28 29 -51 14 -13 -9 -29 -23 -36 -31
-6 -8 -17 -23 -25 -32 -7 -9 -25 -20 -40 -23 -25 -6 -28 -4 -42 45 -10 34 -12
59 -6 74 12 33 0 70 -31 95 -21 16 -27 32 -31 72 -6 56 -13 64 -67 73 -55 8
-93 -6 -118 -45 -61 -95 -84 -106 -160 -74 -49 21 -59 19 -110 -15 l-45 -31
-49 22 c-44 20 -49 26 -49 54 0 29 2 31 30 27 24 -3 31 0 39 19 10 30 -2 51
-44 73 -43 23 -76 9 -99 -42 -17 -36 -21 -40 -42 -32 -34 13 -77 -7 -146 -69
l-28 -25 -22 21 c-19 18 -32 20 -75 16 -63 -7 -75 1 -109 73 -31 65 -40 72
-100 80 -27 4 -53 13 -57 21 -11 17 -36 17 -57 -2 -16 -15 -19 -13 -39 20 -30
52 -28 91 7 109 15 8 36 24 46 35 15 16 27 20 47 16 28 -6 39 2 81 57 7 9 34
25 60 35 25 10 47 23 48 28 3 12 -114 53 -153 54 -21 1 -32 -6 -45 -29 -21
-36 -40 -44 -92 -35 -55 9 -70 34 -70 118 0 59 3 71 24 90 13 12 30 38 39 58
13 31 13 39 -1 64 -8 16 -21 35 -28 43 -7 7 -13 29 -12 48 2 51 -26 74 -98 83
-69 8 -84 15 -84 41 0 37 13 49 81 75 54 21 70 32 75 51 12 48 -3 71 -78 116
l-73 43 -6 53 c-4 28 -10 60 -14 69 -3 10 -10 51 -15 92 -5 43 -14 77 -22 82
-23 15 -62 9 -107 -16 -61 -35 -88 -33 -108 10 -14 29 -15 41 -5 72 11 36 10
41 -24 88 -19 28 -51 69 -70 93 -24 31 -34 54 -34 78 0 43 20 52 66 30 43 -20
114 -22 114 -3 0 19 -28 42 -72 60 -30 13 -38 22 -44 51 -4 25 -16 43 -38 58
-47 32 -56 48 -56 97 0 61 -7 69 -65 80 -27 5 -55 17 -62 26 -16 22 -27 97
-19 129 8 34 -21 112 -47 123 l-22 10 25 13 c35 18 64 49 87 92 17 32 19 45
11 95 -5 32 -20 77 -34 100 -13 24 -29 69 -35 100 -6 32 -28 96 -50 142 -35
74 -41 83 -61 78 -20 -5 -26 1 -46 51 -54 131 -52 214 7 307 25 40 30 56 25
85 -4 19 -13 42 -20 51 -9 10 -13 37 -12 75 1 40 -5 70 -16 93 -13 25 -17 49
-14 88 3 39 1 57 -10 66 -8 6 -21 27 -29 45 -22 53 8 86 75 82 50 -4 60 0 71
28 14 35 0 96 -28 126 -12 12 -46 30 -76 40 -59 18 -75 37 -75 86 0 17 -5 52
-11 77 -11 41 -9 51 19 121 31 78 47 162 32 162 -5 0 -21 11 -35 24 -19 18
-32 47 -46 108 -11 46 -26 106 -34 133 -32 109 -48 233 -50 380 -1 83 -6 165
-10 184 -5 20 -2 70 5 120 8 47 14 136 14 196 1 61 5 131 10 158 8 44 6 53
-31 125 -40 76 -41 79 -48 222 -4 80 -9 183 -11 230 -1 47 -7 112 -13 145 -6
33 -11 96 -10 140 1 87 -14 167 -37 203 -13 19 -13 29 0 80 28 112 30 172 6
232 -17 44 -22 78 -23 167 l-2 112 38 31 c20 18 37 37 37 44 0 10 9 11 40 3
35 -10 40 -15 40 -40 0 -22 -4 -28 -15 -23 -19 7 -45 -30 -45 -64 0 -15 7 -47
15 -72 14 -40 19 -45 41 -40 14 2 30 15 36 27 22 48 108 29 108 -24 0 -23 37
-110 56 -132 8 -9 21 -51 29 -93 14 -73 44 -136 65 -136 30 0 24 163 -8 227
-12 23 -26 63 -32 89 -6 27 -20 68 -30 91 -16 37 -23 43 -48 43 -35 0 -46 11
-63 68 -10 34 -10 55 1 112 17 91 29 108 66 95 33 -12 41 -36 43 -130 1 -33 6
-67 11 -75 8 -13 12 -12 29 5 17 17 18 26 11 65 -5 25 -9 66 -10 91 0 32 -6
51 -19 63 -27 25 -41 92 -31 146 8 40 5 52 -26 117 -59 125 -39 154 76 114 33
-12 66 -21 72 -21 7 0 37 -25 68 -55 97 -98 181 -165 207 -165 26 0 73 -41 73
-64 0 -21 60 -68 81 -63 10 3 23 -1 30 -9 9 -11 7 -14 -13 -14 -14 0 -37 -14
-57 -36 -22 -23 -39 -33 -50 -29 -81 32 -232 48 -239 27 -2 -8 8 -12 27 -12
36 0 56 -19 92 -87 22 -40 34 -51 66 -61 40 -12 83 -60 137 -153 14 -25 35
-54 46 -64 11 -10 20 -24 20 -31 0 -7 11 -26 25 -42 14 -17 25 -35 25 -41 0
-6 4 -11 9 -11 5 0 23 -17 40 -38 23 -30 33 -57 43 -118 l14 -79 22 45 c21 43
21 47 6 105 -18 68 -60 200 -74 230 -46 100 -37 207 19 219 21 4 31 -2 53 -27
27 -33 38 -72 38 -144 0 -31 5 -46 20 -56 11 -8 27 -36 35 -64 8 -27 24 -58
34 -68 11 -9 28 -40 37 -68 18 -56 79 -128 122 -146 16 -7 37 -30 50 -55 13
-24 35 -49 50 -57 15 -7 42 -24 60 -37 31 -22 33 -27 27 -62 -10 -58 17 -80
96 -80 33 0 69 -4 79 -10 20 -11 40 -60 40 -99 0 -40 26 -69 73 -82 25 -6 52
-23 67 -41 l26 -31 48 22 c27 11 50 21 52 21 2 0 8 -17 14 -39 5 -21 34 -68
63 -103 28 -36 57 -74 63 -84 11 -17 13 -16 34 18 19 33 25 37 48 31 15 -3 39
-16 54 -29 16 -12 36 -25 45 -28 10 -4 28 -22 41 -41 19 -29 26 -34 41 -25 10
5 21 21 25 34 4 17 13 24 26 23 11 -1 20 -6 20 -12 0 -6 12 -26 28 -44 25 -30
30 -32 62 -24 31 8 35 13 38 46 2 26 -2 41 -17 54 -12 10 -30 26 -41 36 -16
13 -20 29 -20 75 0 67 -20 94 -79 109 -33 9 -44 19 -55 56 -4 13 -16 17 -53
17 -57 0 -85 17 -103 62 -8 18 -31 60 -51 93 -23 36 -41 83 -48 118 -6 32 -22
86 -36 120 -15 34 -31 80 -36 102 -17 70 -17 70 -43 46 -13 -13 -29 -41 -35
-64 -5 -23 -16 -50 -24 -61 -13 -17 -15 -14 -37 40 -41 105 -62 135 -111 160
-48 24 -133 118 -179 199 -13 24 -37 49 -54 57 -23 10 -34 27 -54 83 -23 64
-24 75 -13 126 19 93 14 180 -12 230 -31 57 -34 124 -8 139 11 5 33 10 49 10
59 0 104 76 68 113 -28 27 -34 58 -19 89 15 28 59 58 87 58 14 0 29 35 56 123
10 33 30 52 30 27 0 -5 9 -14 20 -20 66 -35 101 101 64 245 -26 102 -27 115
-11 133 28 32 57 101 57 136 0 26 13 50 58 107 68 87 82 100 194 183 97 72
262 162 314 172 52 10 53 -13 3 -134 l-44 -107 -3 -176 c-3 -153 0 -187 18
-259 67 -261 258 -461 511 -533 122 -35 121 -35 169 -11 44 23 60 25 168 24
36 0 69 8 105 24 28 14 66 28 82 31 17 4 71 24 121 46 50 21 96 39 101 39 14
0 165 139 188 173 89 132 97 163 51 205 -21 20 -152 42 -291 48 -33 2 -76 7
-95 11 -32 8 -35 12 -34 44 1 18 5 44 9 56 5 17 2 23 -17 29 -27 8 -244 8
-258 -1 -14 -8 -311 15 -332 26 -23 12 -23 55 0 95 9 18 32 61 51 97 19 36 44
70 55 76 15 8 68 9 181 2 133 -8 167 -13 195 -30 19 -11 75 -34 124 -50 49
-17 101 -41 115 -55 63 -58 84 -76 92 -76 21 0 162 -76 198 -106 61 -52 124
-45 157 18 13 25 16 57 14 162 -2 72 -2 139 -1 149 2 30 55 21 107 -18 25 -19
54 -35 63 -35 10 0 35 -13 56 -30 30 -24 48 -30 85 -30 40 0 52 -5 81 -33 19
-18 49 -61 67 -95 31 -58 34 -61 58 -52 30 12 84 13 84 2 0 -4 44 -58 98 -120
61 -71 111 -120 134 -130 41 -19 98 -86 128 -150 11 -23 55 -78 99 -121 74
-73 123 -148 146 -221 4 -13 17 -37 27 -51 19 -25 19 -30 5 -78 -11 -38 -12
-62 -5 -93 10 -46 21 -58 55 -58 25 0 35 9 64 58 17 29 22 32 35 21 10 -8 14
-22 10 -40 -6 -29 25 -79 48 -79 26 0 66 -41 66 -67 0 -42 -30 -83 -62 -83
-15 0 -29 -4 -32 -9 -3 -4 -25 -14 -50 -21 -30 -8 -47 -20 -55 -36 -10 -22 -7
-29 31 -64 l41 -40 89 5 c50 3 101 11 118 20 16 8 42 15 57 15 53 0 72 11 84
49 20 59 15 154 -11 202 -12 24 -28 76 -36 117 -8 44 -23 86 -38 105 -13 18
-37 59 -54 92 -16 33 -42 71 -56 84 -26 25 -36 74 -16 86 16 10 93 -16 125
-42 16 -14 40 -41 52 -59 14 -19 38 -37 60 -45 20 -6 58 -22 83 -34 25 -13 63
-26 85 -30 22 -4 67 -26 100 -49 78 -54 122 -74 185 -82 32 -4 63 -16 80 -31
34 -28 88 -48 157 -57 28 -3 67 -13 85 -20 18 -7 52 -16 75 -19 42 -5 43 -5
55 34 6 22 16 43 22 47 6 5 45 14 87 21 58 9 87 9 122 1 45 -12 87 -2 87 20 0
5 12 -3 26 -17 l27 -27 16 21 c9 12 32 45 51 74 19 29 61 78 93 109 60 59 84
108 67 141 -17 30 -11 44 32 77 27 21 57 34 90 38 40 6 51 12 63 35 19 35 18
67 0 99 -8 14 -14 41 -15 60 0 38 -23 80 -44 80 -14 0 -79 66 -95 98 -10 18
-20 22 -60 22 -43 0 -52 4 -79 34 -17 19 -33 44 -37 55 -7 22 15 60 54 95 26
24 26 38 1 61 -18 16 -26 17 -77 6 -73 -14 -86 -31 -79 -98 6 -50 5 -51 -26
-62 -42 -15 -99 -13 -121 3 -16 13 -15 15 17 34 38 22 49 49 44 103 -3 30 -10
38 -61 65 -89 47 -97 58 -107 155 -13 121 -29 229 -35 240 -4 5 -12 9 -19 9
-7 0 -19 18 -26 39 -16 50 -78 129 -107 137 -19 5 -22 11 -17 33 11 45 23 59
58 71 35 11 65 58 51 80 -4 7 -11 49 -15 94 -10 103 -29 168 -68 231 -17 28
-34 64 -38 80 -3 17 -17 50 -29 75 -13 25 -30 66 -38 92 -12 42 -12 50 0 68
13 19 12 23 -10 40 -14 11 -32 37 -40 58 -23 57 -69 92 -122 92 -26 0 -47 6
-55 16 -23 27 -48 36 -70 24 -19 -10 -19 -12 -3 -45 15 -31 21 -35 53 -35 31
0 42 -7 68 -39 52 -65 56 -80 33 -134 -12 -28 -27 -47 -36 -47 -24 0 -55 19
-55 33 0 7 -22 57 -50 111 -27 54 -50 105 -50 113 0 8 -9 17 -20 20 -10 3 -26
16 -35 29 -10 16 -25 24 -44 24 -21 0 -46 18 -106 77 -74 72 -81 76 -122 75
-29 0 -59 9 -94 28 -59 32 -83 30 -120 -11 l-26 -29 -43 40 c-24 22 -49 40
-57 40 -7 0 -32 17 -56 39 -23 21 -53 42 -67 46 -14 4 -36 17 -50 30 -37 33
-64 45 -105 45 -28 0 -37 -5 -45 -24 -5 -13 -22 -28 -40 -34 -27 -10 -37 -7
-83 19 -67 40 -87 58 -87 80 0 16 -2 16 -30 3 -16 -9 -32 -19 -35 -25 -13 -21
-56 -8 -92 29 -55 56 -87 73 -121 66 -26 -5 -31 -2 -40 24 -6 18 -20 33 -34
37 -12 4 -50 24 -83 45 -33 21 -79 43 -102 49 -41 11 -83 50 -83 77 0 15 -60
56 -98 68 -13 5 -39 5 -57 2 -30 -6 -33 -9 -26 -34 6 -21 19 -31 58 -45 87
-32 96 -105 15 -126 -156 -39 -150 -39 -216 -8 -33 16 -90 33 -126 38 -86 12
-97 16 -103 38 -3 14 -11 17 -35 13 -25 -3 -37 2 -59 25 -48 50 -84 67 -158
74 -38 4 -88 13 -111 20 -37 11 -45 10 -86 -9 -70 -34 -150 -30 -218 11 -36
21 -56 41 -60 57 -4 18 -13 25 -31 26 -53 2 -60 4 -54 15 4 6 21 10 39 9 54
-3 64 -1 70 18 4 10 22 26 41 35 22 10 35 24 35 36 0 10 10 26 23 34 l22 16
-25 0 c-14 1 -43 -6 -65 -14 -59 -21 -109 -18 -163 9 l-48 24 -60 -24 c-64
-26 -128 -31 -168 -13 l-25 12 26 38 c35 53 22 77 -37 69 -26 -3 -32 -17 -19
-39 9 -13 10 -24 4 -29 -17 -15 -140 -52 -176 -53 -19 -1 -45 -4 -59 -8 -15
-4 -43 -1 -69 7 -36 12 -52 13 -95 2 -45 -10 -57 -10 -81 3 -34 17 -71 6 -81
-25 -3 -10 -17 -30 -32 -43 l-26 -24 38 -35 c20 -20 55 -40 76 -46 24 -7 47
-21 57 -37 16 -25 16 -26 -6 -44 -13 -11 -32 -19 -43 -19 -20 0 -72 24 -98 44
-20 17 -111 36 -167 36 -38 0 -54 6 -88 35 -24 19 -64 40 -89 47 -36 9 -45 16
-40 28 4 8 9 25 12 38 7 33 51 51 139 58 90 7 158 33 168 63 9 30 46 36 91 13
83 -41 108 -45 150 -21 22 11 44 25 50 30 14 11 57 13 100 4 40 -9 49 6 29 44
-22 44 -19 57 27 112 51 61 47 66 -64 67 -62 1 -98 -5 -151 -24 -81 -28 -87
-28 -111 -11 -15 11 -16 17 -6 39 14 29 115 77 227 106 44 12 65 23 72 39 5
11 7 24 4 27 -13 13 -181 6 -224 -10 -41 -14 -105 -31 -207 -56 -35 -8 -53 -6
-109 13 -71 23 -127 28 -183 16 -30 -7 -42 -3 -88 28 -68 45 -88 45 -97 3 -3
-18 -11 -43 -17 -56 -11 -21 -16 -22 -68 -16 -50 5 -59 3 -85 -18 -56 -47 -71
-51 -89 -23 -15 23 -15 25 19 50 19 15 42 43 52 63 16 34 22 37 68 42 69 8
105 33 105 75 0 30 -3 33 -41 39 -36 6 -48 2 -87 -23 -37 -24 -50 -28 -70 -20
-21 8 -31 4 -69 -27 -24 -20 -66 -42 -94 -49 -28 -8 -61 -21 -74 -29 -30 -20
-89 -21 -108 -2 -11 11 -16 55 -21 168 -4 84 -12 176 -18 203 -22 107 30 219
107 232 38 6 39 8 24 73 -9 40 -7 49 17 94 22 40 29 68 32 133 4 64 9 86 23
99 12 11 19 31 19 53 1 33 2 34 14 18 12 -15 22 -17 64 -11 45 6 52 10 61 37
6 16 11 47 11 67 0 31 7 43 45 77 39 35 46 48 59 108 19 92 38 110 119 110 34
0 74 -3 90 -8 25 -7 29 -4 43 30 9 21 25 57 35 81 11 23 19 65 19 92 0 41 4
52 28 70 34 28 91 52 104 44 5 -3 15 -1 22 5 11 9 15 6 20 -12 3 -15 18 -29
38 -38 18 -7 46 -23 61 -36 16 -13 33 -23 38 -23 10 0 36 26 64 66 31 46 14
107 -51 174 l-33 35 7 77 c5 43 11 80 14 83 9 9 71 10 91 1 13 -6 17 -4 17 12
0 12 -4 24 -10 27 -5 3 -10 21 -10 40 0 19 5 37 10 40 17 10 11 65 -10 95 -27
37 -12 75 32 84 91 18 141 4 164 -45 9 -22 21 -42 25 -45 5 -3 44 -11 88 -19
44 -8 93 -21 110 -29 22 -12 36 -13 56 -6 34 13 135 13 135 0 0 -5 6 -10 14
-10 21 0 46 -39 46 -71 0 -47 20 -89 47 -95 31 -8 39 3 54 76 7 30 18 64 25
76 19 31 20 56 5 92 -11 27 -12 43 -2 87 7 30 16 114 21 187 9 135 15 169 44
247 18 48 19 66 10 163 -6 60 -4 70 17 100 19 26 25 51 30 121 5 69 11 95 29
119 21 28 21 33 10 116 -10 73 -10 96 3 146 9 32 24 68 35 80 16 17 21 40 25
121 3 75 10 112 27 150 18 39 23 64 21 115 -8 187 -5 265 13 298 22 42 49 267
41 342 -3 30 -2 75 2 100 8 41 12 46 48 58 63 21 77 39 72 92 -3 25 -11 63
-17 85 -18 56 -7 109 26 123 14 7 27 12 29 12 2 0 20 -34 39 -75 19 -41 42
-78 51 -81 32 -12 62 12 74 60 17 70 14 86 -29 132 -44 48 -47 59 -25 92 14
20 24 21 101 20 75 -1 87 1 109 22 51 48 71 -1 35 -86 -12 -26 -24 -67 -27
-91 -5 -36 -2 -48 22 -80 16 -21 43 -51 62 -66 18 -16 33 -34 33 -42 0 -7 8
-23 18 -36 18 -21 20 -22 43 -6 13 10 34 17 46 17 42 0 52 46 54 255 0 39 7
102 14 140 7 39 16 90 19 115 4 25 14 64 24 88 l17 43 69 -3 c75 -3 79 -6 96
-73 5 -22 16 -49 23 -60 14 -18 15 -18 41 8 21 21 26 36 26 75 0 55 -16 75
-90 112 -55 28 -69 46 -70 88 0 29 10 43 71 100 77 73 128 99 161 81 16 -9 20
-7 25 9 5 20 36 35 47 24 3 -3 6 -18 6 -34 0 -21 -7 -32 -25 -40 -33 -15 -32
-30 4 -51 36 -21 50 -21 87 -2 35 17 63 53 91 115 20 45 68 100 114 131 13 10
21 20 18 23 -4 4 -1409 9 -3123 13 l-3116 6 0 -14127z m5380 13453 c0 -32 -19
-79 -32 -79 -10 0 -11 124 -1 134 12 11 33 -25 33 -55z m-1267 -589 c25 0 29
-15 28 -120 -1 -54 4 -111 10 -127 10 -27 8 -44 -21 -168 l-7 -30 -17 34 c-20
37 -22 63 -31 291 -5 134 -4 153 8 138 8 -10 21 -18 30 -18z m-183 -115 c0 -8
-4 -15 -9 -15 -5 0 -17 -7 -25 -16 -15 -14 -16 -13 -16 15 0 26 4 31 25 31 16
0 25 -6 25 -15z m411 -392 c6 -90 13 -123 27 -143 10 -14 26 -40 36 -57 9 -18
27 -35 40 -39 23 -5 24 -9 31 -161 8 -174 6 -179 -57 -189 -30 -5 -37 -3 -41
12 -4 17 -5 17 -6 -1 0 -12 3 -25 9 -31 5 -5 11 -67 14 -136 2 -70 7 -132 11
-138 4 -6 -1 -32 -10 -57 -19 -48 -35 -44 -35 10 0 15 -7 44 -15 64 l-15 36
-29 -27 -29 -28 -11 38 c-34 120 -35 145 -8 225 22 65 24 83 15 125 -5 27 -6
81 -3 119 4 39 7 79 6 91 0 12 6 51 13 87 9 44 12 100 9 171 -5 89 -3 109 11
131 10 15 20 24 24 21 3 -4 9 -59 13 -123z m-397 10 c5 -20 5 -50 0 -75 -11
-52 -41 -71 -83 -55 -31 11 -31 11 -1 112 16 55 18 57 48 53 20 -2 29 -11 36
-35z m-564 -438 c14 -17 -1 -75 -25 -95 -11 -10 -15 -7 -21 14 -9 36 4 96 20
96 8 0 19 -7 26 -15z m500 -90 c9 -11 14 -47 14 -110 1 -82 -2 -100 -24 -139
-13 -26 -28 -46 -31 -46 -12 0 -31 170 -25 218 16 108 17 112 35 102 10 -5 24
-16 31 -25z m-296 -68 c16 -12 17 -17 6 -38 -7 -13 -21 -34 -31 -47 l-18 -23
-11 21 c-10 19 -6 70 7 93 7 11 27 8 47 -6z m410 -309 c-3 -35 -1 -82 4 -106
13 -55 2 -93 -39 -140 -43 -49 -75 -58 -95 -27 -10 16 -13 32 -8 47 11 33 17
111 15 206 l-1 82 65 0 66 0 -7 -62z m-1200 -38 c22 -8 26 -16 26 -47 0 -55
-11 -113 -21 -113 -5 0 -9 7 -9 16 0 9 -11 29 -25 46 -15 18 -25 42 -25 62 0
48 9 54 54 36z m690 -96 c9 -3 13 -10 10 -15 -3 -5 -9 -44 -14 -87 -16 -135
-38 -190 -83 -205 -6 -2 -13 -25 -18 -53 -19 -130 -32 -174 -57 -190 -13 -9
-27 -12 -31 -7 -4 4 -20 42 -34 83 -27 73 -27 76 -12 130 45 158 38 145 75
146 29 0 35 5 46 35 7 18 13 54 13 79 1 49 6 59 36 77 23 13 46 16 69 7z m157
-17 c-13 -13 -26 -3 -16 12 3 6 11 8 17 5 6 -4 6 -10 -1 -17z m-878 -143 c-2
-7 -11 -10 -19 -7 -17 6 -18 15 -2 31 14 14 29 -3 21 -24z m1010 -54 c15 -16
33 -30 40 -30 6 0 2 -8 -10 -18 -12 -9 -29 -42 -38 -72 -9 -30 -25 -73 -36
-96 -10 -23 -19 -47 -19 -55 0 -17 -157 -92 -176 -85 -21 8 -17 33 9 58 26 27
103 155 153 256 20 39 39 72 43 72 4 0 20 -13 34 -30z m-866 -132 c-3 -8 -6
-5 -6 6 -1 11 2 17 5 13 3 -3 4 -12 1 -19z m1429 0 c3 -12 6 -47 5 -77 -6
-328 -8 -357 -25 -396 -10 -22 -22 -67 -27 -100 -8 -46 -16 -65 -37 -82 -39
-32 -90 -30 -136 6 -24 19 -55 32 -84 36 -26 4 -69 15 -97 25 -27 11 -63 23
-79 28 -41 12 -55 54 -30 90 29 41 20 91 -17 105 -36 14 -38 31 -3 24 35 -6
122 33 163 73 28 29 36 32 70 26 29 -4 42 -2 52 10 15 18 73 49 110 57 20 5
32 20 48 56 11 27 21 56 21 63 0 18 38 78 49 78 5 0 13 -10 17 -22z m-847
-618 c-6 -15 -29 -50 -53 -78 l-43 -51 -12 25 c-24 54 34 144 89 136 26 -4 28
-6 19 -32z m-569 -2610 c0 -5 -7 -10 -16 -10 -8 0 -12 5 -9 10 3 6 10 10 16
10 5 0 9 -4 9 -10z m129 -336 c27 -6 31 -10 31 -41 0 -39 -16 -49 -51 -31 -41
22 -82 65 -67 71 19 8 51 8 87 1z m1317 -4 c9 0 34 -41 34 -55 0 -3 -13 -5
-29 -5 -20 0 -36 9 -50 26 -24 30 -18 48 13 40 11 -3 26 -6 32 -6z m-356 -78
c48 -17 55 -22 52 -43 -6 -44 -34 -60 -116 -70 -84 -9 -129 -4 -163 17 -26 16
-29 42 -11 90 l12 33 85 -4 c49 -2 110 -12 141 -23z m225 -122 c4 -6 4 -17 1
-25 -4 -12 -10 -12 -35 1 -17 9 -31 20 -31 25 0 13 57 11 65 -1z m-869 -72
c115 -73 209 -102 253 -78 16 8 20 5 24 -20 7 -34 70 -80 157 -116 33 -13 74
-33 92 -44 29 -18 44 -19 119 -14 120 9 183 -10 251 -77 28 -28 67 -59 87 -69
20 -10 55 -39 78 -64 28 -30 59 -51 93 -63 44 -15 59 -28 103 -88 61 -85 73
-95 108 -95 28 0 62 -32 74 -69 5 -18 40 -39 102 -61 17 -7 55 -27 84 -46 29
-18 80 -43 113 -54 43 -14 77 -36 114 -70 40 -38 60 -50 84 -50 51 0 104 21
120 47 14 24 12 26 -54 95 -37 39 -68 74 -68 79 0 24 141 42 154 20 3 -5 27
-14 52 -20 57 -14 82 -33 136 -101 22 -28 52 -57 67 -64 48 -25 143 -128 148
-161 10 -66 -20 -75 -188 -60 -47 4 -103 5 -123 1 -32 -6 -40 -13 -56 -50 -19
-46 -58 -75 -125 -95 -22 -7 -56 -19 -76 -28 -35 -14 -39 -14 -85 9 -34 17
-56 37 -74 69 -16 26 -35 45 -47 47 -24 4 -132 -48 -152 -72 -19 -22 -63 -20
-111 5 -41 21 -42 22 -101 4 -57 -18 -60 -17 -79 0 -17 15 -24 16 -46 7 -13
-7 -60 -12 -103 -12 -49 0 -84 -5 -96 -14 -16 -11 -22 -11 -45 2 -24 14 -39
14 -128 2 -80 -10 -113 -11 -159 -1 -32 6 -77 13 -99 15 -23 2 -50 8 -60 14
-42 22 -107 24 -154 4 -25 -10 -78 -27 -118 -37 -63 -15 -84 -16 -143 -6 -39
6 -78 17 -89 23 -14 9 -28 9 -59 -2 -36 -12 -50 -11 -116 5 l-75 19 -16 -23
c-13 -19 -22 -22 -47 -17 -17 4 -42 16 -55 29 -20 19 -37 22 -123 25 -94 4
-102 2 -138 -22 -20 -14 -45 -26 -54 -26 -10 0 -40 20 -66 45 -54 51 -81 57
-146 32 l-40 -15 -51 46 c-62 56 -66 72 -21 72 20 0 41 7 50 18 15 16 14 22
-14 71 -24 46 -29 65 -29 126 0 55 4 76 17 86 9 8 22 29 30 46 12 29 11 37 -6
70 -53 101 -71 139 -71 155 0 11 25 29 74 52 41 20 78 36 82 36 5 0 25 -18 45
-40 43 -46 86 -53 120 -19 l20 20 -43 35 c-24 19 -52 37 -63 40 -12 3 -33 28
-49 60 -16 29 -32 54 -37 54 -5 0 -9 13 -9 30 0 35 28 46 86 36 46 -9 71 0 78
28 6 23 86 116 100 116 5 0 22 10 39 22 32 23 75 25 151 8 35 -8 47 -5 106 26
41 21 71 44 78 59 7 14 22 30 34 35 13 5 37 18 53 29 42 29 73 26 131 -11z
m1512 -30 c31 -31 4 -58 -59 -58 -37 0 -41 9 -18 41 21 31 56 38 77 17z m-125
-79 l21 -12 -23 -8 c-12 -5 -34 -6 -47 -3 -20 5 -22 9 -13 20 14 17 33 18 62
3z m1212 -52 c17 -6 36 -17 43 -24 7 -7 29 -17 48 -22 20 -6 42 -18 50 -28 36
-48 -5 -64 -73 -29 -33 18 -64 26 -98 26 -60 0 -71 6 -81 44 -13 52 28 64 111
33z m1258 -435 c29 -3 41 -11 52 -33 35 -67 6 -85 -64 -40 -27 18 -54 38 -60
45 -16 19 -2 49 18 40 9 -4 33 -9 54 -12z m184 -118 c3 -8 38 -32 78 -55 51
-29 79 -53 93 -78 12 -20 37 -51 56 -69 38 -35 41 -39 27 -61 -7 -11 -15 -9
-43 13 -19 14 -42 26 -50 26 -9 0 -55 36 -104 80 -48 44 -91 80 -95 80 -6 0
-49 65 -49 75 0 7 35 11 58 7 13 -3 26 -11 29 -18z m-1297 -87 c15 -12 80
-103 80 -112 0 -3 -13 -5 -28 -5 -21 0 -43 15 -85 57 -31 31 -54 60 -51 65 8
12 67 9 84 -5z m255 -246 c19 -8 19 -8 -3 -20 -18 -10 -27 -10 -38 -1 -27 23
0 37 41 21z m1541 -77 c-6 -21 -9 -24 -21 -14 -18 15 -19 29 -4 67 l11 28 10
-28 c6 -15 7 -39 4 -53z m-273 -32 c20 -20 27 -35 27 -65 0 -39 0 -39 -32 -33
-17 3 -32 7 -34 9 -24 28 -54 86 -54 104 0 22 3 24 33 18 17 -4 44 -19 60 -33z
m-1151 -26 c3 -14 2 -30 -2 -36 -11 -18 -33 16 -25 40 9 27 22 25 27 -4z
m-412 -173 c0 -7 -8 -17 -19 -22 -14 -8 -23 -6 -36 9 -18 20 -18 21 0 34 21
15 55 2 55 -21z m1170 3 c26 -28 21 -56 -10 -56 -11 0 -23 -1 -27 -2 -12 -4
-35 51 -29 68 8 22 40 17 66 -10z m810 -72 c0 -21 -4 -33 -10 -29 -5 3 -10 22
-10 41 0 21 4 33 10 29 6 -3 10 -22 10 -41z m-925 -74 c-3 -5 -12 -7 -20 -3
-21 7 -19 13 6 13 11 0 18 -4 14 -10z m131 -208 c-4 -3 -12 0 -19 7 -9 9 -9
14 3 21 11 7 16 5 18 -6 2 -9 1 -18 -2 -22z m-738 -773 c-24 -15 -48 -10 -48
10 0 18 3 19 31 9 23 -8 27 -13 17 -19z m217 -156 c11 -25 12 -40 5 -47 -14
-14 -26 1 -33 40 -5 27 -2 44 10 44 1 0 10 -17 18 -37z m194 -200 c9 -20 9
-33 0 -55 -18 -44 14 -72 101 -87 26 -5 36 -12 38 -29 3 -20 -1 -22 -36 -22
-22 0 -47 -2 -54 -5 -8 -3 -26 5 -41 19 -20 19 -27 35 -27 64 0 24 -8 49 -20
65 -23 29 -25 48 -8 65 19 19 34 14 47 -15z m-2063 -98 c9 -14 15 -27 13 -28
-37 -28 -106 -67 -116 -67 -7 0 -22 -9 -33 -20 -24 -24 -70 -37 -70 -20 0 30
138 158 172 159 10 1 25 -10 34 -24z m-2702 -365 c9 0 16 -5 16 -11 0 -6 16
-29 35 -51 33 -39 34 -42 19 -69 -13 -26 -17 -28 -37 -18 -27 15 -37 28 -37
54 0 12 -27 44 -66 80 l-66 59 23 19 c22 18 23 18 60 -22 20 -23 44 -41 53
-41z m-627 -162 c-3 -8 -6 -5 -6 6 -1 11 2 17 5 13 3 -3 4 -12 1 -19z m-153
-152 c25 -54 21 -97 -13 -129 l-30 -27 -7 47 c-10 58 -10 124 0 148 8 22 28 7
50 -39z m-122 -1208 c17 -60 17 -240 -1 -304 -6 -22 -11 -51 -11 -66 0 -42
-14 -34 -40 22 l-24 51 18 69 c12 47 17 95 15 152 -5 130 16 167 43 76z m2240
-30 c7 -19 -2 -38 -17 -38 -21 0 -28 19 -15 35 15 18 26 19 32 3z m318 -98 c0
-9 -9 -25 -20 -35 -20 -18 -20 -17 -20 41 l1 59 19 -24 c11 -13 20 -31 20 -41z
m-2492 -674 c17 -19 18 -33 14 -124 -4 -90 -7 -104 -24 -113 -16 -9 -24 -7
-36 5 -21 20 -29 149 -14 209 6 23 14 56 18 72 l7 30 8 -29 c4 -16 17 -38 27
-50z m72 -1031 c0 -19 -4 -35 -10 -35 -5 0 -10 16 -10 35 0 19 5 35 10 35 6 0
10 -16 10 -35z m1195 -4196 c25 -48 13 -112 -22 -117 -33 -5 -63 16 -79 54
-12 30 -12 39 1 70 13 31 18 35 47 32 26 -2 37 -11 53 -39z m2841 -1883 c8
-21 -14 -66 -32 -66 -25 0 -54 30 -54 55 0 42 71 51 86 11z m6294 -441 c22
-27 3 -99 -38 -144 -45 -48 -86 -59 -121 -32 -22 17 -23 23 -15 52 8 28 19 39
64 60 32 16 61 38 69 53 16 30 24 32 41 11z m-412 -33 c42 -32 42 -64 -2 -108
-19 -19 -39 -34 -46 -34 -6 0 -25 13 -41 29 -39 40 -39 82 1 122 31 32 33 32
88 -9z m-8149 -255 c8 -10 7 -14 -4 -14 -8 0 -15 6 -15 14 0 7 2 13 4 13 2 0
9 -6 15 -13z m8206 -248 c4 -11 4 -36 1 -54 -10 -53 -82 -68 -128 -27 -22 19
-22 31 0 58 35 42 117 57 127 23z m-528 -41 c39 -37 25 -85 -44 -156 -33 -34
-44 -53 -53 -100 -17 -90 -25 -102 -63 -102 -23 0 -41 8 -56 24 -33 35 -21 75
39 129 41 37 53 57 76 123 15 44 31 85 37 92 14 18 38 15 64 -10z m4434 -503
c0 -5 -9 -11 -21 -13 -13 -2 -20 -11 -20 -25 0 -35 -14 -49 -42 -42 -16 4 -29
1 -37 -9 -15 -18 -41 -21 -41 -6 0 6 -8 10 -18 10 -11 0 -27 9 -38 21 -26 29
-5 40 69 35 48 -3 62 0 90 19 32 24 58 28 58 10z m-1851 -125 c0 -16 -4 -30
-10 -30 -5 0 -10 14 -10 30 0 17 5 30 10 30 6 0 10 -13 10 -30z m-4581 -10
c10 -5 26 -20 35 -34 16 -25 15 -26 -45 -87 l-62 -61 -43 17 c-42 16 -118 90
-109 105 3 4 25 13 50 19 25 6 60 20 77 31 36 22 69 25 97 10z m3666 -121 c5
-19 22 -50 36 -68 22 -28 31 -32 65 -29 38 3 39 4 46 50 8 61 13 68 47 68 27
0 28 -3 34 -57 6 -54 4 -60 -19 -78 -23 -19 -24 -23 -13 -48 9 -20 25 -31 62
-42 46 -14 51 -13 64 3 7 9 11 29 9 44 -3 16 1 31 9 38 8 7 15 19 15 26 0 21
23 17 38 -6 7 -12 28 -22 52 -26 22 -4 45 -13 51 -20 6 -8 24 -14 38 -14 16 0
37 -10 51 -25 20 -21 33 -25 99 -27 l76 -3 0 -45 c0 -38 -3 -45 -21 -48 -16
-2 -20 -8 -17 -22 5 -19 -4 -23 -62 -32 -17 -3 -20 -12 -23 -59 -2 -41 1 -59
13 -69 8 -7 15 -18 15 -25 0 -6 9 -20 20 -30 17 -15 23 -16 50 -5 39 16 48 7
52 -50 3 -42 5 -45 33 -48 49 -6 59 -21 34 -48 -27 -29 -21 -65 24 -149 22
-42 39 -61 55 -63 29 -4 28 -18 -2 -26 -14 -3 -38 -28 -59 -59 -20 -30 -43
-60 -52 -67 -18 -15 -53 -88 -75 -155 -7 -22 -31 -70 -52 -107 -30 -50 -46
-68 -62 -68 -40 0 -48 -14 -22 -39 32 -30 24 -54 -35 -115 -28 -28 -50 -61
-53 -80 -4 -19 -19 -40 -41 -56 -18 -14 -38 -35 -44 -47 -6 -12 -25 -29 -43
-36 -19 -8 -57 -43 -88 -82 -30 -38 -85 -99 -122 -136 -38 -37 -68 -75 -68
-84 0 -23 -45 -65 -71 -65 -11 0 -34 -11 -51 -25 -16 -14 -36 -25 -44 -25 -14
0 -19 -28 -16 -82 1 -20 -11 -39 -47 -75 -27 -26 -54 -59 -61 -73 -15 -29 -34
-44 -103 -79 -28 -14 -54 -33 -58 -41 -4 -8 -22 -48 -40 -88 l-32 -73 -42 7
c-35 5 -46 2 -73 -21 -40 -34 -44 -84 -9 -108 21 -15 20 -16 -28 -17 -60 0
-70 -6 -88 -49 -19 -46 -111 -136 -163 -162 -32 -15 -62 -21 -109 -20 -75 0
-75 1 -96 -107 -7 -35 -18 -66 -25 -69 -8 -3 -19 -22 -25 -42 -6 -20 -17 -45
-25 -55 -13 -19 -14 -19 -34 -1 -11 10 -21 32 -21 49 -2 27 -2 28 -6 6 -2 -14
-11 -40 -19 -58 -12 -25 -14 -49 -9 -96 6 -56 4 -69 -20 -117 -47 -93 -95
-149 -128 -149 -23 0 -31 -7 -43 -35 -8 -21 -21 -35 -32 -35 -9 0 -34 -5 -54
-11 -34 -9 -38 -13 -38 -42 0 -18 5 -38 11 -44 15 -15 2 -83 -15 -83 -7 0 -21
9 -30 19 -23 26 -49 17 -161 -53 -63 -40 -96 -55 -111 -52 -12 3 -36 3 -53 0
-29 -6 -30 -8 -16 -24 8 -9 15 -21 15 -26 0 -13 75 -54 102 -55 l23 0 -22 -9
c-13 -5 -23 -15 -23 -22 0 -23 -60 -68 -89 -68 -16 0 -36 9 -46 20 -24 26 -35
17 -35 -30 0 -29 -5 -42 -20 -50 -22 -12 -28 -10 -80 32 -21 16 -57 32 -90 38
-48 9 -58 8 -80 -8 -13 -10 -27 -33 -31 -50 -14 -67 -46 -75 -169 -46 -61 15
-72 15 -112 1 -51 -17 -64 -13 -69 23 -4 22 -10 25 -46 28 -43 3 -53 -4 -32
-25 8 -8 4 -15 -12 -27 -13 -9 -29 -16 -36 -16 -8 0 -18 -11 -23 -25 -12 -31
-25 -32 -45 -1 -14 21 -20 23 -54 15 -67 -15 -91 -28 -91 -48 0 -17 -21 -46
-87 -117 -17 -19 -32 -24 -68 -24 -50 0 -59 15 -26 44 19 18 38 72 28 82 -3 3
-27 8 -53 11 -108 13 -139 0 -131 -53 14 -83 -24 -97 -90 -32 l-42 41 -7 -39
c-8 -55 -68 -94 -142 -94 -53 0 -60 -5 -77 -55 -18 -53 -92 -60 -127 -12 -13
19 -15 32 -8 61 4 21 11 40 14 43 3 3 28 7 56 8 27 1 53 4 56 8 8 7 -55 15
-190 22 -63 3 -120 12 -136 20 -25 13 -31 12 -71 -14 -59 -37 -84 -42 -136
-28 -41 11 -48 10 -99 -18 -30 -16 -54 -35 -54 -42 0 -8 -8 -5 -21 8 -14 14
-28 19 -42 15 -12 -3 -27 -6 -33 -6 -6 0 -16 -12 -23 -26 -12 -28 -1 -54 23
-54 31 0 35 -23 10 -56 -40 -52 -58 -52 -114 0 -77 72 -116 79 -170 31 -14
-12 -39 -27 -57 -34 -17 -7 -39 -21 -49 -32 -18 -21 -35 -22 -234 -23 -140 -1
-198 15 -219 60 -17 38 -48 44 -104 23 -76 -30 -92 -26 -158 39 -32 31 -63 71
-69 87 -14 41 -66 68 -133 69 -64 1 -103 24 -123 71 -16 38 -32 49 -85 59 -21
4 -42 13 -49 21 -8 10 -32 15 -71 15 -48 0 -71 6 -125 35 -63 34 -104 70 -104
94 0 6 -16 11 -35 11 -32 0 -35 -2 -35 -30 0 -33 -23 -50 -67 -50 -40 1 -109
34 -123 60 -12 23 -10 32 22 93 20 39 -29 59 -89 36 -24 -9 -31 -7 -50 15 -17
20 -28 25 -51 20 -25 -5 -30 -2 -35 18 -4 13 -63 79 -132 146 -107 105 -127
129 -136 168 l-12 45 -26 -24 c-14 -13 -35 -27 -47 -29 -43 -11 -108 77 -117
160 -8 65 -38 112 -98 153 -58 40 -89 80 -89 116 0 12 -13 37 -29 55 -27 31
-33 33 -85 32 -81 -2 -102 17 -108 97 -4 53 -8 65 -32 83 -47 36 -172 160
-184 183 -7 12 -12 35 -12 52 0 24 -5 32 -25 37 -14 3 -38 22 -55 40 -29 34
-30 38 -30 132 0 83 -3 99 -18 108 -41 26 -22 125 36 187 22 23 33 27 83 27
45 0 66 -6 94 -24 19 -13 53 -27 75 -31 32 -5 50 -18 89 -62 50 -57 52 -58
134 -53 29 3 67 -24 67 -45 0 -13 30 -25 63 -25 10 0 40 18 67 39 74 58 150
65 195 17 16 -18 18 -63 2 -69 -9 -3 -12 -16 -9 -36 4 -31 22 -44 22 -17 0 29
30 44 102 51 97 9 310 -24 347 -55 46 -36 73 -43 103 -26 38 23 64 20 106 -14
49 -39 115 -52 242 -49 149 3 155 2 188 -26 16 -13 54 -31 83 -39 30 -8 72
-22 93 -31 22 -9 49 -14 63 -10 13 3 51 -2 84 -11 71 -20 117 -14 163 21 25
19 42 25 58 20 47 -13 85 -39 94 -63 8 -22 15 -24 88 -28 52 -2 88 2 105 10
20 11 45 11 116 3 143 -16 568 -8 688 13 81 15 91 13 198 -25 l45 -16 100 50
c80 40 108 49 148 49 40 -1 53 3 68 21 10 13 18 35 18 50 0 32 8 44 37 60 31
16 30 16 57 -36 13 -27 33 -56 44 -67 21 -18 21 -18 44 28 18 39 25 45 43 39
31 -11 81 -6 107 11 16 10 28 12 38 6 23 -15 76 -12 90 4 8 11 9 38 4 95 -6
79 -6 80 17 86 13 3 35 4 49 3 49 -3 80 2 80 15 0 6 7 24 14 40 13 23 13 27 1
27 -8 0 -38 14 -66 31 -47 29 -53 31 -89 20 -22 -6 -45 -17 -52 -25 -44 -43
-122 -45 -213 -5 -69 31 -113 29 -156 -4 -50 -38 -87 -43 -142 -19 -50 22 -59
20 -119 -36 l-28 -25 -60 31 c-33 18 -66 32 -74 32 -7 0 -33 15 -58 34 l-45
34 -47 -15 c-27 -9 -59 -27 -72 -40 -37 -37 -80 -31 -125 18 -38 41 -39 41
-63 25 -33 -21 -54 -20 -92 3 -43 26 -141 36 -218 21 -54 -10 -73 -9 -132 6
-38 9 -73 16 -79 15 -5 0 -84 -3 -175 -6 -91 -3 -178 -10 -193 -15 -46 -15
-117 5 -171 50 -47 39 -49 40 -126 39 -43 0 -87 4 -98 10 -32 17 -38 14 -57
-26 -16 -33 -19 -35 -25 -17 -11 28 -29 40 -75 49 -21 3 -53 14 -70 23 -16 9
-68 21 -115 28 -112 16 -214 40 -249 59 -16 8 -67 16 -114 19 -91 5 -132 20
-237 91 -30 20 -69 43 -88 51 -48 20 -93 59 -81 71 10 10 90 -6 128 -26 11 -6
45 -11 75 -11 30 0 65 -4 78 -9 115 -45 209 -58 469 -65 112 -3 154 -8 179
-21 24 -12 46 -15 84 -11 28 4 93 10 144 14 76 6 96 11 108 26 8 11 14 25 14
31 0 5 11 22 25 37 29 32 48 26 80 -22 39 -58 47 -60 354 -61 249 -2 283 0
299 14 15 14 42 17 155 17 75 0 138 -4 141 -9 10 -16 70 -18 103 -5 42 18 80
18 133 -1 33 -12 46 -12 63 -3 12 7 65 12 117 13 72 1 104 6 130 20 40 21 126
38 186 36 26 -1 63 9 95 24 30 14 72 25 94 25 29 0 54 9 90 33 28 19 72 42 99
52 27 11 61 29 75 41 15 12 49 29 76 37 50 15 156 60 185 77 8 6 33 19 55 31
22 12 52 35 67 52 24 25 39 31 92 36 43 5 75 15 100 31 20 14 36 27 36 30 0
18 95 82 127 86 44 5 100 41 132 85 12 16 38 37 56 46 28 13 32 19 24 34 -5
10 -7 36 -4 56 3 21 8 61 12 88 3 28 14 59 25 71 17 19 17 22 3 28 -35 13 -74
6 -80 -14 -9 -27 -52 -26 -81 1 -32 30 -43 17 -37 -44 7 -74 -7 -104 -62 -127
-26 -11 -45 -26 -45 -35 0 -9 -16 -23 -35 -31 -20 -8 -40 -25 -44 -37 -5 -12
-14 -36 -21 -53 -7 -19 -24 -38 -43 -47 -37 -17 -137 -37 -189 -37 -42 0 -162
-46 -220 -85 -22 -15 -58 -33 -80 -41 -21 -7 -51 -22 -66 -32 -15 -11 -42 -24
-59 -30 -18 -6 -60 -27 -94 -47 -34 -20 -80 -40 -103 -45 -22 -6 -78 -19 -124
-30 -69 -16 -92 -17 -139 -9 -72 14 -110 6 -148 -30 -16 -16 -57 -41 -91 -54
-57 -24 -67 -25 -225 -22 -148 3 -171 1 -234 -20 -132 -42 -302 -58 -340 -31
-39 27 -120 41 -163 28 -61 -18 -304 -14 -382 6 -61 16 -67 16 -105 0 -79 -33
-314 -21 -372 19 -16 11 -51 29 -79 41 -42 17 -58 20 -85 11 -58 -17 -166 -1
-244 36 -38 18 -99 38 -135 45 -36 6 -80 18 -99 26 -18 8 -37 11 -43 8 -13 -8
-98 24 -124 47 -11 11 -24 19 -30 19 -5 0 -34 26 -64 59 -30 32 -78 70 -107
85 l-52 26 -21 -31 c-31 -43 -61 -36 -80 19 -8 23 -19 42 -25 42 -6 0 -35 12
-63 26 -55 28 -75 54 -86 117 -7 36 -6 37 17 32 15 -4 28 -1 36 9 8 9 20 16
27 16 19 0 18 13 -4 38 -26 30 -100 29 -104 -2 -2 -11 -10 -21 -18 -21 -27 0
-25 80 2 115 13 16 31 41 41 55 18 24 22 26 72 20 43 -6 63 -3 97 13 24 11 70
23 103 27 33 4 76 15 95 25 19 10 58 25 85 33 28 8 81 27 120 41 38 15 92 30
120 34 45 7 52 11 67 44 16 34 22 38 68 44 31 4 73 20 108 41 80 49 118 63
190 74 34 5 89 20 122 34 33 14 79 25 103 25 56 0 100 15 159 56 75 51 98 52
183 10 63 -31 86 -37 161 -41 75 -4 93 -9 134 -35 55 -35 73 -37 123 -11 56
29 74 31 124 14 36 -13 53 -14 76 -5 30 11 48 3 112 -49 14 -12 47 -18 111
-21 76 -4 100 -10 143 -33 28 -16 60 -42 71 -59 40 -66 65 -80 153 -88 168
-14 213 -19 264 -30 43 -9 59 -8 101 7 43 16 56 16 93 6 24 -7 53 -12 64 -11
81 7 133 2 172 -19 43 -23 56 -25 114 -15 24 4 47 0 67 -10 49 -25 85 -20 137
19 59 46 145 84 213 95 32 6 65 19 83 35 33 27 46 30 68 16 10 -7 18 -5 26 6
7 9 38 19 81 24 38 5 91 12 117 15 41 6 51 3 72 -16 18 -17 27 -19 42 -12 46
25 71 18 120 -30 38 -37 56 -47 88 -50 l40 -3 3 -57 c3 -57 3 -57 37 -64 19
-3 46 -3 60 0 14 4 35 1 46 -5 31 -16 39 4 32 71 -4 48 -2 58 16 74 12 11 24
16 28 13 3 -4 14 0 24 9 14 13 21 13 40 4 12 -7 35 -16 50 -20 36 -11 40 13 8
39 -20 16 -21 19 -5 48 8 17 27 40 41 51 l26 21 36 -22 c20 -12 64 -47 97 -78
69 -63 105 -78 128 -51 31 34 30 58 -2 116 -40 70 -40 101 -4 153 32 46 31 45
119 78 40 15 61 29 64 41 8 44 75 88 146 97 28 4 67 9 88 13 36 6 37 6 37 -25
0 -17 -4 -31 -9 -31 -15 0 -21 -30 -15 -70 7 -43 44 -70 63 -46 13 15 18 95 7
118 -6 13 4 25 46 51 29 19 64 47 77 61 14 14 32 26 42 26 9 0 27 16 38 36
l22 36 32 -25 c20 -15 33 -35 35 -53 2 -16 22 -57 45 -92 l41 -64 45 7 c25 4
54 11 63 16 28 15 81 10 102 -10 12 -10 33 -21 49 -25 30 -7 50 9 91 74 18 29
30 36 76 46 30 6 68 16 83 23 42 16 137 15 137 -3 0 -22 28 -27 74 -15 35 10
38 13 21 20 -11 4 -33 10 -48 14 -31 6 -57 53 -57 100 0 42 67 55 110 20 17
-14 76 -35 96 -35 8 0 28 16 46 35 17 20 36 34 42 32 6 -2 15 -19 21 -38z
m-3487 16 c9 -9 -20 -35 -39 -35 -20 0 -43 33 -31 44 7 7 61 0 70 -9z m-3118
-105 c8 -16 21 -20 59 -20 41 0 50 3 54 21 4 15 11 20 22 15 9 -3 23 -6 31 -6
24 0 15 -18 -13 -25 -15 -3 -38 -17 -51 -31 -28 -27 -43 -29 -107 -12 -39 11
-45 16 -45 38 0 44 31 56 50 20z m7760 -780 c0 -5 -4 -10 -10 -10 -5 0 -10 5
-10 10 0 6 5 10 10 10 6 0 10 -4 10 -10z m-3833 -315 c19 -8 44 -15 54 -15 18
0 28 -19 12 -20 -5 -1 -31 -3 -60 -6 -43 -3 -54 -1 -61 13 -10 20 -5 43 9 43
5 0 26 -7 46 -15z m-5552 -1094 c3 -5 1 -12 -5 -16 -5 -3 -10 1 -10 9 0 18 6
21 15 7z m4895 -152 c0 -5 -7 -9 -15 -9 -15 0 -20 12 -9 23 8 8 24 -1 24 -14z
m-4453 -631 c10 -8 9 -16 -2 -38 -26 -50 -77 -46 -103 8 -11 23 -10 29 5 40
19 14 78 8 100 -10z m1860 -1374 c-3 -3 -12 -4 -19 -1 -8 3 -5 6 6 6 11 1 17
-2 13 -5z"/>
<path d="M10296 27554 c-21 -18 -30 -37 -33 -67 -5 -57 7 -75 41 -59 24 11 26
16 26 82 0 38 -1 70 -2 70 -2 0 -16 -12 -32 -26z"/>
<path d="M10115 23676 c-24 -17 -14 -43 21 -57 38 -14 54 -5 54 30 0 21 -6 30
-22 35 -31 8 -32 8 -53 -8z"/>
<path d="M18521 9431 c-14 -25 -5 -31 41 -31 26 0 38 4 38 14 0 17 -5 21 -42
30 -21 5 -30 2 -37 -13z"/>
<path d="M18575 9340 c-4 -6 -3 -16 3 -22 13 -13 23 4 13 21 -7 10 -10 10 -16
1z"/>
<path d="M17440 9165 c-13 -14 -46 -33 -74 -44 -48 -18 -51 -21 -49 -53 2 -24
13 -42 40 -65 20 -18 44 -33 53 -33 22 0 77 59 85 90 9 38 61 90 89 90 25 0
51 22 39 33 -3 4 -41 7 -83 7 -69 0 -79 -3 -100 -25z"/>
<path d="M16913 9115 c-9 -27 -8 -37 3 -46 11 -9 19 -8 34 6 18 16 18 20 4 46
-19 38 -28 37 -41 -6z"/>
<path d="M19311 8886 c-6 -14 -18 -29 -26 -32 -9 -4 -15 -19 -15 -41 0 -33 1
-34 33 -31 30 3 33 6 41 51 8 39 7 51 -7 64 -15 15 -17 14 -26 -11z"/>
<path d="M15992 8663 c2 -32 7 -39 28 -41 20 -3 22 -1 12 11 -10 11 -8 18 8
32 25 22 17 35 -21 35 -29 0 -30 -2 -27 -37z"/>
<path d="M16334 8367 c-8 -21 2 -35 16 -21 5 5 6 15 0 24 -8 12 -10 12 -16 -3z"/>
<path d="M15674 7291 c-17 -9 -44 -27 -60 -41 l-30 -25 39 -36 c46 -44 71 -42
92 8 18 43 19 73 2 94 -12 16 -15 16 -43 0z"/>
<path d="M16283 5640 c-48 -22 -55 -44 -23 -78 32 -34 74 -29 104 11 31 40 32
49 8 70 -23 21 -36 20 -89 -3z"/>
<path d="M16274 5479 c-8 -14 11 -33 25 -25 6 4 11 14 11 22 0 16 -26 19 -36
3z"/>
<path d="M16202 5421 l-24 -6 22 -28 c29 -36 40 -34 40 8 0 19 -3 35 -7 34 -5
-1 -19 -4 -31 -8z"/>
<path d="M15850 5220 c0 -5 5 -10 11 -10 5 0 7 5 4 10 -3 6 -8 10 -11 10 -2 0
-4 -4 -4 -10z"/>
<path d="M15578 5203 c-16 -4 -16 -6 -2 -29 22 -32 34 -30 34 6 0 17 -3 29 -7
29 -5 -1 -16 -3 -25 -6z"/>
<path d="M13955 30990 c-1518 -5 -1540 -5 -1573 -25 -37 -23 -47 -50 -38 -99
10 -50 28 -61 55 -32 12 13 36 27 54 30 17 3 41 16 53 27 14 13 32 19 50 17
26 -3 29 -7 29 -38 0 -25 5 -37 20 -43 22 -9 45 14 45 44 0 27 21 34 37 13 18
-23 11 -88 -10 -112 -18 -20 -50 -139 -43 -158 9 -22 30 -16 61 16 24 25 35
29 57 25 20 -5 41 1 73 18 l45 26 0 -43 c0 -24 -5 -57 -11 -73 -14 -43 10
-133 49 -177 16 -19 35 -51 42 -71 l12 -37 25 63 c14 35 29 68 33 73 5 4 -2
24 -13 44 -20 33 -21 49 -19 177 l3 140 37 36 c20 21 44 46 52 58 15 21 106
51 155 51 34 0 51 -40 54 -123 2 -62 0 -68 -21 -77 -38 -15 -65 -43 -70 -73
-5 -23 -1 -28 21 -33 14 -2 41 -9 60 -14 65 -17 90 11 92 104 0 17 8 50 18 74
16 41 18 42 34 24 9 -10 17 -34 17 -53 0 -19 4 -40 9 -48 12 -19 48 -5 68 27
34 56 76 92 106 92 26 0 27 -1 13 -16 -12 -12 -16 -36 -15 -102 0 -48 -2 -99
-6 -113 -5 -22 -3 -27 15 -32 43 -11 67 8 72 56 4 35 14 54 45 87 34 35 46 41
74 38 26 -2 37 -10 47 -31 10 -21 18 -26 30 -21 48 22 138 -1 189 -47 24 -22
46 -39 51 -39 4 0 18 20 29 44 18 37 29 46 72 60 61 20 108 20 141 1 47 -26
105 -52 131 -59 19 -4 31 -17 42 -45 9 -22 29 -47 44 -56 16 -9 39 -34 51 -56
25 -43 29 -44 67 -27 21 9 32 31 64 131 31 98 42 122 61 129 33 12 63 1 54
-20 -16 -34 -7 -75 20 -99 15 -13 34 -23 42 -23 25 0 15 -19 -13 -26 -89 -19
-102 -36 -54 -72 23 -17 35 -20 54 -13 25 10 164 -20 176 -37 3 -4 27 -40 53
-80 37 -56 53 -72 72 -72 37 0 44 44 12 73 -38 33 -42 68 -13 95 21 20 27 21
51 11 25 -12 31 -23 38 -74 3 -16 12 -21 46 -23 36 -3 43 0 51 20 5 13 24 39
44 59 28 29 39 34 57 27 12 -5 44 -5 71 -2 40 5 52 3 75 -15 25 -19 27 -27 25
-74 -2 -49 0 -54 24 -65 14 -7 51 -15 83 -18 33 -4 66 -14 77 -24 17 -15 25
-16 55 -7 30 10 37 18 45 55 6 24 14 40 17 36 10 -9 177 -66 218 -73 44 -8 66
-45 46 -76 -10 -15 -26 -20 -67 -22 -41 -2 -58 -8 -78 -27 l-25 -25 27 -10
c29 -11 114 -27 208 -40 39 -5 66 -15 88 -34 18 -15 40 -27 49 -28 40 -3 80 4
123 20 31 12 53 15 69 9 13 -5 36 -6 52 -3 34 8 43 -9 34 -60 -6 -30 -11 -35
-36 -35 -16 0 -31 -4 -34 -9 -10 -15 4 -39 25 -44 33 -9 23 -49 -25 -96 -37
-37 -49 -42 -71 -37 -22 6 -32 1 -59 -29 -22 -23 -41 -35 -59 -35 -35 0 -35
-18 0 -26 15 -4 43 -18 62 -31 29 -20 44 -23 76 -18 74 12 101 9 132 -13 43
-30 69 -28 88 8 8 16 15 37 15 47 0 30 60 78 113 92 27 6 59 18 70 26 28 18
119 34 154 27 39 -7 123 -61 123 -78 0 -22 -32 -49 -83 -70 -45 -18 -47 -21
-41 -51 5 -28 0 -37 -39 -77 -43 -43 -44 -45 -24 -52 25 -8 220 -6 255 3 18 4
22 12 23 42 1 66 40 119 89 123 28 3 34 -1 43 -25 8 -24 5 -33 -15 -55 -46
-51 -59 -79 -48 -107 11 -29 10 -28 110 -30 41 0 89 -4 105 -9 29 -7 36 -3
119 79 76 75 92 86 118 83 23 -2 35 -11 48 -35 10 -18 23 -39 29 -47 13 -16
10 -19 -54 -70 l-29 -24 19 -41 c26 -59 46 -71 98 -59 23 5 55 20 72 32 21 16
39 22 60 19 39 -6 68 23 63 64 -3 25 -10 30 -68 50 -36 12 -60 22 -54 22 6 1
16 12 22 25 14 31 48 30 80 -1 43 -44 99 -22 130 49 12 29 42 42 88 36 l29 -3
0 -100 c0 -136 12 -156 93 -154 78 1 130 -20 161 -66 39 -57 55 -64 84 -37 22
21 30 22 110 16 l87 -7 0 -36 c0 -42 -14 -61 -45 -61 -51 0 -89 -91 -45 -105
27 -9 97 32 140 81 23 27 47 41 83 51 28 7 56 22 65 34 24 35 67 47 125 37 29
-6 57 -14 64 -20 8 -6 13 -45 15 -101 3 -90 4 -92 31 -105 34 -16 50 -6 81 53
18 32 18 40 7 68 -24 58 -20 80 17 88 18 4 44 16 56 28 l23 22 12 -45 c12 -48
8 -66 -21 -108 -15 -22 -16 -31 -6 -53 11 -24 13 -25 19 -8 7 20 68 43 113 43
15 0 37 -9 49 -21 12 -11 35 -27 50 -36 26 -13 31 -13 48 3 10 9 30 41 43 71
23 50 27 53 61 53 47 0 75 15 75 41 0 11 10 38 23 59 l22 40 -27 49 c-34 59
-35 80 -6 116 19 24 26 26 62 21 51 -9 62 -18 70 -61 7 -38 22 -49 76 -59 46
-8 56 0 67 54 7 39 12 45 37 48 19 2 36 -4 53 -20 23 -22 24 -27 18 -98 l-7
-75 55 -104 c30 -57 62 -108 72 -114 12 -6 53 -5 124 3 60 6 115 8 126 3 43
-17 124 -88 124 -109 1 -11 15 -30 32 -43 16 -12 34 -33 39 -46 8 -20 13 -22
42 -16 18 4 43 13 55 19 12 7 41 12 65 12 l43 0 1 89 c0 66 5 96 18 115 18 29
36 34 36 11 0 -8 14 -25 31 -37 30 -22 79 -111 79 -144 0 -9 -7 -32 -17 -51
-11 -23 -13 -37 -6 -41 19 -12 77 -136 74 -157 -1 -11 -11 -34 -22 -51 -22
-36 -25 -77 -6 -91 24 -19 133 -53 177 -55 l45 -3 3 38 c2 21 -4 61 -12 89
-17 60 -8 88 28 88 34 0 89 -20 103 -38 11 -13 13 -13 19 1 3 8 4 26 2 39 -2
19 -9 23 -38 23 -31 0 -37 5 -65 55 -28 50 -34 55 -65 55 -65 0 -47 20 25 28
90 10 92 10 141 2 54 -9 64 -31 64 -146 0 -82 2 -92 25 -115 22 -22 30 -24 74
-18 46 6 51 4 90 -31 22 -21 41 -43 41 -50 0 -7 -18 -24 -39 -38 -37 -25 -72
-72 -107 -147 -14 -31 -15 -47 -5 -131 7 -52 9 -104 5 -113 -6 -17 -9 -16 -25
5 -16 22 -20 23 -51 11 -19 -6 -46 -12 -61 -12 -22 0 -27 -5 -27 -24 0 -14 9
-40 19 -58 13 -21 22 -63 27 -116 6 -72 8 -80 18 -60 17 33 49 30 60 -7 15
-52 56 -135 66 -135 5 0 16 13 24 29 9 16 34 38 56 49 l41 20 26 -41 c14 -22
26 -51 26 -63 0 -47 -84 -147 -135 -159 -22 -6 -30 -1 -49 24 -17 24 -31 31
-55 31 -35 0 -56 -16 -79 -61 -14 -27 -14 -32 11 -81 39 -76 93 -138 122 -138
28 0 92 -64 122 -121 25 -47 45 -62 73 -55 30 7 59 -21 54 -52 -2 -12 -13 -32
-24 -44 -15 -16 -20 -31 -16 -50 5 -24 9 -27 32 -22 33 8 61 39 61 69 0 38 50
43 106 10 38 -22 44 -30 37 -48 -4 -12 -7 -35 -8 -52 l0 -30 85 -3 c120 -3
126 -5 149 -57 11 -25 24 -45 30 -45 5 0 31 23 58 51 26 27 60 57 75 64 26 15
27 14 44 -30 16 -43 16 -49 0 -96 -21 -65 -20 -71 6 -122 l21 -42 18 40 c10
22 20 49 24 60 5 20 6 20 17 1 6 -11 12 -51 14 -90 2 -39 4 -73 4 -76 0 -3 5
-12 10 -20 8 -13 14 -10 33 14 28 35 40 30 66 -29 19 -43 48 -65 102 -78 32
-8 49 -44 49 -105 1 -26 7 -63 14 -83 18 -50 90 -134 141 -164 44 -25 55 -51
55 -132 0 -18 8 -46 18 -63 l19 -30 23 25 c26 28 77 48 85 35 3 -5 9 -33 12
-61 6 -49 9 -53 44 -68 l39 -16 0 -70 c0 -41 8 -97 20 -135 15 -51 20 -94 20
-197 l0 -132 29 -20 c34 -24 41 -16 41 47 0 74 16 106 65 130 41 20 45 25 45
57 0 42 29 75 65 75 33 0 81 -24 88 -45 9 -21 24 -19 32 6 11 32 46 20 71 -25
12 -22 20 -45 17 -52 -3 -8 5 -18 18 -23 26 -10 69 -62 69 -84 0 -7 16 -44 35
-83 19 -38 35 -72 35 -76 0 -8 44 -111 59 -137 8 -16 59 -33 72 -25 4 2 13 21
20 42 6 20 18 45 27 54 8 10 17 41 20 70 3 29 9 56 14 59 6 4 6 9 -1 13 -6 4
-11 2 -11 -3 0 -6 -7 -11 -15 -11 -10 0 -15 10 -15 29 0 49 -20 91 -54 108
-52 26 -57 53 -11 53 17 0 29 -9 40 -29 8 -16 24 -32 35 -36 11 -4 23 -20 28
-38 5 -22 18 -37 40 -47 35 -17 45 -46 12 -37 -11 3 -22 1 -25 -4 -9 -13 14
-49 30 -49 8 0 15 -5 15 -12 0 -7 12 -29 27 -51 26 -38 32 -61 52 -220 7 -51
18 -88 32 -108 15 -22 24 -53 29 -107 4 -42 8 -67 9 -56 1 15 10 24 27 28 31
8 54 -8 54 -38 0 -11 9 -34 19 -50 16 -24 19 -42 15 -100 -9 -119 -9 -119 -54
-112 -46 7 -48 4 -64 -75 -19 -89 2 -127 80 -148 38 -10 43 -16 68 -74 29 -66
31 -70 59 -109 10 -14 21 -49 26 -77 4 -28 15 -59 24 -69 22 -24 4 -59 -46
-91 -28 -19 -37 -31 -37 -53 0 -15 3 -28 8 -28 4 0 18 -16 31 -36 22 -32 25
-45 22 -124 l-2 -88 30 -7 c34 -7 91 -66 91 -95 0 -33 -18 -67 -38 -73 -12 -2
-41 2 -66 10 -38 13 -52 13 -76 3 -30 -13 -34 -19 -44 -81 -4 -21 -13 -42 -21
-49 -17 -14 -29 -7 -119 77 -56 52 -66 66 -66 95 0 18 9 47 20 63 11 17 20 46
20 66 0 29 -5 38 -25 47 -14 7 -34 12 -44 12 -27 0 -68 36 -73 64 -4 17 3 32
24 51 15 15 31 38 35 53 9 36 -24 96 -57 100 -13 2 -33 10 -44 18 -28 19 -49
18 -76 -6 -12 -11 -31 -22 -41 -25 -11 -4 -21 -20 -25 -40 -9 -51 0 -68 36
-63 28 4 31 2 46 -46 9 -28 28 -63 41 -78 l25 -27 -18 -50 c-15 -44 -22 -51
-44 -51 -41 0 -89 60 -110 138 -7 28 -22 50 -46 69 -20 14 -45 47 -56 72 -43
100 -51 112 -81 118 -15 3 -35 17 -44 30 -9 13 -30 30 -47 37 -44 18 -59 -4
-44 -62 9 -36 14 -42 37 -42 36 0 51 -17 51 -56 0 -42 -14 -50 -47 -26 l-27
19 -25 -29 -25 -30 -15 39 c-18 45 -50 89 -102 143 -20 20 -42 47 -48 59 -24
44 -52 21 -65 -54 -4 -22 -19 -60 -33 -83 l-25 -44 -22 21 c-12 12 -25 21 -29
21 -3 0 -15 -20 -26 -44 -17 -39 -25 -46 -63 -56 -24 -7 -59 -21 -79 -32 -45
-25 -70 -21 -87 15 -12 24 -19 28 -50 25 -33 -3 -37 -6 -40 -35 -2 -24 1 -33
16 -37 11 -4 32 -25 47 -46 27 -39 27 -41 10 -60 -25 -28 -65 -25 -111 9 -22
15 -58 34 -79 41 -22 7 -87 36 -145 66 -106 54 -217 87 -243 72 -8 -4 -18 -28
-21 -53 -5 -33 -12 -45 -24 -45 -10 0 -35 -9 -57 -21 -47 -25 -117 -20 -150
11 -18 17 -34 19 -141 18 -134 -1 -161 7 -166 49 -3 25 -8 28 -45 31 -38 3
-43 0 -58 -28 -18 -34 -10 -54 26 -65 26 -8 24 -23 -3 -35 -13 -5 -43 -27 -67
-49 -37 -34 -51 -41 -86 -41 -23 0 -71 -9 -105 -20 -65 -21 -76 -19 -105 18
-8 10 -20 7 -55 -16 -211 -135 -202 -131 -322 -136 -90 -5 -91 -5 -121 -42
-37 -44 -95 -73 -109 -52 -4 7 -6 22 -3 33 2 11 5 25 5 32 0 6 16 20 36 32 32
19 35 25 32 59 -3 37 -3 37 -43 34 -61 -5 -107 -22 -140 -52 -16 -15 -52 -33
-80 -39 -27 -7 -59 -21 -70 -31 -34 -32 -105 -53 -136 -40 -21 9 -33 8 -57 -4
-39 -20 -125 -21 -141 -2 -22 26 -73 26 -108 0 -18 -14 -56 -29 -85 -34 -29
-5 -69 -17 -88 -25 -19 -9 -69 -21 -110 -28 -68 -11 -76 -15 -97 -46 -20 -29
-22 -43 -17 -79 7 -44 6 -46 -47 -94 -62 -56 -84 -59 -64 -7 9 24 -15 29 -92
22 -60 -6 -72 -10 -109 -45 -22 -21 -55 -41 -72 -44 -37 -7 -97 -67 -89 -88 7
-18 -65 -86 -92 -86 -29 0 -80 -48 -98 -92 -10 -25 -31 -49 -62 -70 -25 -18
-52 -40 -60 -51 -9 -13 -20 -17 -37 -13 -14 4 -24 2 -24 -4 0 -5 13 -10 29
-10 21 0 30 -6 35 -22 11 -41 6 -102 -10 -133 -14 -28 -14 -34 2 -82 16 -46
16 -58 5 -95 -18 -61 -24 -122 -16 -175 6 -41 9 -45 32 -40 33 6 41 -18 16
-46 -11 -12 -35 -53 -53 -90 -25 -55 -35 -67 -48 -61 -27 12 -90 6 -129 -12
-38 -19 -97 -71 -105 -93 -8 -26 -55 -3 -85 42 l-29 42 -64 0 c-97 0 -107 -6
-156 -111 -24 -51 -44 -97 -44 -102 0 -13 -62 -50 -91 -54 -20 -3 -23 2 -25
34 -2 24 6 53 22 83 13 25 24 57 24 71 0 13 -18 60 -40 104 -51 102 -53 147
-9 198 28 32 31 40 25 80 -3 25 -6 52 -6 62 0 9 -10 21 -21 26 -14 7 -32 37
-53 89 -27 71 -34 80 -58 83 -24 3 -28 0 -28 -23 0 -14 7 -42 15 -62 19 -45
19 -87 1 -102 -20 -17 -46 -103 -46 -154 0 -35 6 -50 29 -75 16 -17 34 -48 40
-69 15 -54 13 -134 -4 -157 -8 -11 -15 -38 -15 -60 0 -23 -3 -51 -6 -63 -6
-21 -7 -22 -33 -5 -34 22 -49 41 -56 74 -4 14 -18 34 -32 44 -24 15 -28 15
-52 1 -15 -9 -45 -17 -66 -19 -33 -2 -42 1 -49 18 -9 19 -11 17 -33 -25 -33
-67 -31 -87 17 -111 33 -17 70 -62 70 -85 0 -3 -14 -12 -31 -19 -28 -12 -38
-10 -110 21 -78 34 -79 34 -115 17 -45 -21 -75 -61 -90 -120 -12 -49 -12 -49
49 -68 12 -4 17 -16 17 -38 0 -41 -31 -84 -54 -75 -15 6 -60 -12 -136 -54 -40
-22 -70 -24 -120 -8 -19 6 -78 12 -130 15 l-95 4 -63 -52 c-73 -59 -98 -98
-82 -128 23 -43 92 -53 138 -20 15 11 41 22 58 26 73 14 40 -79 -64 -181 -37
-36 -70 -65 -74 -65 -4 0 -20 -19 -34 -42 -14 -24 -46 -63 -69 -88 -35 -36
-47 -60 -65 -122 -19 -72 -20 -80 -5 -108 19 -36 51 -39 116 -11 24 10 69 22
99 25 30 4 73 18 95 30 42 25 90 25 130 1 11 -7 42 -13 70 -14 33 -1 56 -8 70
-20 11 -10 49 -33 84 -51 73 -36 122 -40 172 -14 26 13 47 15 101 10 60 -5 70
-4 88 14 11 11 20 24 20 30 0 5 11 17 24 25 26 17 158 22 248 9 39 -5 51 -3
74 15 34 27 42 26 97 -4 40 -23 48 -24 73 -13 16 7 49 32 73 56 24 24 79 61
123 83 44 22 99 58 123 80 33 31 50 40 72 37 23 -2 29 -8 31 -35 2 -18 -1 -33
-6 -33 -5 0 -34 -33 -65 -72 -30 -40 -96 -110 -146 -156 -50 -46 -107 -108
-127 -138 -20 -30 -40 -54 -45 -54 -4 0 -12 -15 -17 -32 -5 -18 -21 -50 -35
-71 -14 -21 -33 -58 -43 -82 -33 -87 6 -154 74 -126 32 13 55 6 111 -34 36
-26 73 -31 114 -16 20 8 23 15 19 40 -5 36 -17 48 -86 81 -41 20 -52 31 -57
55 -8 43 8 81 40 95 37 15 72 0 106 -44 39 -52 61 -55 96 -14 16 18 37 45 46
61 15 24 23 27 72 27 l54 0 -21 23 c-12 13 -22 28 -22 34 0 5 -9 18 -20 28
-19 17 -19 18 29 56 55 44 61 55 61 108 0 54 55 141 99 156 32 10 53 30 95 90
10 15 37 35 61 45 23 10 57 31 76 48 19 16 54 42 78 57 25 15 54 36 65 46 11
11 34 19 54 19 22 0 45 9 64 25 54 46 81 25 53 -41 -20 -49 -14 -129 22 -264
47 -181 82 -236 262 -413 164 -161 234 -201 351 -203 84 -1 166 -16 183 -33 6
-6 32 -11 57 -11 25 0 59 -4 75 -8 17 -5 41 -6 55 -2 14 3 39 0 57 -7 18 -7
58 -13 90 -13 51 0 73 7 174 58 145 73 265 164 289 221 6 14 29 38 51 54 49
34 94 102 114 176 9 31 25 78 37 106 26 63 36 227 19 315 -19 94 -57 200 -111
307 l-50 98 21 18 c12 9 32 17 44 17 33 0 249 -47 320 -70 33 -10 88 -26 123
-35 66 -17 343 -152 377 -184 11 -10 49 -38 84 -62 76 -51 297 -269 326 -321
66 -121 79 -146 92 -192 8 -28 26 -73 40 -99 15 -31 26 -74 30 -118 5 -55 10
-72 26 -80 15 -9 24 -6 46 15 36 34 67 34 85 -2 19 -36 36 -132 36 -199 0 -49
29 -139 50 -153 14 -10 40 -69 40 -93 0 -29 -52 -109 -103 -159 -45 -43 -46
-71 -4 -76 30 -4 47 -32 47 -80 0 -38 81 -125 112 -120 27 4 68 70 68 111 0
17 7 30 18 34 9 4 31 15 48 25 l31 18 -9 58 c-10 56 4 207 21 242 4 8 24 23
44 33 74 37 161 -2 185 -84 7 -24 28 -62 48 -84 19 -22 37 -48 40 -57 8 -27
53 -22 80 7 28 30 60 32 94 5 25 -20 80 -27 80 -11 0 5 19 28 43 51 35 35 47
59 73 139 l31 96 -32 36 c-18 20 -38 53 -44 72 -10 29 -27 46 -87 84 -72 45
-75 49 -72 82 3 29 10 39 48 61 80 46 82 138 5 214 l-45 44 0 75 c0 79 -6 91
-52 102 -39 10 -65 44 -78 100 -14 61 -48 123 -72 131 -10 3 -18 10 -18 15 0
18 -63 174 -81 199 -11 16 -33 28 -65 35 -47 10 -48 11 -52 50 -3 43 -30 75
-63 75 -31 0 -128 44 -209 94 -41 25 -82 46 -92 46 -10 0 -26 7 -37 16 -10 9
-52 29 -92 46 -41 16 -92 37 -114 48 -22 10 -55 21 -74 25 -19 4 -54 18 -79
31 -32 17 -61 24 -102 24 -36 0 -74 7 -101 20 -26 12 -66 20 -99 20 -30 0 -74
7 -98 15 -23 8 -81 21 -127 29 -47 7 -91 18 -99 25 -26 22 -125 40 -248 47
-68 3 -145 12 -173 19 -35 9 -98 12 -215 9 -164 -4 -234 3 -288 32 -14 7 -37
10 -52 7 -19 -3 -41 4 -76 25 -59 36 -127 56 -163 47 -14 -3 -40 -20 -58 -37
-31 -30 -31 -30 -43 -9 -9 18 -19 22 -48 19 -31 -3 -40 -9 -53 -38 -18 -38
-59 -54 -107 -41 -36 10 -36 48 0 118 15 30 28 63 28 74 0 17 -71 96 -123 136
-14 12 -13 17 11 53 25 40 60 59 82 45 5 -3 8 -10 5 -15 -6 -9 18 -20 45 -20
21 0 81 32 122 65 14 12 44 25 66 29 28 4 47 15 61 34 37 48 40 51 78 57 59 9
86 29 118 86 24 42 38 56 65 64 46 13 82 39 78 56 -2 8 7 15 20 17 19 3 22 -1
22 -27 0 -16 -6 -33 -12 -38 -9 -5 -1 -10 22 -13 l35 -5 -3 -61 c-3 -72 10
-90 61 -80 24 4 43 20 75 61 36 45 49 55 74 55 17 0 65 16 108 35 65 29 89 35
149 35 52 0 81 5 108 20 21 11 56 20 78 20 82 0 173 33 181 66 3 13 20 32 38
43 28 18 46 19 186 16 197 -4 304 8 384 46 52 25 69 28 111 23 28 -4 62 -13
77 -20 15 -8 52 -14 83 -14 42 0 67 -6 99 -25 37 -21 54 -25 112 -23 38 1 116
1 173 -1 81 -3 107 -1 115 10 6 8 27 26 47 41 34 25 41 26 161 27 l127 1 30
-31 30 -30 118 0 c65 0 138 -1 163 -4 25 -2 50 -4 56 -4 6 -1 28 -13 49 -27
24 -16 47 -24 62 -21 35 7 43 -51 14 -110 -11 -24 -21 -50 -21 -57 0 -8 -16
-23 -35 -35 -19 -11 -35 -24 -35 -28 0 -4 16 -19 35 -31 29 -21 42 -23 87 -18
94 12 123 9 176 -18 52 -26 52 -27 52 -74 0 -39 5 -52 28 -73 15 -15 34 -36
42 -47 11 -15 37 -26 88 -36 40 -9 97 -28 125 -43 l53 -29 33 20 c30 17 39 18
90 8 32 -7 73 -12 92 -12 19 0 43 -7 53 -15 17 -13 22 -11 53 15 47 42 104 42
143 0 l28 -30 7 27 c12 51 20 197 20 393 0 189 -1 196 -24 226 -29 40 -40 114
-18 132 12 10 21 5 51 -28 20 -22 36 -47 36 -55 0 -48 81 -71 141 -39 26 13
30 19 24 42 -7 29 -21 40 -70 58 -23 8 -31 18 -33 42 -4 42 33 62 80 44 18 -6
38 -8 51 -2 37 14 95 83 106 125 6 22 20 46 31 53 16 10 20 23 20 66 0 30 -5
58 -11 62 -6 3 -9 14 -6 24 3 11 -2 21 -10 24 -16 7 -68 -43 -78 -75 -4 -10
-23 -31 -43 -44 l-37 -26 -23 27 c-21 24 -23 34 -18 78 20 175 20 172 -5 195
-19 17 -20 21 -6 21 9 0 17 -5 17 -11 0 -7 21 -9 63 -5 85 7 100 10 115 19 7
5 12 3 12 -7 0 -8 12 -18 27 -23 24 -8 26 -14 28 -61 2 -58 24 -92 60 -92 28
0 45 18 45 49 0 19 3 22 12 13 7 -7 20 -12 30 -12 25 0 33 -43 18 -99 -6 -25
-14 -64 -17 -87 -4 -35 -1 -44 21 -61 21 -17 23 -23 12 -32 -9 -8 -16 -45 -20
-109 -3 -53 -7 -110 -8 -127 -2 -24 1 -31 17 -33 15 -2 28 10 50 48 16 27 37
53 47 56 23 7 34 28 43 84 12 78 14 81 48 78 32 -3 32 -3 31 -58 0 -30 -4 -76
-9 -102 -7 -41 -4 -52 20 -94 l28 -47 13 24 c7 13 13 43 14 66 0 23 9 68 21
98 13 34 22 85 23 128 4 119 77 223 84 120 2 -22 -4 -58 -13 -80 -10 -23 -20
-92 -26 -177 -5 -87 -15 -150 -24 -169 -25 -50 -45 -153 -45 -229 0 -39 -7
-94 -14 -122 -29 -99 -46 -379 -30 -486 4 -31 1 -37 -26 -52 -34 -19 -37 -41
-15 -95 23 -55 19 -104 -15 -168 -35 -67 -39 -145 -12 -208 l17 -38 27 28 c22
23 28 43 37 115 5 48 17 101 26 117 8 17 15 38 15 48 0 10 14 47 32 83 28 58
32 78 38 185 5 86 13 134 27 170 11 28 24 74 28 104 4 30 14 70 22 90 8 19 15
60 14 91 0 30 4 73 10 94 6 21 12 71 13 111 l2 72 82 90 c87 95 106 129 117
208 6 41 17 60 56 103 28 31 54 71 61 95 6 23 24 56 38 73 15 17 32 51 38 76
12 47 29 67 77 89 20 9 39 32 55 64 14 28 33 62 43 75 9 13 17 33 17 44 0 18
1 18 18 3 24 -22 24 -22 79 16 27 19 55 37 64 40 11 4 19 23 24 57 7 48 9 51
31 46 69 -18 74 -22 74 -76 0 -34 4 -49 11 -45 6 4 9 22 7 41 -2 31 2 37 37
59 23 14 56 25 76 25 l37 0 6 703 c4 386 6 2093 4 3792 l-3 3090 -6080 0
c-3344 0 -6773 -2 -7620 -5z m165 -63 c-27 -15 -36 -14 -25 2 3 6 16 11 28 11
21 0 21 -1 -3 -13z m-592 -54 c-15 -19 -38 -16 -38 5 0 27 9 32 31 19 13 -8
15 -15 7 -24z m542 -3 c-26 -20 -40 -18 -40 5 0 7 12 15 28 17 38 5 41 0 12
-22z m661 -146 c33 -34 33 -36 15 -50 -26 -19 -55 -18 -78 3 -21 18 -24 53 -6
71 19 19 32 15 69 -24z m547 -185 c-2 -6 -8 -10 -13 -10 -5 0 -11 4 -13 10 -2
6 4 11 13 11 9 0 15 -5 13 -11z m1222 -220 c0 -20 -4 -29 -12 -27 -15 5 -22
33 -14 54 9 24 26 6 26 -27z m384 -215 c9 -24 7 -82 -4 -89 -9 -6 -31 30 -44
72 -6 20 -1 25 35 32 4 0 10 -6 13 -15z m6 -184 c0 -35 -13 -45 -41 -30 l-21
12 21 14 c12 9 21 22 21 30 0 8 5 12 10 9 6 -3 10 -19 10 -35z m3950 -402 c0
-12 -4 -17 -12 -12 -35 19 -48 39 -48 72 l0 35 30 -38 c17 -21 30 -46 30 -57z
m-2172 16 c35 -10 26 -29 -27 -54 l-50 -23 -35 31 -35 31 27 10 c31 11 87 13
120 5z m2072 -164 c0 -5 -11 -10 -25 -10 -14 0 -25 5 -25 10 0 6 11 10 25 10
14 0 25 -4 25 -10z m-1275 -51 c4 -6 5 -13 2 -16 -8 -7 -47 7 -47 18 0 13 37
11 45 -2z m1235 -68 c0 -36 -6 -40 -45 -30 -16 3 -24 7 -17 8 6 0 12 8 12 16
0 13 25 34 43 35 4 0 7 -13 7 -29z m1557 -773 c-3 -8 -6 -5 -6 6 -1 11 2 17 5
13 3 -3 4 -12 1 -19z m-56 -24 c27 5 52 7 56 3 12 -13 -75 -87 -101 -87 -43 0
-56 10 -56 44 0 40 6 47 32 37 11 -4 42 -3 69 3z m59 -205 c0 -11 -4 -18 -10
-14 -5 3 -7 12 -3 20 7 21 13 19 13 -6z m-56 -47 c9 -15 -8 -59 -34 -89 -14
-15 -31 -41 -38 -56 -22 -51 -130 -77 -152 -37 -12 23 -4 107 12 128 17 21 60
14 90 -15 24 -23 30 -25 38 -13 5 8 10 29 10 46 0 17 3 34 7 37 9 10 61 9 67
-1z m201 -398 c50 -55 46 -78 -19 -122 -74 -50 -83 -49 -115 19 -16 33 -25 62
-21 64 4 3 11 17 15 32 17 72 78 75 140 7z m-98 -264 c11 -22 10 -27 -8 -42
-24 -21 -71 -23 -118 -7 -39 14 -36 27 15 57 50 29 94 26 111 -8z m10 -280 c5
-25 -13 -45 -29 -33 -7 5 -35 16 -62 23 l-50 14 40 11 c46 13 98 5 101 -15z
m100 -26 c8 -21 -13 -42 -28 -27 -13 13 -5 43 11 43 6 0 13 -7 17 -16z m193
-258 c0 -2 -3 -11 -6 -20 -9 -23 -24 -20 -24 4 0 11 7 20 15 20 8 0 15 -2 15
-4z m625 -79 c27 -22 27 -23 8 -46 -13 -16 -33 -25 -63 -28 -40 -4 -48 -2 -73
25 l-29 30 21 21 c30 30 101 29 136 -2z m121 -313 c21 -49 15 -143 -9 -158
-15 -9 -22 -7 -38 13 -25 30 -27 141 -3 165 23 24 33 20 50 -20z m555 -629
c44 -45 44 -45 99 -39 l55 5 18 -38 c12 -25 16 -49 12 -65 -6 -23 -3 -27 28
-37 47 -16 57 -29 64 -92 4 -36 12 -58 25 -67 12 -9 18 -23 16 -40 -5 -42 -25
-37 -33 7 -8 48 -24 52 -59 15 -23 -26 -24 -26 -30 -6 -10 30 -37 32 -67 5
l-26 -24 -61 58 c-46 45 -64 70 -77 113 -10 30 -26 67 -36 82 -22 30 -27 136
-7 156 20 20 32 14 79 -33z m509 -420 c-10 -25 -56 -24 -75 2 -11 15 -11 19 3
27 9 5 19 12 22 16 23 32 65 -6 50 -45z m365 -816 c-8 -12 -32 -12 -40 1 -11
18 5 31 26 20 11 -6 17 -15 14 -21z m169 -400 c3 -17 6 -51 6 -74 0 -23 -3
-57 -6 -74 -6 -26 -11 -31 -35 -31 -38 0 -53 35 -45 110 4 45 10 59 33 77 36
30 39 29 47 -8z m894 -612 c12 -14 6 -50 -13 -82 -26 -42 -27 -76 -4 -101 12
-13 18 -24 13 -25 -72 -4 -94 -8 -119 -20 -17 -9 -29 -22 -27 -30 17 -70 4
-149 -23 -149 -21 0 -55 50 -55 81 0 18 7 32 20 39 11 6 20 20 20 30 0 11 -9
25 -20 32 -17 11 -20 24 -20 93 0 90 8 105 55 105 16 0 44 9 60 19 35 23 98
27 113 8z m-1441 -69 c-3 -8 -6 -5 -6 6 -1 11 2 17 5 13 3 -3 4 -12 1 -19z
m993 -282 c0 -3 -4 -8 -10 -11 -5 -3 -10 -1 -10 4 0 6 5 11 10 11 6 0 10 -2
10 -4z m630 -311 c0 -47 -14 -60 -25 -24 -8 25 2 69 15 69 6 0 10 -20 10 -45z
m304 -131 c9 -8 17 -22 17 -30 3 -27 4 -32 12 -40 15 -15 6 -41 -22 -68 -34
-32 -51 -27 -51 13 0 16 -6 34 -14 40 -14 12 -29 78 -20 93 9 14 62 9 78 -8z
m-883 -161 c7 -18 6 -44 -2 -82 l-12 -56 -13 30 c-7 17 -13 35 -14 41 0 6 -7
17 -15 24 -8 7 -15 24 -15 39 0 22 5 26 30 28 25 2 33 -3 41 -24z m-965 -107
c-3 -16 -12 -36 -18 -44 -10 -12 -15 -11 -30 8 -23 28 -23 68 -1 93 17 18 18
18 36 -4 13 -16 17 -32 13 -53z m-4143 27 c-7 -2 -21 -2 -30 0 -10 3 -4 5 12
5 17 0 24 -2 18 -5z m385 -55 c-11 -62 -22 -75 -65 -84 -28 -6 -33 -3 -38 19
-11 44 45 116 91 117 20 0 21 -3 12 -52z m2607 -48 c0 -19 -41 -25 -61 -9 -12
10 -12 14 -2 21 20 13 63 5 63 -12z m-3470 -63 c0 -36 -3 -40 -39 -52 -21 -8
-42 -17 -45 -22 -3 -4 -25 -21 -49 -36 -23 -15 -47 -40 -53 -55 -5 -15 -26
-43 -45 -62 -50 -49 -161 -186 -179 -219 -7 -15 -19 -49 -26 -75 -12 -50 -52
-83 -79 -66 -11 7 -11 17 3 60 9 29 17 65 17 81 0 30 23 81 94 214 31 58 55
88 85 110 24 17 65 51 93 77 52 50 145 90 198 85 22 -2 25 -7 25 -40z m1944
-76 c23 -15 -15 -61 -50 -61 -31 0 -37 16 -19 51 11 20 45 25 69 10z m-669
-85 c0 -7 -7 -20 -16 -27 -9 -7 -20 -23 -25 -35 -5 -14 -18 -24 -36 -26 -29
-4 -73 10 -73 22 0 8 36 40 70 63 31 20 80 22 80 3z m3475 -19 c0 -26 -20 -25
-23 2 -3 16 1 22 10 19 7 -3 13 -12 13 -21z m-4589 -112 c24 -58 16 -206 -15
-253 -7 -12 -14 -11 -40 2 -43 23 -50 59 -18 91 25 26 37 63 37 119 0 33 10
76 17 76 2 0 11 -16 19 -35z m562 -136 c-10 -5 -18 -18 -18 -28 0 -9 -6 -26
-14 -36 -13 -18 -14 -18 -25 3 -6 12 -9 33 -5 47 5 21 12 25 43 25 29 -1 33
-3 19 -11z m4712 -98 c0 -11 2 -25 5 -33 3 -7 0 -22 -8 -31 -12 -17 -14 -17
-36 2 l-23 20 23 30 c26 36 39 39 39 12z m-4921 -76 c23 -12 51 -61 39 -69 -2
-2 -24 -12 -50 -24 -64 -29 -70 -55 -29 -121 17 -28 27 -52 23 -55 -13 -8 -57
-9 -89 -1 -28 6 -34 13 -39 44 -4 20 -15 50 -25 67 -29 48 -24 62 26 84 26 11
50 30 56 44 9 19 36 41 57 45 2 1 16 -6 31 -14z m-398 -52 c34 -43 39 -60 21
-75 -31 -27 -41 -29 -72 -13 -38 20 -66 71 -49 91 17 20 83 18 100 -3z m-296
-153 c25 -10 26 -13 19 -53 -4 -23 -8 -55 -8 -72 -1 -29 -3 -30 -49 -33 -44
-3 -49 -6 -59 -33 -11 -33 -41 -49 -91 -49 -18 0 -43 -7 -56 -16 -21 -15 -24
-15 -52 12 -16 15 -29 33 -29 39 0 6 14 27 30 47 26 32 35 36 63 32 17 -3 44
-1 60 5 23 9 27 16 27 51 0 53 27 80 79 80 22 0 52 -5 66 -10z m95 -38 c22
-18 22 -19 5 -45 -9 -15 -23 -27 -31 -27 -17 0 -34 32 -34 64 0 32 27 35 60 8z
m-430 -128 c0 -19 -29 -18 -36 1 -4 8 -3 27 1 42 l6 26 15 -28 c8 -15 14 -34
14 -41z m625 16 c4 -6 2 -17 -5 -25 -10 -12 -14 -11 -29 3 -10 9 -16 20 -14
25 6 11 41 9 48 -3z m1199 -856 c126 -41 133 -49 173 -217 30 -127 30 -190 2
-218 -19 -19 -27 -20 -68 -13 -25 5 -115 9 -199 9 l-154 0 -29 33 c-34 38 -35
46 -9 72 20 20 20 20 -3 25 -12 3 -161 7 -330 9 -229 3 -312 7 -320 16 -9 10
-9 14 1 17 7 3 29 19 50 37 57 47 253 133 427 185 138 42 194 51 268 44 40 -3
71 -1 83 5 26 16 48 15 108 -4z m-357 -662 c30 -36 42 -112 27 -170 l-7 -23
-23 22 c-19 18 -30 20 -66 15 -108 -16 -127 -17 -147 -7 -34 19 -27 59 21 115
47 54 110 88 148 79 14 -3 35 -17 47 -31z m2992 20 c40 -20 60 -68 37 -90 -11
-12 -21 -12 -50 -2 -28 9 -37 19 -45 46 -11 39 -5 64 13 64 6 -1 26 -9 45 -18z
m-499 -917 c-9 -11 -17 -12 -31 -4 -22 11 -24 30 -7 47 18 18 54 -23 38 -43z"/>
<path d="M12448 30693 c-27 -7 -22 -23 7 -23 16 0 25 6 25 15 0 15 -2 16 -32
8z"/>
<path d="M13837 30663 c-3 -16 -1 -32 4 -37 5 -6 9 -2 9 11 0 12 3 28 6 37 3
9 2 16 -4 16 -5 0 -12 -12 -15 -27z"/>
<path d="M13440 30526 c-5 -13 -17 -26 -27 -29 -10 -3 -5 -5 13 -6 31 -1 44
12 44 45 0 23 -20 16 -30 -10z"/>
<path d="M13548 30543 c7 -3 16 -2 19 1 4 3 -2 6 -13 5 -11 0 -14 -3 -6 -6z"/>
<path d="M13215 30455 l-40 -13 58 -1 c60 -1 68 2 40 17 -12 6 -33 5 -58 -3z"/>
<path d="M12103 30372 c-18 -11 -62 -80 -55 -86 10 -11 88 -6 100 6 7 7 12 24
12 38 0 40 -28 61 -57 42z"/>
<path d="M11181 29819 c-24 -61 -24 -107 0 -136 35 -41 52 15 36 117 l-12 80
-24 -61z"/>
<path d="M11561 29781 c-17 -31 -13 -64 12 -95 19 -23 29 -28 50 -22 40 10 44
42 10 90 -33 47 -57 56 -72 27z"/>
<path d="M11368 29538 c-29 -97 -31 -211 -3 -252 16 -24 20 -47 20 -122 0 -94
5 -112 25 -99 8 5 9 29 5 80 -5 49 -3 80 5 95 8 15 11 72 11 172 -2 212 -23
254 -63 126z"/>
<path d="M20345 29380 c-11 -18 5 -30 40 -30 37 0 56 17 34 31 -19 12 -66 11
-74 -1z"/>
<path d="M20258 29313 c12 -2 30 -2 40 0 9 3 -1 5 -23 4 -22 0 -30 -2 -17 -4z"/>
<path d="M17550 29220 c0 -5 6 -10 14 -10 8 0 18 5 21 10 3 6 -3 10 -14 10
-12 0 -21 -4 -21 -10z"/>
<path d="M19611 29052 c0 -8 -10 -27 -22 -43 -17 -24 -18 -33 -9 -44 15 -18
36 -19 43 -2 2 6 1 32 -3 57 -4 25 -8 39 -9 32z"/>
<path d="M11537 29003 c-14 -13 -6 -103 13 -165 28 -86 36 -200 17 -259 -16
-52 -11 -67 35 -111 32 -30 34 -44 13 -112 -8 -27 -15 -84 -15 -127 0 -67 3
-80 19 -89 28 -14 28 -14 44 33 25 67 28 121 13 194 -15 71 -10 167 15 278 9
43 8 57 -9 100 -11 28 -29 86 -41 130 -34 125 -40 135 -71 135 -14 0 -30 -3
-33 -7z"/>
<path d="M19556 28884 c-3 -9 -8 -46 -11 -82 -6 -73 0 -89 48 -110 25 -11 28
-10 37 12 7 19 3 39 -15 83 -13 32 -26 70 -30 86 -6 30 -20 35 -29 11z"/>
<path d="M20830 28850 c-8 -5 -32 -10 -52 -10 -29 0 -45 -7 -68 -31 -16 -18
-30 -43 -30 -55 0 -29 16 -32 25 -5 6 21 80 39 111 27 18 -7 74 46 74 70 0 16
-38 19 -60 4z"/>
<path d="M20635 28690 c-3 -5 -1 -10 4 -10 6 0 11 5 11 10 0 6 -2 10 -4 10 -3
0 -8 -4 -11 -10z"/>
<path d="M20261 28616 c-17 -30 -7 -46 27 -46 44 0 58 14 44 44 -15 34 -54 35
-71 2z"/>
<path d="M19830 28598 c-25 -10 -25 -10 13 -26 20 -9 37 -22 37 -28 0 -6 7
-17 16 -24 12 -11 18 -11 30 2 13 13 12 16 -11 28 -13 7 -27 21 -30 31 -8 23
-25 28 -55 17z"/>
<path d="M11341 28547 c-14 -36 -14 -103 0 -129 l11 -20 15 21 c19 28 19 91 0
127 l-15 29 -11 -28z"/>
<path d="M11485 28542 c-19 -13 -35 -52 -34 -79 0 -16 3 -22 6 -15 2 6 13 12
23 12 25 0 58 69 39 81 -17 11 -21 11 -34 1z"/>
<path d="M21638 28472 c-26 -11 -68 -73 -68 -101 0 -26 45 -81 67 -81 18 0 33
-34 33 -77 0 -50 19 -76 51 -71 29 4 35 29 20 86 -8 26 -19 43 -37 51 -26 12
-26 12 -20 89 9 105 1 123 -46 104z"/>
<path d="M10556 27164 c-18 -47 6 -80 47 -65 19 8 47 53 47 77 0 2 -20 4 -44
4 -31 0 -46 -5 -50 -16z"/>
<path d="M22183 26913 c-12 -2 -42 -22 -67 -44 -50 -44 -57 -72 -30 -114 13
-20 25 -25 59 -25 110 0 223 96 200 170 -6 18 -14 20 -73 19 -37 -1 -77 -4
-89 -6z"/>
<path d="M22937 26406 c-26 -26 -9 -65 41 -97 57 -36 86 -37 108 -3 16 24 16
27 -12 67 -27 38 -35 42 -76 45 -30 2 -51 -2 -61 -12z"/>
<path d="M23952 25333 c-9 -16 -8 -24 3 -33 14 -11 35 -6 35 9 0 4 -6 16 -14
26 -13 18 -14 18 -24 -2z"/>
<path d="M24331 24900 c-15 -25 -17 -39 -10 -62 8 -30 85 -138 98 -138 4 0 28
-13 54 -30 47 -30 47 -30 31 -55 -25 -38 -11 -83 41 -135 24 -24 47 -55 50
-70 3 -15 19 -42 35 -61 29 -33 30 -34 45 -14 41 53 38 136 -5 150 -15 5 -33
31 -56 81 -26 58 -43 81 -78 105 -31 22 -46 41 -50 62 -4 18 -15 50 -25 72
-11 22 -26 57 -35 78 -8 20 -22 37 -30 37 -8 0 -21 3 -30 6 -10 4 -22 -5 -35
-26z"/>
<path d="M10152 24781 c-19 -11 -5 -61 17 -61 37 0 57 52 25 64 -20 8 -26 7
-42 -3z"/>
<path d="M10856 24253 c-12 -12 -5 -23 14 -23 11 0 20 4 20 9 0 11 -26 22 -34
14z"/>
<path d="M11560 24205 c-18 -22 23 -65 62 -65 41 0 40 43 -2 65 -36 19 -44 19
-60 0z"/>
<path d="M19317 22760 c-49 -31 -56 -47 -35 -80 16 -26 0 -54 -33 -58 -44 -5
-75 -23 -92 -52 -11 -18 -27 -30 -45 -32 -20 -2 -31 -13 -45 -41 -20 -43 -40
-55 -62 -37 -16 14 -11 62 11 98 14 21 13 22 -11 22 -15 0 -51 -12 -80 -26
-57 -28 -66 -42 -81 -126 -11 -63 -35 -46 -55 37 -11 48 -18 61 -35 63 -16 2
-25 -5 -34 -29 -13 -29 -12 -33 8 -50 12 -9 27 -19 34 -21 10 -4 14 -21 17
-66 1 -9 6 -10 20 -2 30 16 81 12 88 -6 3 -9 0 -61 -7 -116 -14 -113 -28 -130
-67 -82 -12 16 -23 35 -23 42 0 7 -12 12 -29 12 -26 0 -30 -5 -40 -47 -31
-124 -30 -123 -56 -123 -29 0 -33 -24 -10 -57 10 -15 16 -53 18 -127 1 -58 6
-108 9 -111 3 -4 18 1 31 10 30 20 44 93 28 150 -14 50 -6 63 53 89 59 26 71
39 81 84 5 24 10 31 18 23 16 -16 44 4 50 36 8 40 27 60 65 68 32 6 32 6 32
-31 0 -44 -41 -104 -71 -104 -23 0 -39 -34 -47 -98 l-5 -44 58 5 c73 5 80 16
71 114 -5 68 -4 73 14 73 14 0 22 11 31 43 6 23 13 47 15 54 1 7 19 15 38 18
51 10 69 34 55 74 -9 25 -9 38 1 56 7 13 10 31 7 39 -9 22 21 69 54 88 17 10
29 28 34 49 14 70 14 70 51 63 28 -5 34 -3 34 12 0 9 -7 26 -17 36 -15 17 -15
21 7 67 20 44 21 71 1 71 -4 0 -28 -13 -54 -30z m-219 -493 c4 -20 -25 -34
-40 -19 -15 15 -1 44 19 40 10 -2 19 -11 21 -21z"/>
<path d="M26256 22195 c-3 -8 -1 -15 4 -15 6 0 10 7 10 15 0 8 -2 15 -4 15 -2
0 -6 -7 -10 -15z"/>
<path d="M19171 22034 c0 -11 3 -14 6 -6 3 7 2 16 -1 19 -3 4 -6 -2 -5 -13z"/>
<path d="M14811 21896 c-11 -13 -11 -20 -3 -28 15 -15 24 -5 20 23 -3 21 -4
21 -17 5z"/>
<path d="M18132 21809 c-18 -28 -6 -79 17 -79 27 0 30 8 19 48 -13 49 -21 56
-36 31z"/>
<path d="M14766 21804 c-8 -20 0 -32 14 -18 5 5 5 15 1 22 -6 11 -10 10 -15
-4z"/>
<path d="M24972 21684 c-27 -42 -28 -68 -2 -94 18 -18 23 -19 52 -7 56 23 56
76 0 115 l-28 20 -22 -34z"/>
<path d="M17683 21404 c-9 -4 -9 -11 -1 -30 14 -29 25 -31 33 -4 10 31 -3 45
-32 34z"/>
<path d="M15154 21296 c-8 -22 3 -33 18 -18 9 9 9 15 0 24 -9 9 -13 7 -18 -6z"/>
<path d="M17671 21166 l-33 -12 37 -11 c41 -13 80 -2 72 20 -5 17 -36 18 -76
3z"/>
<path d="M26288 20958 c-26 -51 -28 -117 -5 -170 18 -42 37 -48 66 -19 22 22
37 115 26 152 -10 31 -44 79 -55 79 -5 0 -19 -19 -32 -42z"/>
<path d="M7873 20490 l0 -80 42 -20 c50 -24 73 -25 103 -4 33 23 24 45 -23 58
-33 10 -42 18 -54 51 -16 40 -44 75 -60 75 -5 0 -9 -36 -8 -80z"/>
<path d="M12688 20342 c-44 -17 -69 -67 -38 -75 36 -9 71 5 86 35 13 26 14 33
2 43 -10 10 -21 9 -50 -3z"/>
<path d="M7565 19968 c-2 -7 -9 -40 -14 -73 -9 -52 -7 -72 13 -150 21 -83 25
-90 46 -87 13 1 25 3 26 5 1 1 -1 69 -5 150 -6 111 -11 151 -22 158 -20 12
-39 11 -44 -3z"/>
<path d="M7618 19166 c-17 -12 -17 -14 2 -31 20 -18 20 -17 20 13 0 36 1 36
-22 18z"/>
<path d="M10487 18845 c-20 -20 -27 -35 -27 -64 0 -26 -9 -51 -30 -79 l-29
-41 54 -6 c70 -9 79 -5 93 42 15 50 52 84 99 92 51 8 48 23 -9 41 -26 8 -53
21 -60 28 -20 20 -61 14 -91 -13z"/>
<path d="M10300 18685 c-16 -19 -4 -35 25 -35 13 0 27 5 30 10 8 13 -13 40
-30 40 -7 0 -18 -7 -25 -15z"/>
<path d="M10735 18661 c-11 -5 -28 -18 -38 -29 -19 -20 -18 -21 22 -32 47 -12
87 1 77 27 -3 8 -6 21 -6 29 0 15 -24 17 -55 5z"/>
<path d="M10898 18663 c6 -2 18 -2 25 0 6 3 1 5 -13 5 -14 0 -19 -2 -12 -5z"/>
<path d="M25531 16374 c0 -11 3 -14 6 -6 3 7 2 16 -1 19 -3 4 -6 -2 -5 -13z"/>
<path d="M8150 14805 c-9 -11 -10 -22 -3 -37 l10 -22 17 26 c25 39 4 67 -24
33z"/>
<path d="M13016 13812 c-4 -3 -53 -6 -109 -7 -89 -1 -108 -4 -141 -24 -20 -13
-52 -27 -69 -32 -18 -4 -66 -17 -107 -28 -41 -10 -88 -24 -103 -30 -35 -14
-97 -14 -131 -1 -16 6 -35 6 -50 0 -36 -13 -84 4 -140 50 -60 49 -86 52 -86
10 0 -36 31 -68 103 -105 26 -14 47 -31 47 -38 0 -6 23 -46 50 -86 28 -41 50
-78 50 -83 0 -4 19 -17 43 -29 23 -12 56 -34 72 -49 17 -16 56 -38 87 -50 32
-12 60 -26 64 -31 3 -5 29 -21 57 -35 29 -15 66 -36 82 -49 28 -21 45 -23 200
-29 94 -3 184 -10 200 -15 50 -15 168 -71 200 -96 17 -12 50 -32 75 -45 25
-13 59 -33 76 -46 17 -13 41 -24 52 -24 19 0 22 6 22 45 0 50 -16 89 -49 119
-17 15 -21 31 -21 76 0 49 4 60 30 85 24 23 27 31 19 47 -14 26 9 59 23 33 5
-8 7 -23 4 -33 -3 -12 6 -24 30 -39 20 -13 38 -23 42 -23 16 1 50 38 58 64 6
16 19 36 31 43 19 13 22 11 42 -21 l22 -34 73 5 c91 7 112 -3 121 -58 7 -41
71 -139 91 -139 14 0 74 -75 74 -94 0 -24 33 -74 57 -85 13 -6 23 -15 23 -21
0 -20 52 -32 82 -19 23 10 32 9 46 -4 9 -9 30 -21 46 -27 25 -9 32 -8 55 13
33 31 63 38 86 21 10 -8 33 -14 51 -14 18 0 56 -13 86 -28 30 -16 66 -32 80
-35 20 -5 33 -21 52 -62 29 -64 52 -74 136 -57 97 20 139 11 110 -23 -17 -21
-5 -32 53 -49 73 -21 104 -22 167 -3 125 38 190 51 280 57 87 5 102 9 173 48
43 23 89 42 103 42 14 0 34 5 45 11 26 13 55 -5 89 -55 14 -20 29 -36 33 -36
4 0 5 22 1 50 -8 57 5 80 43 80 65 0 88 -64 37 -105 -25 -20 -25 -21 -7 -37
18 -17 20 -16 46 10 40 40 92 104 105 129 7 12 31 29 55 38 40 15 50 15 126 1
87 -17 121 -30 121 -47 0 -14 39 -7 102 17 48 19 48 19 70 -4 22 -22 22 -22 3
-54 -10 -18 -26 -38 -34 -45 -14 -10 -14 -15 2 -47 9 -20 17 -42 17 -50 0 -13
41 -56 54 -56 5 0 21 -11 38 -25 34 -29 52 -31 103 -9 38 16 87 12 113 -9 7
-6 41 -12 74 -14 33 -2 69 -8 79 -14 13 -7 25 -6 40 1 15 9 30 7 65 -6 42 -16
49 -16 104 -1 39 11 98 17 172 17 133 0 167 8 218 52 21 18 57 45 79 61 23 15
46 39 51 53 14 36 70 103 92 110 26 8 17 15 -50 39 -49 17 -57 24 -60 47 -4
31 -34 44 -80 34 -23 -5 -34 2 -77 50 -48 53 -54 56 -113 63 -47 6 -74 16
-114 43 -73 50 -151 88 -181 88 -39 0 -77 17 -118 55 -37 33 -39 34 -108 28
-54 -4 -81 -2 -117 12 -29 11 -60 15 -84 12 -43 -6 -70 14 -70 51 0 29 -13 34
-48 17 -19 -10 -36 -30 -46 -56 -9 -22 -24 -42 -34 -45 -9 -3 -37 -15 -62 -26
-30 -14 -71 -22 -125 -24 -44 -2 -84 -4 -90 -4 -5 0 -21 -18 -34 -40 -29 -46
-67 -64 -118 -56 -126 20 -128 20 -164 -12 -28 -24 -38 -28 -59 -20 -14 5 -89
14 -168 20 -131 10 -145 9 -160 -7 -16 -16 -16 -18 6 -32 12 -9 22 -21 22 -28
0 -6 9 -20 20 -30 11 -10 20 -26 20 -37 0 -18 -29 -23 -115 -18 -17 0 -65 -15
-108 -35 l-79 -35 -30 25 c-16 14 -34 25 -39 25 -5 0 -31 14 -58 30 -27 17
-87 40 -132 51 -46 12 -93 29 -104 39 -41 37 -71 42 -133 18 -31 -11 -75 -23
-98 -25 -37 -4 -47 0 -100 43 -55 45 -63 48 -123 50 -53 2 -70 7 -100 32 -57
45 -59 45 -92 18 -48 -41 -65 -35 -85 29 -24 76 -64 123 -101 118 -20 -3 -40
4 -70 26 -24 17 -47 31 -52 31 -5 0 -28 25 -51 56 -48 61 -86 86 -119 77 -27
-7 -52 14 -86 73 -21 36 -39 50 -99 79 -40 19 -76 35 -80 35 -4 0 -26 20 -49
44 -43 44 -71 56 -202 87 -51 12 -429 22 -439 11z"/>
<path d="M14013 13073 c-47 -9 -41 -83 6 -83 36 0 62 49 41 75 -7 8 -15 14
-19 14 -3 -1 -16 -4 -28 -6z"/>
<path d="M18195 12907 c-25 -19 -10 -39 23 -31 38 9 42 13 35 29 -7 19 -33 19
-58 2z"/>
<path d="M18030 12814 c-11 -12 -11 -18 1 -30 12 -12 19 -12 42 -2 32 15 34
24 8 38 -27 14 -36 13 -51 -6z"/>
<path d="M16537 12773 c-4 -3 -7 -23 -7 -44 0 -31 4 -38 26 -43 18 -5 32 -2
45 9 17 16 17 19 2 51 -16 32 -48 46 -66 27z"/>
<path d="M10270 12395 c0 -10 10 -15 30 -15 20 0 30 5 30 15 0 10 -10 15 -30
15 -20 0 -30 -5 -30 -15z"/>
<path d="M23570 12162 c0 -10 5 -23 12 -30 9 -9 9 -18 0 -37 -15 -33 -15 -35
3 -35 8 0 29 13 46 28 l32 28 -41 32 c-46 37 -52 39 -52 14z"/>
<path d="M13239 11974 c-8 -9 -16 -46 -19 -81 -6 -72 -20 -83 -35 -26 -13 52
-66 116 -88 107 -42 -16 -8 -119 60 -181 44 -41 58 -59 85 -113 7 -14 23 -38
35 -53 13 -16 23 -38 23 -49 0 -11 5 -18 12 -16 8 3 11 26 9 68 -3 73 3 80 69
80 29 0 54 7 70 20 18 14 41 20 82 20 62 0 72 7 63 43 -4 16 -21 30 -54 44
-47 20 -49 20 -84 1 -20 -10 -42 -28 -48 -40 -11 -20 -14 -16 -36 53 -25 80
-58 123 -104 134 -18 4 -30 1 -40 -11z"/>
<path d="M23380 11935 c-16 -19 -4 -33 30 -37 21 -3 25 1 25 22 0 30 -35 40
-55 15z"/>
<path d="M12845 11755 c-16 -42 -16 -46 -1 -70 21 -32 30 -32 56 5 19 26 20
35 10 64 -9 28 -27 46 -45 46 -2 0 -11 -20 -20 -45z"/>
<path d="M11930 11730 c0 -18 4 -29 10 -25 6 3 10 15 10 25 0 10 -4 22 -10 25
-6 4 -10 -7 -10 -25z"/>
<path d="M23103 11752 c-34 -3 -38 -8 -27 -37 16 -41 84 -37 84 5 0 25 -20 36
-57 32z"/>
<path d="M12667 11661 c-3 -22 -2 -54 2 -73 l7 -33 18 28 c17 25 17 32 6 68
-18 54 -26 56 -33 10z"/>
<path d="M16531 11634 c0 -11 3 -14 6 -6 3 7 2 16 -1 19 -3 4 -6 -2 -5 -13z"/>
<path d="M11881 11487 c-20 -25 -41 -99 -41 -147 0 -92 72 -116 127 -43 21 27
24 38 16 52 -6 9 -17 43 -24 75 -10 45 -18 60 -36 67 -30 11 -28 12 -42 -4z"/>
<path d="M12711 11442 c-21 -39 -25 -108 -8 -132 18 -26 65 -52 78 -44 17 10
9 75 -16 122 -39 76 -41 78 -54 54z"/>
<path d="M23181 11324 c0 -11 3 -14 6 -6 3 7 2 16 -1 19 -3 4 -6 -2 -5 -13z"/>
<path d="M16522 11241 c-11 -7 -11 -9 2 -14 10 -4 16 -1 16 8 0 17 -1 17 -18
6z"/>
<path d="M23125 11190 c-3 -5 -1 -10 4 -10 6 0 11 5 11 10 0 6 -2 10 -4 10 -3
0 -8 -4 -11 -10z"/>
<path d="M16810 11181 c0 -6 5 -13 10 -16 6 -3 10 1 10 9 0 9 -4 16 -10 16 -5
0 -10 -4 -10 -9z"/>
<path d="M23028 11160 c-6 -37 4 -56 19 -38 12 14 6 68 -7 68 -4 0 -10 -13
-12 -30z"/>
<path d="M22873 11139 c-13 -13 -38 -23 -63 -25 -55 -5 -76 -18 -84 -50 -10
-40 6 -51 67 -46 39 3 56 0 65 -11 12 -14 18 -13 57 6 53 26 76 67 53 95 -8 9
-18 25 -21 35 -9 24 -48 22 -74 -4z"/>
<path d="M11892 11123 c4 -35 43 -45 53 -14 9 28 -1 41 -31 41 -22 0 -25 -4
-22 -27z"/>
<path d="M16615 11080 c3 -5 10 -10 16 -10 5 0 9 5 9 10 0 6 -7 10 -16 10 -8
0 -12 -4 -9 -10z"/>
<path d="M12850 11032 c0 -28 10 -52 22 -52 14 0 5 63 -9 68 -8 2 -13 -5 -13
-16z"/>
<path d="M18477 10991 c-5 -22 1 -33 14 -25 12 7 12 44 0 44 -5 0 -11 -9 -14
-19z"/>
<path d="M16770 10941 c0 -6 5 -13 10 -16 6 -3 10 1 10 9 0 9 -4 16 -10 16 -5
0 -10 -4 -10 -9z"/>
<path d="M16314 10902 c-15 -2 -23 -12 -26 -31 -6 -38 0 -51 23 -51 23 0 32
18 27 57 -2 22 -7 27 -24 25z"/>
<path d="M9833 10830 c0 -25 2 -35 4 -22 2 12 2 32 0 45 -2 12 -4 2 -4 -23z"/>
<path d="M16408 10467 c-17 -14 -28 -33 -28 -48 0 -33 5 -37 36 -31 31 6 49
41 40 76 -8 31 -13 32 -48 3z"/>
<path d="M13875 9930 c-17 -18 -16 -19 8 -25 43 -11 65 15 28 34 -14 8 -23 6
-36 -9z"/>
<path d="M19897 9244 c-14 -14 -7 -35 11 -32 9 2 17 10 17 17 0 16 -18 25 -28
15z"/>
</g>
</svg>
