<?xml version="1.0" standalone="no"?>
<!DOCTYPE svg PUBLIC "-//W3C//DTD SVG 20010904//EN"
 "http://www.w3.org/TR/2001/REC-SVG-20010904/DTD/svg10.dtd">
<svg version="1.0" xmlns="http://www.w3.org/2000/svg"
 width="3375.000000pt" height="3375.000000pt" viewBox="0 0 3375.000000 3375.000000"
 preserveAspectRatio="xMidYMid meet">

<g transform="translate(0.000000,3375.000000) scale(0.100000,-0.100000)"
fill="#000000" stroke="none">
<path d="M17600 29914 c-99 -12 -513 -44 -635 -49 -157 -6 -622 -49 -703 -65
-29 -5 -148 -16 -265 -25 -188 -13 -496 -47 -675 -76 -90 -14 -502 -117 -747
-188 -55 -15 -143 -40 -195 -55 -108 -31 -290 -84 -430 -126 -52 -15 -131 -36
-175 -47 -269 -66 -677 -180 -840 -235 -329 -111 -576 -198 -700 -245 -127
-49 -435 -202 -545 -271 -36 -23 -91 -57 -124 -77 -236 -144 -719 -569 -955
-840 -198 -228 -490 -632 -586 -812 -14 -26 -43 -75 -65 -108 -21 -33 -49 -78
-61 -100 -12 -22 -34 -58 -49 -80 -57 -85 -240 -390 -240 -401 0 -4 -15 -32
-34 -63 -18 -31 -62 -112 -98 -181 -35 -69 -80 -150 -99 -180 -68 -105 -121
-202 -190 -347 -38 -81 -117 -233 -174 -338 -58 -106 -105 -195 -105 -199 0
-8 -110 -261 -205 -471 -138 -304 -274 -623 -347 -813 -21 -57 -70 -165 -108
-240 -95 -190 -176 -362 -185 -392 -4 -14 -36 -75 -71 -136 -35 -61 -64 -115
-64 -120 0 -4 -29 -64 -64 -133 -35 -70 -67 -137 -71 -151 -11 -38 -86 -202
-105 -230 -10 -14 -39 -74 -65 -135 -111 -259 -177 -407 -277 -620 -47 -99
-91 -198 -98 -220 -24 -76 -62 -161 -165 -370 -57 -115 -118 -249 -134 -297
-17 -47 -47 -124 -67 -170 -106 -243 -148 -357 -199 -543 -62 -221 -103 -362
-130 -446 -15 -46 -42 -150 -60 -230 -18 -80 -49 -197 -69 -260 -19 -63 -44
-159 -56 -214 -11 -55 -42 -164 -70 -242 -27 -79 -54 -172 -60 -207 -5 -35
-24 -110 -40 -167 -17 -57 -35 -147 -40 -200 -5 -54 -18 -141 -29 -195 -11
-55 -25 -142 -31 -194 -6 -52 -15 -113 -20 -135 -13 -55 -12 -236 2 -590 11
-292 11 -304 -11 -448 -12 -82 -34 -185 -47 -230 -17 -56 -29 -134 -38 -247
-8 -95 -21 -184 -31 -210 -9 -25 -25 -85 -35 -135 -10 -49 -41 -178 -68 -285
-27 -107 -57 -229 -67 -270 -9 -41 -35 -122 -57 -180 -114 -298 -181 -499
-230 -685 -102 -389 -104 -396 -204 -685 -25 -74 -55 -166 -66 -204 -10 -39
-26 -81 -33 -95 -8 -14 -38 -96 -66 -181 -61 -187 -87 -247 -235 -547 -91
-184 -119 -233 -135 -233 -19 0 -19 -66 -19 -5115 l0 -5115 2538 0 2538 0 18
93 c10 50 30 121 44 157 14 36 28 97 32 135 5 59 15 88 67 190 34 66 64 134
68 151 4 20 20 42 47 62 39 30 168 179 168 194 0 3 8 4 18 1 20 -5 82 56 82
81 0 22 -35 46 -67 46 -17 0 -37 8 -47 19 -17 18 -16 19 2 25 11 4 37 6 58 5
22 -1 57 6 79 14 22 9 52 16 66 17 37 0 48 18 37 59 -10 35 -12 35 -75 16 -18
-6 -26 -1 -42 26 -11 18 -23 50 -26 71 -10 54 -26 44 -54 -35 -21 -60 -25 -65
-42 -56 -14 7 -18 17 -13 37 21 101 29 129 40 142 7 8 14 38 17 65 2 28 13 72
22 98 l18 48 38 -6 c37 -6 39 -5 39 19 0 15 -7 38 -16 52 -14 20 -16 41 -11
106 3 44 9 84 14 88 4 5 40 -5 78 -20 39 -16 86 -29 106 -29 33 -1 37 -4 47
-40 7 -21 12 -60 12 -87 0 -92 26 -183 62 -221 18 -19 44 -40 58 -46 24 -12
25 -17 31 -132 4 -66 7 -121 8 -122 66 -76 68 -79 61 -136 -4 -41 -12 -60 -29
-74 -21 -17 -24 -28 -25 -99 -1 -87 13 -111 29 -49 25 95 34 112 76 130 49 23
54 31 70 125 11 69 10 81 -9 140 -11 36 -23 86 -26 113 -3 26 -15 65 -26 86
-18 36 -24 40 -62 43 -58 4 -67 27 -79 195 -10 137 -17 164 -50 193 -26 22
-59 86 -49 96 15 18 50 139 50 177 0 61 -29 232 -50 293 -22 64 -43 227 -38
304 4 68 28 80 56 29 9 -17 25 -39 35 -48 38 -33 108 -202 133 -324 14 -65 33
-132 44 -149 10 -17 24 -62 31 -99 16 -89 18 -92 57 -78 l32 11 0 77 c0 44 -5
82 -11 88 -6 6 -13 56 -16 110 -2 54 -11 123 -18 153 -33 130 -55 267 -55 348
0 164 -25 242 -157 497 -14 28 -34 74 -44 104 -10 29 -27 67 -38 85 -10 17
-22 42 -26 56 -4 14 -21 56 -37 93 -25 59 -29 81 -29 154 0 48 4 90 9 95 5 5
17 -1 27 -12 10 -11 26 -20 36 -20 10 0 32 -20 50 -44 28 -40 34 -44 56 -35
45 17 60 11 91 -40 22 -36 44 -55 83 -75 29 -14 60 -26 69 -26 8 0 44 29 80
65 55 55 70 65 109 71 75 10 82 14 102 60 27 60 50 71 89 43 16 -13 32 -31 36
-41 5 -17 8 -17 35 6 56 47 101 52 236 24 49 -10 53 -13 65 -52 l13 -41 77 -3
c55 -2 86 2 107 13 44 22 97 19 134 -9 18 -13 57 -31 87 -41 30 -10 84 -32
120 -49 l65 -31 315 7 c173 4 340 10 370 13 l55 5 27 -40 c15 -22 34 -40 41
-40 7 0 26 22 42 49 19 34 40 55 65 66 35 16 40 16 69 0 36 -18 60 -14 86 15
17 19 18 19 46 -4 16 -13 32 -26 37 -28 12 -4 62 -199 62 -241 0 -18 3 -49 6
-70 5 -30 9 -35 20 -26 12 9 14 4 14 -29 0 -30 6 -45 21 -55 22 -16 52 -12 70
9 6 8 15 14 20 14 13 0 21 -62 12 -105 -7 -36 -14 -43 -64 -67 -53 -26 -57
-30 -91 -110 -49 -112 -51 -128 -29 -195 12 -39 19 -86 19 -143 -1 -66 5 -102
26 -161 33 -97 33 -130 -4 -204 -33 -67 -34 -74 -19 -129 l11 -39 18 31 c10
17 28 33 39 37 11 3 39 28 62 56 32 39 50 77 85 181 25 73 50 138 55 145 16
18 4 30 -52 54 -48 21 -49 22 -49 65 0 38 4 46 25 56 40 18 107 -1 123 -35 18
-37 32 -41 68 -22 16 8 35 15 42 15 35 0 134 63 162 103 16 23 41 58 55 77 15
19 35 50 46 68 16 27 25 32 55 32 54 0 129 -48 229 -147 118 -117 146 -135
185 -121 35 12 57 -2 88 -54 13 -22 24 -28 53 -28 45 0 93 -23 139 -65 23 -22
49 -35 79 -39 67 -10 96 -30 131 -93 38 -68 44 -73 88 -73 27 0 32 4 32 23 0
43 20 55 109 67 98 13 104 10 98 -60 -5 -54 -67 -204 -101 -239 -13 -14 -39
-50 -59 -79 -20 -29 -65 -82 -101 -118 -65 -66 -77 -86 -95 -159 -21 -83 -100
-181 -190 -238 -42 -27 -70 -71 -87 -141 -32 -126 -70 -209 -121 -261 -27 -27
-59 -63 -70 -80 -18 -27 -19 -33 -7 -60 7 -16 13 -64 14 -107 l0 -76 48 -39
c26 -21 60 -47 75 -56 15 -10 33 -29 39 -43 10 -21 18 -24 47 -22 48 4 51 29
12 105 -45 90 -63 161 -51 203 5 19 10 51 10 70 0 31 10 45 102 132 87 83 108
98 136 98 40 0 69 -27 78 -75 6 -32 3 -41 -24 -68 -36 -38 -50 -81 -32 -102
11 -13 17 -11 47 15 25 22 38 28 51 21 31 -16 101 -23 134 -13 18 5 56 17 84
26 121 38 161 13 125 -77 -11 -29 -23 -65 -27 -82 -12 -51 -35 -87 -95 -148
-33 -32 -59 -64 -59 -71 0 -7 -16 -28 -36 -47 -20 -18 -44 -50 -54 -70 -10
-19 -49 -64 -86 -98 l-67 -63 -52 7 c-46 5 -56 3 -73 -15 -11 -12 -22 -35 -26
-51 -20 -100 -132 -233 -306 -361 -56 -41 -86 -71 -88 -86 l-3 -22 5800 0
c5595 0 5801 1 5801 18 0 10 -14 31 -31 48 -54 50 -82 102 -75 139 6 29 14 35
74 60 37 16 72 32 78 37 6 4 34 15 61 23 27 8 58 24 68 35 10 11 41 27 68 35
91 27 188 16 233 -26 l22 -21 15 24 c9 12 19 36 23 51 6 27 9 28 57 25 48 -3
53 -5 74 -43 36 -65 47 -53 53 55 3 52 10 104 17 116 13 22 96 70 180 103 28
11 82 41 119 66 37 26 99 62 138 82 39 19 112 68 161 108 50 39 111 87 136
106 26 19 84 66 130 104 46 39 101 83 123 99 21 16 50 48 65 71 57 89 137 177
192 211 32 19 71 50 87 68 29 33 80 56 112 51 8 -2 27 -6 42 -10 25 -6 26 -5
24 27 -2 21 -14 45 -32 64 -16 16 -63 67 -104 113 -41 46 -136 137 -210 204
-74 66 -139 125 -145 131 -5 6 -46 42 -90 81 -44 38 -172 160 -285 270 -221
217 -327 311 -430 380 -36 24 -92 64 -125 88 -63 45 -141 90 -315 179 -185 96
-349 192 -399 235 -59 51 -111 148 -145 269 -40 142 -146 946 -146 1109 0 226
151 899 242 1079 24 47 47 67 109 96 41 20 50 31 83 98 21 43 44 112 52 157
24 125 29 529 10 830 -9 138 -20 327 -26 420 -6 94 -15 213 -20 265 -30 294
-43 406 -60 505 -27 160 -38 310 -51 670 -15 456 0 792 56 1232 8 61 19 209
25 330 19 397 31 586 45 718 32 300 58 1120 75 2375 5 366 14 861 21 1101 10
350 10 506 0 795 -15 428 -50 943 -91 1334 -16 157 -36 375 -45 485 -9 110
-22 256 -30 325 -7 69 -23 220 -35 335 -21 203 -60 499 -135 1000 -19 132 -44
305 -55 384 -88 640 -216 1199 -379 1661 -196 555 -241 670 -339 868 -50 100
-105 217 -122 260 -29 70 -91 191 -297 578 -39 72 -98 178 -133 235 -108 178
-126 211 -181 314 -29 55 -96 166 -148 246 -53 81 -117 180 -143 220 -26 41
-75 112 -109 159 -34 47 -94 130 -132 185 -90 128 -153 206 -362 445 -94 107
-206 242 -250 300 -91 122 -158 200 -345 400 -133 142 -301 335 -431 495 -36
44 -96 118 -134 165 -38 47 -137 162 -220 255 -82 94 -209 240 -282 326 -80
94 -237 259 -395 412 -484 470 -728 653 -1037 777 -177 71 -273 105 -391 141
-244 73 -434 127 -475 134 -22 4 -143 31 -270 60 -172 40 -280 59 -425 75
-107 11 -231 25 -275 30 -180 22 -1258 48 -1375 34z m-2858 -2334 c48 -11 147
-26 258 -41 204 -27 238 -33 270 -46 19 -7 42 -21 51 -29 15 -13 26 -14 69 -5
89 19 164 13 304 -25 105 -28 149 -46 221 -89 80 -48 227 -115 253 -115 5 0
45 -20 88 -44 51 -28 114 -53 175 -69 98 -25 137 -46 211 -115 33 -31 46 -36
110 -43 113 -12 239 -51 294 -91 27 -19 78 -50 114 -67 81 -41 126 -83 152
-141 16 -37 19 -67 19 -165 0 -66 -5 -163 -10 -215 -6 -52 -11 -121 -11 -153
0 -71 -29 -209 -81 -385 -37 -126 -40 -143 -43 -290 -3 -119 -9 -175 -25 -232
-12 -41 -28 -100 -36 -130 -25 -87 -29 -196 -11 -260 9 -30 25 -104 36 -165
10 -60 26 -139 34 -175 21 -86 20 -154 -3 -248 -17 -70 -27 -126 -52 -282 -5
-30 -16 -119 -24 -198 -11 -103 -23 -166 -44 -226 -16 -45 -32 -105 -36 -132
-9 -66 -69 -290 -106 -392 -16 -46 -56 -136 -88 -200 -32 -64 -66 -141 -76
-170 -14 -42 -21 -53 -43 -57 -93 -19 -108 -41 -151 -210 -25 -102 -31 -145
-30 -223 1 -108 -11 -166 -42 -206 -28 -35 -79 -35 -131 1 -38 26 -39 26 -91
10 -29 -8 -70 -22 -92 -31 -67 -26 -134 -21 -188 14 -138 87 -194 100 -278 65
-73 -31 -95 -31 -172 -1 -34 13 -78 27 -97 31 -19 4 -51 19 -70 34 -67 53
-139 64 -237 37 -70 -19 -101 -16 -298 32 -89 22 -131 27 -220 26 -251 -3
-558 -45 -577 -78 -4 -7 -23 -32 -42 -55 -19 -22 -36 -46 -38 -53 -3 -9 -17
-4 -47 15 -76 50 -122 47 -136 -11 -7 -30 -86 -152 -97 -152 -5 0 -8 -20 -8
-45 0 -40 4 -47 32 -65 49 -30 107 -35 164 -14 63 22 140 22 184 -1 18 -9 66
-25 106 -35 66 -15 78 -16 134 -2 56 14 66 14 114 -1 29 -9 106 -22 172 -28
145 -14 143 -14 229 -4 59 6 83 4 145 -15 296 -88 315 -92 460 -84 l135 6 61
-41 c78 -52 122 -67 263 -92 62 -11 132 -29 155 -41 29 -15 62 -22 117 -23 64
-2 87 -7 150 -38 41 -19 88 -51 106 -69 l32 -33 4 -169 c4 -129 1 -182 -10
-218 -7 -27 -11 -53 -8 -59 4 -5 31 -21 61 -34 30 -13 54 -28 54 -32 0 -4 5
-37 10 -73 12 -81 -2 -110 -55 -110 -24 0 -39 -7 -54 -26 -12 -15 -21 -33 -21
-40 0 -7 -10 -30 -22 -50 -20 -35 -22 -49 -20 -166 3 -161 -16 -210 -73 -187
-11 4 -44 8 -74 8 -63 1 -106 24 -151 81 -32 40 -104 72 -235 101 -45 11 -62
20 -70 36 -5 12 -21 27 -36 33 -15 6 -56 42 -93 80 -66 67 -125 100 -181 100
-11 0 -25 4 -30 8 -6 5 -30 14 -54 21 -37 11 -46 10 -59 -3 -14 -13 -12 -19
12 -50 18 -24 35 -36 52 -36 55 0 149 -74 205 -161 37 -59 33 -67 -38 -75 -59
-8 -111 7 -166 47 -21 15 -54 33 -72 39 -19 6 -48 24 -65 40 -17 16 -44 31
-60 35 -16 4 -32 11 -35 16 -4 5 -21 9 -40 9 -34 0 -119 31 -127 47 -3 4 -2
31 1 58 l6 50 68 -4 c52 -2 82 2 129 20 l61 22 -49 13 c-27 7 -52 13 -55 14
-3 0 -21 10 -40 23 -19 12 -68 37 -109 56 -69 30 -80 33 -142 27 -77 -8 -93 3
-54 39 29 27 32 43 12 70 -11 16 -22 17 -87 12 -66 -6 -76 -4 -86 12 -7 11
-36 27 -65 36 -29 10 -64 25 -78 35 -36 24 -137 58 -200 68 -44 6 -65 4 -105
-12 -36 -14 -84 -20 -175 -24 -99 -3 -133 -9 -165 -25 -22 -11 -68 -22 -105
-24 -56 -4 -79 -13 -160 -59 -52 -29 -114 -60 -137 -68 -23 -8 -53 -22 -67
-31 -16 -11 -47 -17 -79 -18 -30 0 -59 -6 -68 -14 -9 -8 -39 -22 -65 -32 -49
-19 -49 -19 -59 -78 -8 -47 -18 -69 -52 -108 -35 -41 -41 -54 -36 -79 8 -45
21 -66 41 -67 9 -1 29 -2 44 -3 15 -1 36 -10 47 -20 18 -17 19 -21 6 -39 -8
-12 -15 -28 -15 -35 0 -8 -14 -30 -31 -50 -31 -35 -31 -36 -13 -51 43 -36 46
-47 29 -87 l-16 -38 39 -40 c40 -43 66 -105 60 -146 -5 -35 34 -53 70 -34 36
19 36 19 103 -22 63 -40 72 -60 43 -102 -21 -30 -89 -30 -139 -1 -35 21 -36
21 -50 3 -38 -51 -39 -60 -11 -115 14 -29 26 -61 26 -72 0 -23 30 -68 81 -122
21 -22 45 -57 54 -78 21 -52 61 -104 115 -153 45 -41 154 -105 200 -119 14 -4
52 -24 85 -45 33 -20 78 -46 100 -57 22 -11 76 -41 119 -67 85 -48 341 -153
400 -163 19 -3 69 -2 110 2 l75 7 -18 34 c-10 19 -36 47 -57 63 -22 15 -64 50
-94 77 -73 66 -127 100 -203 127 -78 29 -203 113 -280 190 -32 31 -76 68 -97
82 -22 14 -43 33 -48 42 -15 28 3 60 42 74 19 7 37 18 40 25 3 7 -8 38 -24 68
-17 31 -30 58 -30 60 0 6 55 22 126 36 81 16 86 20 78 59 -5 23 -20 42 -53 66
-90 66 -102 77 -118 113 -9 21 -20 73 -24 117 -9 91 9 159 46 170 11 3 69 8
130 12 96 5 112 9 133 30 12 12 35 23 49 23 14 0 66 14 115 31 97 33 139 34
238 4 25 -8 63 -18 85 -22 38 -8 40 -10 43 -47 2 -28 -3 -48 -22 -75 -79 -115
-105 -243 -79 -401 8 -47 18 -113 22 -147 8 -69 25 -99 84 -147 37 -29 40 -30
167 -33 92 -2 141 -7 167 -19 66 -28 126 -42 208 -49 114 -9 245 -53 245 -81
0 -7 5 -25 12 -39 26 -57 237 -134 383 -140 112 -4 148 -18 226 -91 39 -35 75
-64 80 -64 5 0 45 -31 90 -70 44 -38 85 -70 90 -70 5 0 18 -14 29 -32 l19 -31
7 27 c11 44 -2 147 -25 196 -26 58 -27 111 -2 134 17 16 24 16 58 5 88 -28
169 -106 198 -189 19 -53 7 -105 -34 -153 -18 -20 -32 -53 -39 -90 -6 -31 -24
-79 -39 -105 -25 -43 -28 -58 -34 -187 -7 -143 -38 -385 -64 -504 -8 -36 -21
-121 -29 -188 -10 -83 -23 -142 -41 -185 -27 -64 -35 -98 -54 -248 -6 -47 -20
-120 -31 -164 -11 -43 -26 -122 -34 -175 -8 -53 -20 -110 -26 -126 -7 -17 -16
-72 -21 -123 -9 -93 -50 -306 -68 -353 -24 -64 -33 -181 -21 -283 9 -81 8
-128 -4 -239 -13 -124 -13 -144 1 -190 21 -70 29 -310 13 -402 -19 -108 -58
-223 -78 -230 -57 -19 -77 -65 -96 -227 -7 -51 -5 -57 16 -72 21 -15 24 -15
39 2 9 9 24 39 34 65 11 31 21 45 27 39 19 -19 21 -186 4 -342 -10 -85 -22
-165 -27 -178 -11 -29 -48 -43 -129 -51 l-65 -6 -32 -81 c-21 -53 -36 -112
-43 -173 -11 -102 -31 -150 -80 -196 -66 -62 -74 -129 -20 -180 28 -27 31 -28
57 -14 30 16 77 61 99 94 8 12 26 62 40 111 32 113 44 131 91 140 21 3 53 15
71 26 l32 20 15 -36 c8 -19 21 -72 28 -118 8 -46 18 -92 24 -103 29 -53 40
-181 38 -425 -3 -261 -6 -280 -59 -380 -14 -25 -27 -63 -31 -85 -10 -55 -46
-109 -88 -128 -19 -10 -39 -17 -44 -17 -16 0 -41 -33 -71 -91 -19 -38 -34 -55
-52 -59 -33 -8 -93 -88 -113 -154 -9 -28 -33 -72 -54 -95 -40 -47 -93 -183
-93 -238 0 -26 -6 -36 -30 -48 -17 -9 -47 -15 -68 -14 -22 2 -53 -6 -77 -18
-77 -40 -151 -66 -207 -72 -61 -7 -85 -23 -120 -79 -12 -19 -40 -47 -64 -61
-41 -27 -44 -27 -111 -16 -64 11 -69 11 -91 -9 -29 -25 -136 -34 -221 -17 -75
15 -138 1 -376 -79 -108 -37 -210 -65 -255 -71 -52 -6 -98 -20 -155 -47 -75
-36 -87 -39 -156 -37 -89 3 -212 -16 -311 -49 -102 -33 -188 -42 -224 -23 -27
14 -35 13 -102 -9 -40 -13 -114 -28 -165 -33 -79 -8 -208 -44 -292 -81 -40
-17 -166 -20 -197 -4 -110 57 -497 62 -648 9 -41 -14 -113 -32 -160 -40 -47
-8 -110 -18 -140 -24 -30 -6 -91 -17 -135 -25 -44 -8 -100 -19 -125 -25 -25
-5 -79 -15 -120 -21 -41 -6 -104 -18 -140 -27 -36 -9 -96 -20 -135 -24 -100
-11 -459 -11 -488 0 -16 6 -28 21 -32 41 -8 35 -50 61 -130 78 -27 6 -173 13
-324 16 l-274 6 -40 27 c-22 15 -47 38 -56 52 -36 54 -79 87 -147 110 -47 17
-99 47 -163 95 -51 39 -117 86 -145 105 -28 18 -67 48 -86 65 -50 46 -92 74
-126 82 -16 4 -46 15 -66 25 -21 11 -58 19 -85 19 -37 0 -61 8 -106 35 l-58
35 -39 -25 c-21 -13 -41 -29 -45 -35 -17 -28 -55 -30 -111 -5 -31 14 -73 29
-93 35 -23 6 -43 19 -50 34 -12 22 -55 49 -158 100 -24 12 -43 27 -43 34 0 8
-15 12 -42 12 -40 0 -98 15 -124 32 -6 4 -14 38 -18 75 -5 47 -14 76 -30 98
-32 42 -62 104 -70 145 -10 53 -57 171 -81 205 -12 17 -32 49 -43 71 -12 23
-39 56 -62 74 -39 31 -40 34 -40 91 0 47 -7 75 -35 133 -20 43 -39 102 -45
142 -5 38 -19 105 -31 149 -32 123 -36 147 -49 343 -10 143 -11 208 -1 295 7
71 10 237 8 452 -4 377 7 739 24 828 8 41 23 71 46 99 18 22 35 50 38 62 2 11
10 53 17 91 l13 70 43 3 c42 3 43 3 63 -44 14 -31 19 -58 16 -81 -4 -22 0 -47
10 -69 15 -31 20 -34 61 -34 46 0 43 -3 138 104 l25 28 22 -19 c12 -11 34 -23
50 -27 15 -3 27 -11 27 -16 0 -5 18 -21 40 -35 22 -14 40 -31 40 -39 0 -7 9
-21 20 -31 11 -10 20 -26 20 -35 0 -10 9 -29 20 -43 20 -26 20 -26 1 -36 -11
-6 -45 -11 -75 -11 -53 0 -56 -1 -69 -32 -8 -18 -21 -39 -30 -47 -23 -18 -21
-44 4 -67 17 -15 19 -26 14 -65 -6 -46 5 -85 28 -100 6 -4 5 -21 -3 -44 -18
-55 -7 -149 25 -220 22 -49 29 -80 34 -166 4 -69 11 -112 21 -126 8 -11 34
-48 57 -81 24 -33 57 -70 74 -82 17 -13 67 -53 112 -91 44 -38 140 -102 211
-143 108 -61 165 -86 326 -139 279 -92 419 -135 465 -143 22 -4 81 -17 131
-30 121 -30 348 -48 537 -41 218 7 297 34 282 95 -9 37 46 53 195 58 195 6
218 13 306 97 63 60 74 76 74 103 0 29 -5 35 -42 52 -42 18 -129 34 -198 36
-28 1 -37 -4 -48 -26 -17 -36 -30 -36 -34 0 -2 20 -8 26 -21 24 -27 -5 -49 17
-41 41 4 11 1 23 -7 28 -23 15 15 36 79 44 31 4 64 11 73 16 22 11 45 64 53
121 7 45 6 47 -41 92 -32 30 -65 51 -98 61 -59 18 -76 31 -92 68 -11 24 -18
27 -57 27 -25 0 -47 4 -50 9 -4 5 35 9 89 10 88 0 97 -2 126 -26 33 -28 89
-41 184 -42 31 -1 71 -11 104 -26 l54 -25 241 5 c254 5 393 15 414 28 6 5 12
25 12 46 0 42 -5 45 -105 85 -31 13 -46 27 -68 69 -19 36 -45 64 -83 92 -31
22 -64 56 -75 77 -19 36 -127 117 -179 133 -68 21 -134 85 -235 230 -52 75
-275 300 -307 310 -10 4 -44 45 -74 91 -30 46 -70 94 -88 106 -19 12 -51 46
-72 76 -45 62 -89 88 -225 132 -50 16 -96 34 -103 39 -14 11 -105 36 -211 58
-44 8 -107 27 -140 41 -41 17 -79 25 -125 26 -57 1 -73 5 -110 31 -51 35 -108
118 -112 160 -5 84 -2 90 61 119 32 14 68 26 80 26 11 0 21 2 21 3 0 11 -82
87 -106 100 -16 8 -38 24 -48 36 -11 12 -38 26 -60 32 -23 6 -55 24 -72 40
l-30 29 -70 -24 c-38 -13 -94 -37 -124 -54 -30 -16 -107 -44 -170 -62 -185
-52 -235 -75 -272 -126 -17 -24 -54 -59 -82 -76 -28 -18 -80 -59 -116 -91 -86
-78 -132 -104 -210 -117 -144 -25 -141 -25 -185 18 -77 75 -155 158 -155 166
0 4 -16 42 -36 84 -68 145 -74 159 -74 170 0 6 -10 27 -22 48 -25 42 -29 148
-8 234 7 28 10 73 6 98 -9 69 19 285 49 377 20 63 28 113 35 235 11 184 33
365 62 510 12 58 24 125 28 150 3 25 13 59 22 75 23 43 56 208 67 327 5 57 18
128 29 158 45 122 107 483 142 822 23 234 44 376 65 443 8 28 20 90 26 139 6
48 22 118 35 153 14 36 30 88 36 117 5 28 14 56 18 61 5 6 22 55 39 111 24 75
40 109 66 137 19 20 46 58 59 86 14 27 44 67 68 89 l42 40 40 -20 c29 -15 69
-22 150 -27 110 -7 142 -17 206 -61 32 -22 141 -68 205 -86 89 -25 157 -27
248 -4 102 24 119 24 239 4 93 -15 94 -15 239 14 125 25 155 35 205 67 l58 38
-109 54 c-61 30 -131 68 -156 84 -25 16 -51 29 -57 29 -6 0 -24 19 -39 43 -16
23 -42 49 -58 57 l-30 15 25 3 c73 10 145 36 186 67 38 29 54 35 94 35 27 0
88 9 136 20 98 23 142 19 189 -15 52 -39 112 -65 187 -80 40 -9 96 -24 123
-35 28 -10 77 -28 110 -40 33 -12 72 -27 86 -34 22 -11 29 -11 48 3 36 27 46
135 22 233 -10 43 -19 120 -20 170 -2 59 -7 98 -15 108 -7 8 -18 31 -25 50 -6
19 -21 45 -34 58 -12 13 -35 47 -52 76 -53 94 -76 125 -95 131 -11 3 -22 14
-25 24 -3 11 -19 25 -35 33 -16 8 -40 30 -52 48 -13 19 -58 57 -101 86 -90 60
-126 93 -182 165 -22 28 -49 56 -60 61 -12 5 -25 19 -30 31 -6 12 -21 25 -35
29 -14 4 -50 14 -80 23 -90 26 -143 57 -159 93 -14 30 -18 32 -45 26 -76 -17
-146 4 -133 40 8 21 78 21 118 1 25 -13 42 -14 104 -6 41 6 81 8 90 5 9 -4 23
-24 32 -45 14 -36 18 -39 53 -39 22 0 42 -5 45 -10 8 -14 81 -61 118 -77 54
-24 172 -107 237 -168 36 -33 93 -85 126 -115 33 -30 68 -73 78 -95 20 -43
121 -191 137 -200 5 -3 16 -32 25 -63 9 -31 36 -91 60 -134 24 -42 55 -107 70
-145 14 -37 35 -91 46 -119 10 -28 27 -62 36 -74 9 -13 33 -55 52 -94 34 -70
36 -71 70 -68 65 6 112 44 162 129 104 178 111 206 110 445 -1 103 3 211 8
239 8 40 6 70 -6 128 -8 42 -13 90 -10 106 3 17 2 85 -3 153 -10 120 -11 125
-54 200 -24 42 -53 98 -64 123 -12 26 -37 59 -58 75 -50 37 -112 123 -137 187
-50 129 -90 197 -135 232 -24 18 -59 52 -76 73 -18 22 -55 58 -84 81 -33 26
-75 76 -116 138 -61 92 -129 159 -217 216 -14 9 -43 39 -64 67 -39 51 -136
118 -206 141 -19 6 -60 28 -92 47 -61 39 -73 66 -61 137 6 36 -16 72 -91 153
-29 31 -30 34 -16 59 9 15 28 30 46 35 31 8 73 58 88 105 9 27 54 61 132 101
61 31 84 60 84 106 0 13 11 34 24 47 12 13 29 35 35 47 10 18 18 22 37 18 29
-8 64 23 64 57 1 31 32 97 64 130 14 16 39 56 55 90 20 43 51 84 103 133 114
112 118 117 134 184 8 34 25 80 38 103 14 23 27 63 31 88 6 37 16 55 51 90 24
24 49 58 55 76 9 29 15 33 47 33 27 0 44 8 69 32 18 18 33 37 33 44 0 15 92
110 137 142 31 22 116 144 157 225 11 20 22 37 26 37 4 0 27 15 51 33 28 21
66 38 104 46 123 26 135 31 204 94 37 34 100 84 140 111 40 27 83 63 95 80 32
43 74 126 81 158 3 15 14 29 25 33 35 11 78 54 85 84 5 23 13 30 46 37 34 8
44 16 64 54 13 25 27 57 30 72 4 21 14 29 43 37 20 6 50 11 66 11 23 0 43 14
91 65 60 63 64 65 111 65 55 0 109 30 175 97 68 70 84 81 119 86 66 9 184 46
209 65 14 10 43 22 64 26 20 4 52 20 70 35 17 16 48 36 67 46 19 10 67 37 106
61 45 28 82 44 103 44 18 0 76 11 129 24 53 13 120 27 147 31 28 3 77 13 110
20 33 8 125 24 205 35 221 33 343 58 433 91 78 28 88 29 199 24 64 -2 136 -9
160 -15z m2788 -3904 c0 -71 -17 -236 -26 -260 -4 -10 -17 -16 -35 -16 -16 0
-31 -6 -33 -12 -2 -7 -13 -43 -25 -79 -12 -36 -28 -117 -35 -180 -12 -100 -46
-245 -76 -323 -7 -18 -17 -26 -34 -26 -14 0 -28 -5 -32 -12 -9 -15 -30 55 -44
148 -19 124 31 324 103 410 13 16 34 48 46 72 12 23 22 42 24 42 1 0 17 -4 35
-9 51 -15 64 15 72 163 4 66 12 135 19 151 12 29 13 29 27 11 8 -12 14 -43 14
-80z m-8172 -592 c76 -36 154 -66 182 -70 50 -7 79 -21 178 -91 33 -23 72 -45
88 -49 42 -10 103 -42 149 -79 22 -17 66 -44 98 -59 86 -41 111 -68 168 -177
30 -56 64 -107 79 -117 14 -9 55 -49 91 -87 50 -54 72 -87 93 -142 32 -84 46
-98 108 -107 46 -7 47 -8 34 -29 -8 -12 -20 -46 -27 -76 -17 -70 -40 -86 -95
-68 -34 12 -40 20 -52 61 -11 40 -21 52 -59 74 -24 15 -59 39 -76 55 -17 15
-35 27 -40 27 -4 0 -16 20 -26 44 -15 34 -31 50 -73 74 -29 17 -79 58 -111 91
-41 43 -69 64 -99 71 -22 7 -75 32 -116 57 -71 43 -76 45 -112 34 -68 -20 -90
-15 -135 34 -32 33 -52 46 -82 51 -36 5 -43 3 -56 -17 -9 -13 -19 -37 -23 -53
-6 -26 -10 -28 -42 -22 -20 3 -40 12 -44 20 -5 9 -22 30 -38 48 -30 32 -30 32
-82 20 -29 -6 -62 -14 -73 -17 -29 -9 -57 51 -49 103 5 33 3 39 -18 49 -13 6
-54 32 -92 58 l-68 48 5 46 c9 71 64 178 119 229 61 56 121 48 296 -34z m7837
-425 c4 -5 0 -18 -10 -29 -9 -10 -20 -31 -24 -46 -8 -28 -9 -27 -16 18 -4 26
-4 51 0 57 8 14 42 14 50 0z m-291 -804 c-3 -22 -10 -64 -15 -93 -10 -51 -12
-53 -29 -37 -16 15 -31 58 -45 130 -4 24 1 39 27 73 l33 43 17 -38 c12 -26 16
-51 12 -78z m-7437 49 c18 -12 21 -20 16 -47 -8 -42 -18 -62 -63 -122 -21 -27
-41 -66 -45 -85 -4 -19 -19 -54 -33 -78 -22 -39 -24 -49 -17 -100 12 -84 9
-146 -10 -181 -13 -27 -20 -30 -43 -25 -144 35 -208 75 -306 193 l-64 78 29
56 c16 31 34 78 40 104 18 73 43 107 113 152 55 36 78 44 172 60 115 20 174
18 211 -5z m538 -330 c8 -47 -2 -56 -56 -52 -47 3 -57 17 -45 64 6 21 12 24
50 24 42 0 44 -1 51 -36z m489 -450 c22 -8 21 -67 -1 -86 -24 -20 -89 -32 -98
-18 -4 6 -4 27 0 46 5 27 14 39 38 49 37 17 40 17 61 9z m6289 -58 c30 -59 28
-126 -7 -211 -38 -93 -35 -91 -63 -59 -41 49 -53 88 -53 174 0 78 1 81 36 120
42 46 51 43 87 -24z m-145 -698 c26 -37 34 -59 39 -111 3 -35 3 -85 -1 -111
-6 -41 -11 -48 -43 -61 -20 -9 -37 -14 -38 -13 -11 13 -45 202 -45 247 0 58
21 106 43 98 7 -2 27 -24 45 -49z m-862 -170 c37 -28 41 -113 6 -120 -44 -10
-144 59 -134 94 10 39 91 55 128 26z m-2087 -184 c23 -5 22 -7 -29 -59 -45
-46 -56 -52 -72 -44 -18 10 -48 65 -48 88 0 24 71 31 149 15z m1454 -108 c4
-6 6 -20 5 -31 -2 -15 -12 -21 -41 -23 -51 -4 -69 11 -56 48 10 26 14 28 47
23 20 -3 40 -11 45 -17z m586 -595 c18 -11 7 -56 -15 -65 -24 -9 -34 2 -34 40
0 35 18 45 49 25z m975 -1783 c17 -24 7 -38 -26 -38 -13 0 -18 8 -18 30 0 36
22 40 44 8z m195 -388 c25 -67 25 -93 -4 -201 l-17 -66 24 -49 c17 -34 41 -61
79 -87 29 -21 57 -44 61 -51 4 -8 3 -85 -3 -172 -6 -88 -10 -179 -8 -204 3
-84 -1 -131 -17 -168 -11 -25 -17 -77 -20 -157 -2 -66 -4 -136 -5 -155 -1 -19
2 -56 6 -81 6 -40 4 -51 -15 -77 -12 -16 -25 -51 -27 -76 -4 -36 -10 -46 -24
-46 -15 0 -17 5 -12 33 3 17 7 34 9 36 7 8 -35 77 -54 88 -30 18 -51 73 -62
164 -5 46 -14 113 -20 149 -5 36 -10 91 -10 122 0 65 -11 99 -44 138 -34 41
-42 146 -19 261 l18 89 32 0 c17 0 35 5 38 10 4 6 -10 10 -34 10 l-41 0 0 130
c0 72 3 130 8 130 13 -1 49 -35 55 -53 6 -16 8 -16 29 5 22 22 23 29 20 154
-2 121 6 184 25 184 5 0 19 -27 32 -60z m344 -507 c21 -76 21 -123 2 -228 -12
-71 -12 -90 2 -172 15 -86 15 -95 -2 -158 -12 -44 -21 -63 -26 -54 -18 33 -49
182 -49 238 0 51 -4 64 -26 86 l-26 26 4 177 c2 117 8 185 16 199 l12 23 38
-38 c28 -27 42 -54 55 -99z m-8282 -490 c12 -32 0 -48 -30 -38 -35 11 -26 60
12 64 4 1 12 -11 18 -26z m7869 -602 c-4 -9 -13 -27 -18 -41 -10 -22 -11 -20
-11 22 -1 41 1 46 18 41 15 -4 18 -9 11 -22z m13 -566 c38 -16 41 -22 67 -140
12 -55 5 -118 -17 -153 -20 -33 -88 -28 -114 8 -17 22 -18 34 -9 110 10 85 29
190 34 190 2 0 20 -7 39 -15z m-8783 -45 c0 -5 -11 -10 -25 -10 -14 0 -25 5
-25 10 0 6 11 10 25 10 14 0 25 -4 25 -10z m3910 -7065 c14 -8 43 -15 65 -15
55 0 75 -14 46 -30 -48 -25 -361 -13 -362 14 0 16 103 44 166 45 35 0 70 -6
85 -14z m200 -35 c0 -5 -11 -10 -25 -10 -14 0 -25 5 -25 10 0 6 11 10 25 10
14 0 25 -4 25 -10z m-987 -415 c-3 -13 -48 -18 -80 -10 -13 3 -21 10 -18 16 9
13 101 7 98 -6z m-30 -596 c29 -28 69 -59 89 -70 50 -26 54 -36 19 -54 -38
-19 -65 -19 -122 1 -42 15 -47 21 -64 70 -10 30 -26 61 -37 70 -28 26 -22 34
23 34 36 0 47 -6 92 -51z m972 -225 c218 -7 243 -24 35 -24 -115 0 -166 -4
-206 -17 -49 -15 -58 -15 -129 0 -41 10 -87 17 -101 17 -49 0 -12 20 39 21 29
1 63 5 77 9 14 5 45 7 70 4 25 -3 122 -7 215 -10z m-1495 -1911 c0 -12 -4 -25
-10 -28 -6 -4 -10 11 -10 37 0 31 3 39 10 28 5 -8 10 -25 10 -37z m15580 -369
c13 -32 -5 -61 -26 -44 -9 9 -10 19 -2 41 12 36 16 36 28 3z m-185 -245 c30
-48 15 -261 -21 -300 -23 -25 -75 -24 -108 2 -21 16 -26 29 -26 62 0 26 -8 51
-20 67 -19 25 -26 85 -12 106 4 7 38 30 76 52 69 40 92 43 111 11z m879 -185
c7 -19 -10 -44 -30 -44 -7 0 -21 -11 -30 -25 -24 -37 -36 -31 -32 16 3 37 7
43 38 54 48 17 47 17 54 -1z"/>
<path d="M15337 25538 l-14 -33 46 -6 c56 -8 63 -2 55 39 -6 28 -10 32 -40 32
-29 0 -36 -5 -47 -32z"/>
<path d="M10867 20775 c-9 -8 -26 -15 -39 -15 -29 0 -48 -17 -48 -42 0 -10 -6
-21 -14 -24 -21 -8 -39 -60 -32 -89 6 -24 10 -25 44 -19 53 9 66 26 63 79 -2
46 11 82 38 102 9 6 13 14 10 18 -4 3 -14 -1 -22 -10z"/>
<path d="M10572 20471 c-18 -22 -32 -44 -32 -49 0 -5 15 -17 34 -27 35 -19 35
-19 85 5 l50 23 -15 28 c-13 26 -59 59 -82 59 -5 0 -23 -18 -40 -39z"/>
<path d="M10385 20310 c-19 -21 -19 -25 1 -55 l16 -25 25 20 c17 13 41 20 72
20 60 0 76 10 58 34 -11 15 -18 16 -34 8 -15 -9 -34 -8 -72 2 -45 12 -52 11
-66 -4z"/>
<path d="M10145 20241 c-22 -4 -62 -23 -90 -42 -27 -19 -84 -52 -127 -73 -42
-21 -87 -52 -100 -68 -40 -52 -73 -82 -106 -100 -28 -15 -31 -20 -22 -37 18
-35 12 -58 -20 -71 -56 -23 -80 -49 -80 -85 0 -21 -9 -44 -25 -63 -13 -16 -38
-65 -54 -108 -16 -44 -59 -137 -95 -209 -70 -137 -84 -189 -72 -270 l7 -46 37
7 c73 14 129 57 187 144 20 30 52 69 70 85 80 70 277 293 310 350 20 34 68 96
106 139 38 42 79 97 90 120 26 57 83 122 123 143 33 17 95 81 96 99 0 6 -9 19
-20 29 -11 10 -18 20 -15 23 9 9 -98 42 -130 41 -16 -1 -48 -5 -70 -8z"/>
<path d="M14143 19534 c-48 -11 -10 -37 70 -49 28 -4 57 -17 72 -31 14 -13 38
-27 52 -30 31 -8 99 7 96 21 -1 6 -26 18 -55 28 -29 10 -60 27 -68 38 -12 15
-31 20 -80 23 -36 3 -75 2 -87 0z"/>
<path d="M8860 18319 c-7 -13 -23 -35 -36 -49 -42 -46 -41 -78 6 -140 62 -81
74 -114 60 -164 -10 -35 -8 -53 9 -116 22 -77 18 -123 -11 -163 -19 -26 -72
-7 -124 44 -35 34 -47 57 -69 128 -15 47 -28 92 -30 99 -3 6 -20 12 -40 12
-21 0 -35 -5 -35 -12 0 -7 -7 -80 -15 -163 -8 -82 -15 -201 -15 -264 l0 -114
40 -71 c27 -51 50 -79 77 -94 21 -13 53 -34 72 -47 38 -28 183 -75 230 -75 48
0 98 -25 114 -57 27 -51 50 -63 163 -84 123 -23 332 -88 407 -125 38 -20 64
-25 117 -25 81 0 102 5 200 44 69 28 87 31 225 35 93 3 166 0 191 -7 46 -12
145 -84 183 -132 24 -31 124 -113 201 -166 25 -17 65 -34 90 -38 25 -4 71 -18
102 -31 39 -16 78 -24 120 -25 35 0 97 -4 138 -8 110 -13 203 3 286 48 56 31
71 44 83 75 13 33 12 39 -2 53 -35 35 -168 26 -254 -18 -32 -16 -59 -19 -185
-19 l-148 0 -54 49 c-36 33 -68 52 -92 57 -29 5 -51 22 -98 72 -34 36 -86 90
-117 119 -30 29 -61 63 -68 75 -6 13 -37 44 -68 68 -31 25 -76 64 -99 86 -51
49 -102 75 -130 68 -11 -3 -53 4 -93 14 l-73 20 -16 -28 c-9 -16 -28 -31 -43
-34 -26 -5 -51 -24 -66 -51 -5 -8 -26 -17 -48 -20 -34 -6 -45 -3 -76 22 -21
16 -65 40 -99 54 -112 43 -227 167 -229 245 -1 23 -45 67 -113 112 -53 36
-125 118 -155 177 -75 146 -96 180 -123 205 -23 22 -30 37 -30 67 0 23 -11 56
-28 84 -47 80 -75 106 -121 114 -49 8 -81 35 -81 68 0 12 -4 28 -9 36 -7 11
-11 9 -21 -10z"/>
<path d="M9280 22720 c0 -5 5 -10 10 -10 6 0 10 5 10 10 0 6 -4 10 -10 10 -5
0 -10 -4 -10 -10z"/>
<path d="M13101 3278 c-14 -50 -12 -100 5 -105 6 -2 16 16 23 41 14 57 14 68
-2 90 -12 17 -15 15 -26 -26z"/>
<path d="M28967 3079 c3 -11 12 -23 20 -26 12 -5 12 -7 1 -14 -10 -7 -9 -9 5
-9 13 0 17 8 17 35 0 30 -3 35 -24 35 -20 0 -23 -4 -19 -21z"/>
<path d="M12956 2975 c-22 -45 -18 -128 5 -133 19 -3 27 13 40 81 9 48 0 87
-20 87 -5 0 -16 -16 -25 -35z"/>
<path d="M12907 2834 c-4 -4 -7 -21 -7 -38 l1 -31 15 29 c15 26 8 56 -9 40z"/>
<path d="M10663 2567 c-33 -38 -67 -159 -61 -219 3 -31 5 -33 43 -33 l40 0 3
46 c2 38 10 54 37 82 29 30 35 44 37 86 1 28 0 52 -2 54 -3 3 -19 8 -36 11
-27 6 -35 2 -61 -27z"/>
<path d="M11026 2473 c-8 -28 -5 -359 4 -373 7 -11 14 -11 38 -1 37 15 42 38
42 180 0 146 -6 176 -39 192 -14 7 -29 15 -33 17 -3 2 -9 -5 -12 -15z"/>
<path d="M10302 2035 c-12 -19 -26 -35 -32 -35 -5 0 -10 -20 -10 -45 l0 -45
39 21 c43 22 64 61 59 105 -5 42 -31 42 -56 -1z"/>
<path d="M27080 1904 c-6 -14 -10 -39 -10 -55 0 -29 0 -29 60 -29 51 0 60 3
60 18 0 15 -79 92 -95 92 -3 0 -10 -12 -15 -26z"/>
</g>
</svg>
